<mxfile host="Electron" modified="2024-10-12T15:55:50.996Z" agent="Mozilla/5.0 (Windows NT 10.0; Win64; x64) AppleWebKit/537.36 (KHTML, like Gecko) draw.io/22.1.16 Chrome/120.0.6099.109 Electron/28.1.0 Safari/537.36" etag="IKXqcBWA2in4MpjYOeVs" version="22.1.16" type="device">
  <diagram id="C5RBs43oDa-KdzZeNtuy" name="Page-1">
    <mxGraphModel dx="1477" dy="681" grid="1" gridSize="10" guides="1" tooltips="1" connect="1" arrows="1" fold="1" page="1" pageScale="1" pageWidth="827" pageHeight="1169" math="0" shadow="0">
      <root>
        <mxCell id="WIyWlLk6GJQsqaUBKTNV-0" />
        <mxCell id="WIyWlLk6GJQsqaUBKTNV-1" parent="WIyWlLk6GJQsqaUBKTNV-0" />
        <mxCell id="a27hsYVGrG07yMlYosN4-22" style="edgeStyle=orthogonalEdgeStyle;rounded=0;orthogonalLoop=1;jettySize=auto;html=1;exitX=0.5;exitY=1;exitDx=0;exitDy=0;entryX=0.5;entryY=0;entryDx=0;entryDy=0;" edge="1" parent="WIyWlLk6GJQsqaUBKTNV-1">
          <mxGeometry relative="1" as="geometry">
            <mxPoint x="215" y="845" as="sourcePoint" />
            <mxPoint x="215" y="865" as="targetPoint" />
          </mxGeometry>
        </mxCell>
        <mxCell id="a27hsYVGrG07yMlYosN4-21" style="edgeStyle=orthogonalEdgeStyle;rounded=0;orthogonalLoop=1;jettySize=auto;html=1;exitX=0.5;exitY=1;exitDx=0;exitDy=0;" edge="1" parent="WIyWlLk6GJQsqaUBKTNV-1">
          <mxGeometry relative="1" as="geometry">
            <mxPoint x="216.31034482758628" y="643" as="targetPoint" />
            <mxPoint x="216.00000000000023" y="623" as="sourcePoint" />
          </mxGeometry>
        </mxCell>
        <mxCell id="1CRE_iQsh6xUmbvRWO65-19" style="edgeStyle=orthogonalEdgeStyle;rounded=0;orthogonalLoop=1;jettySize=auto;html=1;exitX=0.5;exitY=1;exitDx=0;exitDy=0;entryX=0.5;entryY=0;entryDx=0;entryDy=0;" parent="WIyWlLk6GJQsqaUBKTNV-1" source="WIyWlLk6GJQsqaUBKTNV-3" target="1CRE_iQsh6xUmbvRWO65-6" edge="1">
          <mxGeometry relative="1" as="geometry" />
        </mxCell>
        <mxCell id="WIyWlLk6GJQsqaUBKTNV-3" value="&lt;span style=&quot;font-size: 14px;&quot;&gt;&lt;b&gt;initialize_step&lt;/b&gt;&lt;/span&gt;" style="rounded=1;whiteSpace=wrap;html=1;fontSize=12;glass=0;strokeWidth=1;shadow=0;" parent="WIyWlLk6GJQsqaUBKTNV-1" vertex="1">
          <mxGeometry x="120" y="190" width="190" height="40" as="geometry" />
        </mxCell>
        <mxCell id="1CRE_iQsh6xUmbvRWO65-20" style="edgeStyle=orthogonalEdgeStyle;rounded=0;orthogonalLoop=1;jettySize=auto;html=1;exitX=0.5;exitY=1;exitDx=0;exitDy=0;entryX=0.5;entryY=0;entryDx=0;entryDy=0;" parent="WIyWlLk6GJQsqaUBKTNV-1" source="1CRE_iQsh6xUmbvRWO65-6" target="1CRE_iQsh6xUmbvRWO65-7" edge="1">
          <mxGeometry relative="1" as="geometry" />
        </mxCell>
        <mxCell id="1CRE_iQsh6xUmbvRWO65-6" value="&lt;span style=&quot;font-size: 14px;&quot;&gt;&lt;b&gt;do_shock(&quot;shock1&quot;)&lt;/b&gt;&lt;/span&gt;" style="rounded=1;whiteSpace=wrap;html=1;fontSize=12;glass=0;strokeWidth=1;shadow=0;" parent="WIyWlLk6GJQsqaUBKTNV-1" vertex="1">
          <mxGeometry x="120" y="250" width="190" height="40" as="geometry" />
        </mxCell>
        <mxCell id="1CRE_iQsh6xUmbvRWO65-21" style="edgeStyle=orthogonalEdgeStyle;rounded=0;orthogonalLoop=1;jettySize=auto;html=1;exitX=0.5;exitY=1;exitDx=0;exitDy=0;entryX=0.5;entryY=0;entryDx=0;entryDy=0;" parent="WIyWlLk6GJQsqaUBKTNV-1" source="1CRE_iQsh6xUmbvRWO65-7" target="1CRE_iQsh6xUmbvRWO65-8" edge="1">
          <mxGeometry relative="1" as="geometry" />
        </mxCell>
        <mxCell id="a27hsYVGrG07yMlYosN4-66" style="edgeStyle=orthogonalEdgeStyle;rounded=0;orthogonalLoop=1;jettySize=auto;html=1;exitX=1;exitY=0.5;exitDx=0;exitDy=0;entryX=0;entryY=0.5;entryDx=0;entryDy=0;" edge="1" parent="WIyWlLk6GJQsqaUBKTNV-1" source="1CRE_iQsh6xUmbvRWO65-7" target="a27hsYVGrG07yMlYosN4-62">
          <mxGeometry relative="1" as="geometry">
            <Array as="points">
              <mxPoint x="310" y="320" />
            </Array>
          </mxGeometry>
        </mxCell>
        <mxCell id="1CRE_iQsh6xUmbvRWO65-7" value="&lt;span style=&quot;font-size: 14px;&quot;&gt;&lt;b&gt;do_loans&lt;/b&gt;&lt;/span&gt;" style="rounded=1;whiteSpace=wrap;html=1;fontSize=12;glass=0;strokeWidth=1;shadow=0;" parent="WIyWlLk6GJQsqaUBKTNV-1" vertex="1">
          <mxGeometry x="120" y="310" width="190" height="40" as="geometry" />
        </mxCell>
        <mxCell id="1CRE_iQsh6xUmbvRWO65-22" style="edgeStyle=orthogonalEdgeStyle;rounded=0;orthogonalLoop=1;jettySize=auto;html=1;exitX=0.5;exitY=1;exitDx=0;exitDy=0;entryX=0.5;entryY=0;entryDx=0;entryDy=0;" parent="WIyWlLk6GJQsqaUBKTNV-1" source="1CRE_iQsh6xUmbvRWO65-8" target="1CRE_iQsh6xUmbvRWO65-9" edge="1">
          <mxGeometry relative="1" as="geometry" />
        </mxCell>
        <mxCell id="1CRE_iQsh6xUmbvRWO65-8" value="&lt;b style=&quot;&quot;&gt;&lt;font style=&quot;font-size: 10px;&quot;&gt;compute_interest_loans_leverage&lt;/font&gt;&lt;/b&gt;" style="rounded=1;whiteSpace=wrap;html=1;fontSize=12;glass=0;strokeWidth=1;shadow=0;" parent="WIyWlLk6GJQsqaUBKTNV-1" vertex="1">
          <mxGeometry x="120" y="370" width="190" height="40" as="geometry" />
        </mxCell>
        <mxCell id="1CRE_iQsh6xUmbvRWO65-9" value="&lt;span style=&quot;font-size: 14px;&quot;&gt;&lt;b&gt;do_shock(&quot;shock2&quot;)&lt;/b&gt;&lt;/span&gt;" style="rounded=1;whiteSpace=wrap;html=1;fontSize=12;glass=0;strokeWidth=1;shadow=0;" parent="WIyWlLk6GJQsqaUBKTNV-1" vertex="1">
          <mxGeometry x="120" y="422" width="190" height="40" as="geometry" />
        </mxCell>
        <mxCell id="1CRE_iQsh6xUmbvRWO65-25" style="edgeStyle=orthogonalEdgeStyle;rounded=0;orthogonalLoop=1;jettySize=auto;html=1;entryX=0.5;entryY=0;entryDx=0;entryDy=0;" parent="WIyWlLk6GJQsqaUBKTNV-1" source="1CRE_iQsh6xUmbvRWO65-10" target="1CRE_iQsh6xUmbvRWO65-11" edge="1">
          <mxGeometry relative="1" as="geometry" />
        </mxCell>
        <mxCell id="1CRE_iQsh6xUmbvRWO65-10" value="&lt;b style=&quot;&quot;&gt;&lt;font style=&quot;font-size: 9px;&quot;&gt;compute_fitness&lt;/font&gt;&lt;/b&gt;" style="rounded=1;whiteSpace=wrap;html=1;fontSize=12;glass=0;strokeWidth=1;shadow=0;" parent="WIyWlLk6GJQsqaUBKTNV-1" vertex="1">
          <mxGeometry x="120" y="642" width="190" height="40" as="geometry" />
        </mxCell>
        <mxCell id="1CRE_iQsh6xUmbvRWO65-11" value="&lt;b style=&quot;&quot;&gt;&lt;font style=&quot;font-size: 9px;&quot;&gt;compute_policy&lt;/font&gt;&lt;/b&gt;" style="rounded=1;whiteSpace=wrap;html=1;fontSize=12;glass=0;strokeWidth=1;shadow=0;" parent="WIyWlLk6GJQsqaUBKTNV-1" vertex="1">
          <mxGeometry x="120" y="697" width="190" height="40" as="geometry" />
        </mxCell>
        <mxCell id="1CRE_iQsh6xUmbvRWO65-27" style="edgeStyle=orthogonalEdgeStyle;rounded=0;orthogonalLoop=1;jettySize=auto;html=1;exitX=0.5;exitY=1;exitDx=0;exitDy=0;entryX=0.5;entryY=0;entryDx=0;entryDy=0;" parent="WIyWlLk6GJQsqaUBKTNV-1" source="1CRE_iQsh6xUmbvRWO65-12" target="1CRE_iQsh6xUmbvRWO65-13" edge="1">
          <mxGeometry relative="1" as="geometry" />
        </mxCell>
        <mxCell id="1CRE_iQsh6xUmbvRWO65-12" value="&lt;b style=&quot;&quot;&gt;&lt;font style=&quot;font-size: 9px;&quot;&gt;compute_bad_debt&lt;/font&gt;&lt;/b&gt;" style="rounded=1;whiteSpace=wrap;html=1;fontSize=12;glass=0;strokeWidth=1;shadow=0;" parent="WIyWlLk6GJQsqaUBKTNV-1" vertex="1">
          <mxGeometry x="120" y="751" width="190" height="40" as="geometry" />
        </mxCell>
        <mxCell id="1CRE_iQsh6xUmbvRWO65-13" value="&lt;b style=&quot;&quot;&gt;&lt;font style=&quot;font-size: 9px;&quot;&gt;compute_rationing&lt;/font&gt;&lt;/b&gt;" style="rounded=1;whiteSpace=wrap;html=1;fontSize=12;glass=0;strokeWidth=1;shadow=0;" parent="WIyWlLk6GJQsqaUBKTNV-1" vertex="1">
          <mxGeometry x="120" y="811" width="190" height="40" as="geometry" />
        </mxCell>
        <mxCell id="1CRE_iQsh6xUmbvRWO65-17" style="edgeStyle=orthogonalEdgeStyle;rounded=0;orthogonalLoop=1;jettySize=auto;html=1;entryX=0.049;entryY=1;entryDx=0;entryDy=0;entryPerimeter=0;" parent="WIyWlLk6GJQsqaUBKTNV-1" target="1CRE_iQsh6xUmbvRWO65-40" edge="1">
          <mxGeometry relative="1" as="geometry">
            <mxPoint x="81.43000000000006" y="358.48" as="targetPoint" />
            <mxPoint x="135" y="937.6190476190475" as="sourcePoint" />
            <Array as="points">
              <mxPoint x="136" y="938" />
              <mxPoint x="136" y="940" />
              <mxPoint x="39" y="940" />
            </Array>
          </mxGeometry>
        </mxCell>
        <mxCell id="1CRE_iQsh6xUmbvRWO65-26" style="edgeStyle=orthogonalEdgeStyle;rounded=0;orthogonalLoop=1;jettySize=auto;html=1;exitX=0.5;exitY=1;exitDx=0;exitDy=0;entryX=0.5;entryY=0;entryDx=0;entryDy=0;" parent="WIyWlLk6GJQsqaUBKTNV-1" source="1CRE_iQsh6xUmbvRWO65-11" target="1CRE_iQsh6xUmbvRWO65-12" edge="1">
          <mxGeometry relative="1" as="geometry" />
        </mxCell>
        <mxCell id="1CRE_iQsh6xUmbvRWO65-37" value="model.&lt;br&gt;initialize" style="ellipse;whiteSpace=wrap;html=1;aspect=fixed;" parent="WIyWlLk6GJQsqaUBKTNV-1" vertex="1">
          <mxGeometry x="26" y="20" width="60" height="60" as="geometry" />
        </mxCell>
        <mxCell id="a27hsYVGrG07yMlYosN4-18" style="edgeStyle=orthogonalEdgeStyle;rounded=0;orthogonalLoop=1;jettySize=auto;html=1;" edge="1" parent="WIyWlLk6GJQsqaUBKTNV-1" source="1CRE_iQsh6xUmbvRWO65-40">
          <mxGeometry relative="1" as="geometry">
            <mxPoint x="200" y="120" as="targetPoint" />
          </mxGeometry>
        </mxCell>
        <mxCell id="1CRE_iQsh6xUmbvRWO65-40" value="" style="triangle;whiteSpace=wrap;html=1;" parent="WIyWlLk6GJQsqaUBKTNV-1" vertex="1">
          <mxGeometry x="32" y="114" width="148" height="80" as="geometry" />
        </mxCell>
        <mxCell id="j5H0h56bUbIma8D8IlT1-16" value="&lt;font style=&quot;font-size: 9px;&quot;&gt;&lt;b style=&quot;&quot;&gt;compute_credit_channels_and_best_lender&lt;/b&gt;&lt;/font&gt;" style="rounded=1;whiteSpace=wrap;html=1;fontSize=12;glass=0;strokeWidth=1;shadow=0;" parent="WIyWlLk6GJQsqaUBKTNV-1" vertex="1">
          <mxGeometry x="120" y="591" width="190" height="40" as="geometry" />
        </mxCell>
        <mxCell id="NNwZ8-mP0xMXk7h3Y8-c-18" style="edgeStyle=orthogonalEdgeStyle;rounded=0;orthogonalLoop=1;jettySize=auto;html=1;exitX=0.5;exitY=1;exitDx=0;exitDy=0;" parent="WIyWlLk6GJQsqaUBKTNV-1" edge="1">
          <mxGeometry relative="1" as="geometry">
            <mxPoint x="217.31034482758628" y="591" as="targetPoint" />
            <mxPoint x="217.00000000000023" y="571" as="sourcePoint" />
          </mxGeometry>
        </mxCell>
        <mxCell id="a27hsYVGrG07yMlYosN4-0" value="&lt;span style=&quot;font-size: 14px;&quot;&gt;&lt;b&gt;do_repayments&lt;/b&gt;&lt;/span&gt;" style="rounded=1;whiteSpace=wrap;html=1;fontSize=12;glass=0;strokeWidth=1;shadow=0;" vertex="1" parent="WIyWlLk6GJQsqaUBKTNV-1">
          <mxGeometry x="120" y="476" width="190" height="40" as="geometry" />
        </mxCell>
        <mxCell id="a27hsYVGrG07yMlYosN4-1" value="&lt;b style=&quot;&quot;&gt;&lt;font style=&quot;font-size: 9px;&quot;&gt;compute_liquidity&lt;/font&gt;&lt;/b&gt;" style="rounded=1;whiteSpace=wrap;html=1;fontSize=12;glass=0;strokeWidth=1;shadow=0;" vertex="1" parent="WIyWlLk6GJQsqaUBKTNV-1">
          <mxGeometry x="120" y="530" width="190" height="40" as="geometry" />
        </mxCell>
        <mxCell id="a27hsYVGrG07yMlYosN4-3" style="edgeStyle=orthogonalEdgeStyle;rounded=0;orthogonalLoop=1;jettySize=auto;html=1;exitX=0.5;exitY=1;exitDx=0;exitDy=0;entryX=0.5;entryY=0;entryDx=0;entryDy=0;" edge="1" parent="WIyWlLk6GJQsqaUBKTNV-1">
          <mxGeometry relative="1" as="geometry">
            <mxPoint x="216" y="463" as="sourcePoint" />
            <mxPoint x="216" y="475" as="targetPoint" />
          </mxGeometry>
        </mxCell>
        <mxCell id="a27hsYVGrG07yMlYosN4-4" style="edgeStyle=orthogonalEdgeStyle;rounded=0;orthogonalLoop=1;jettySize=auto;html=1;exitX=0.5;exitY=1;exitDx=0;exitDy=0;entryX=0.5;entryY=0;entryDx=0;entryDy=0;" edge="1" parent="WIyWlLk6GJQsqaUBKTNV-1">
          <mxGeometry relative="1" as="geometry">
            <mxPoint x="217" y="517" as="sourcePoint" />
            <mxPoint x="217" y="529" as="targetPoint" />
          </mxGeometry>
        </mxCell>
        <mxCell id="a27hsYVGrG07yMlYosN4-110" style="edgeStyle=orthogonalEdgeStyle;rounded=0;orthogonalLoop=1;jettySize=auto;html=1;exitX=1;exitY=0.5;exitDx=0;exitDy=0;" edge="1" parent="WIyWlLk6GJQsqaUBKTNV-1" source="a27hsYVGrG07yMlYosN4-5">
          <mxGeometry relative="1" as="geometry">
            <mxPoint x="340" y="883.6666666666667" as="targetPoint" />
          </mxGeometry>
        </mxCell>
        <mxCell id="a27hsYVGrG07yMlYosN4-5" value="&lt;span style=&quot;font-size: 14px;&quot;&gt;&lt;b&gt;setup_links&lt;/b&gt;&lt;/span&gt;" style="rounded=1;whiteSpace=wrap;html=1;fontSize=12;glass=0;strokeWidth=1;shadow=0;" vertex="1" parent="WIyWlLk6GJQsqaUBKTNV-1">
          <mxGeometry x="120" y="863.63" width="190" height="40" as="geometry" />
        </mxCell>
        <mxCell id="a27hsYVGrG07yMlYosN4-7" value="&lt;font style=&quot;font-size: 9px;&quot;&gt;&lt;b style=&quot;&quot;&gt;compute_probability_of_lender_change&lt;/b&gt;&lt;/font&gt;" style="rounded=1;whiteSpace=wrap;html=1;fontSize=12;glass=0;strokeWidth=1;shadow=0;" vertex="1" parent="WIyWlLk6GJQsqaUBKTNV-1">
          <mxGeometry x="120" y="923.63" width="190" height="40" as="geometry" />
        </mxCell>
        <mxCell id="a27hsYVGrG07yMlYosN4-9" value="&lt;b style=&quot;border-color: var(--border-color); color: rgb(0, 0, 0); font-family: Helvetica; font-style: normal; font-variant-ligatures: normal; font-variant-caps: normal; letter-spacing: normal; orphans: 2; text-align: center; text-indent: 0px; text-transform: none; widows: 2; word-spacing: 0px; -webkit-text-stroke-width: 0px; background-color: rgb(251, 251, 251); text-decoration-thickness: initial; text-decoration-style: initial; text-decoration-color: initial; font-size: 14px;&quot;&gt;model.&lt;br&gt;simulate_full&lt;br style=&quot;border-color: var(--border-color);&quot;&gt;∀ t=0..T&lt;/b&gt;" style="text;whiteSpace=wrap;html=1;" vertex="1" parent="WIyWlLk6GJQsqaUBKTNV-1">
          <mxGeometry x="36" y="119" width="120" height="60" as="geometry" />
        </mxCell>
        <mxCell id="a27hsYVGrG07yMlYosN4-16" value="model.&lt;br&gt;finish" style="ellipse;whiteSpace=wrap;html=1;aspect=fixed;" vertex="1" parent="WIyWlLk6GJQsqaUBKTNV-1">
          <mxGeometry x="170" y="59" width="60" height="60" as="geometry" />
        </mxCell>
        <mxCell id="a27hsYVGrG07yMlYosN4-17" style="edgeStyle=orthogonalEdgeStyle;rounded=0;orthogonalLoop=1;jettySize=auto;html=1;exitX=0.5;exitY=1;exitDx=0;exitDy=0;entryX=0.142;entryY=0.011;entryDx=0;entryDy=0;entryPerimeter=0;" edge="1" parent="WIyWlLk6GJQsqaUBKTNV-1" source="1CRE_iQsh6xUmbvRWO65-37" target="a27hsYVGrG07yMlYosN4-9">
          <mxGeometry relative="1" as="geometry" />
        </mxCell>
        <mxCell id="a27hsYVGrG07yMlYosN4-19" style="edgeStyle=orthogonalEdgeStyle;rounded=0;orthogonalLoop=1;jettySize=auto;html=1;entryX=0;entryY=0.5;entryDx=0;entryDy=0;" edge="1" parent="WIyWlLk6GJQsqaUBKTNV-1" source="1CRE_iQsh6xUmbvRWO65-40" target="WIyWlLk6GJQsqaUBKTNV-3">
          <mxGeometry relative="1" as="geometry">
            <mxPoint x="40" y="200" as="sourcePoint" />
            <Array as="points">
              <mxPoint x="80" y="210" />
            </Array>
          </mxGeometry>
        </mxCell>
        <mxCell id="a27hsYVGrG07yMlYosN4-23" style="edgeStyle=orthogonalEdgeStyle;rounded=0;orthogonalLoop=1;jettySize=auto;html=1;exitX=0.5;exitY=1;exitDx=0;exitDy=0;entryX=0.5;entryY=0;entryDx=0;entryDy=0;" edge="1" parent="WIyWlLk6GJQsqaUBKTNV-1">
          <mxGeometry relative="1" as="geometry">
            <mxPoint x="214" y="905" as="sourcePoint" />
            <mxPoint x="214" y="925" as="targetPoint" />
          </mxGeometry>
        </mxCell>
        <mxCell id="a27hsYVGrG07yMlYosN4-25" value="" style="shape=image;verticalLabelPosition=bottom;labelBackgroundColor=default;verticalAlign=top;aspect=fixed;imageAspect=0;image=data:image/png,iVBORw0KGgoAAAANSUhEUgAAAVAAAAAyCAYAAAAKo4M8AAAAAXNSR0IArs4c6QAAAARnQU1BAACxjwv8YQUAAAAJcEhZcwAADsMAAA7DAcdvqGQAABhgSURBVHhe7Z0JXFXV9sd/1wEUrxm+HDBAZBIVRXE2NLRES3MsZ03ylWaZWpo2qeVQifVXKjHfw55DBiXOJhqgIoIDKCgzAgIKCMp4UeAO67/v5UCAdzgXAS92vp/P+XDuPvcezlln77XXWnvvdUTEgICAgICA3jTj/goICAgI6ImgQAUEBATqiKBABQQEBOqIoEAFBAQE6oigQAUEBATqiKBABQQEBOqIoEAFBAQE6ogBKFAZcoM3YVRbZyw4eAsKrlRAC5SN4HWvoq39EhxML+MKBQQEGhsDUKByFKfF4Qos0cPyGYi4UgEtUDHSouIAKxtYPtuCKxQQEGhshJVIAgICAnVEiIEKCAgI1JEnpkBJEg3fD2dh4pzxGDRsGXwSJdwRAfXIIYn1xYfTpmLO+Bcw7F0fJJY2IedBdh9Re7fi19gSrkCg6UCQ5V/D3vU+iC1vqg6rDLlBXvgu6Dbb4wFlIeg7LwRl6RhjULrwjY4ih4LXzKdV/ukklYaThw3IdKk/3ecOCzyKIu8srZm4hvwzS0ka7kE2cKKl/tncUQNHkUuhGxfSauXz5ooEmg6KvPO0ceY6Vd1r0igK6MaOJfSeXwqveqgojqQd7qvIL+0hV/IoOixQwoOI7zBMJIKI72Y7EjOWbcKuE1eRVapuTJ0gjTuITRmv4QM3CzRLicJfyUAr45Z4OoZDGkJmJYjz3YWMeQvgZkZIibqMZCYt45bNueOGzAOk/L4Bm43c8Ql73sKQ12NA6Tj4Vg9WZ9rCduTrePPNN7ltLqaNtFeV268KRD739QrkyA/6DPasnrUdMB5zK38zbSRsRZZ4ZVc8+4YWpEn4fYU3jD5cwuqeMVdYmzLkRh3FjnWfYfWGr7HFYyPWrP4Snr9fRIba+lzPKK3FT96GZ5QO70bUDo4LlmNUwDpsDrvHWqp2ROI+WLBuEAI++BFh+RqkxClSHhRQ2AYX5f8kDP2WwgplXHk1FA8pP+MGBf53ObmKQWLXleQTU0AK7nAFMsoL/ok2BWay8mKK3DaOndOFvgi+xx1/mqgvmTGL3cOTAnNYv1l2jbYNMyU4rKPgQjl33FBR0MPon2mi2//RFXX3LlBHFCRN2UdvKOsVrGjCtouUJ61ZYx6lnPLjfqWFZmKym+9F5xJy6KGun7D2Ge01h9w8LlKhpu8yqy7a+21yGPkV+adJ/q630nsUqSpfTwENablKs+nKjn+THVzJI7yYK9SO4u5JWu6ymvzv8rFDpXTXfzW5LD9Jd9XIQA8Fmk3+S51UysDii2CScKXqkVFx9P9ovp2YYLdUswlccpk8hjJl4LiJwkp0Ps0mSH3LTEEl4VtoKMTkuCGUSrhSg6U8hrwnjqZVgXdrdQgCj4eCJMFryUKlQN8g7wTNLmYN5HHk/cqHdIyX4lBQeYI3TXT8nALva+r8lMplFTmIZ7FrUFMbFXcpcNUwEk/4maJ1a2s9YB1IcSYlhB4gj/ns/Co58FegTPFQgvdsclwVQPf5XJaWesxfgUqC6QsL5YXyjb2V0x2/d8mU3Zypux/deeRCmTII20SOTUUZ1IV6l1k+s2hdVZVlQ1g+V2aoyOh+4OfkMHoHxZTXZ+NpGBQ5F+nX4wnEUxU9YUooxmsiqwesbrl4UQxf4/6+Py17y48y+TwOlfJzpdFeN1it1ABnAJkuOqbWOlO28bJITxoGB3L3S3tE+dQJ1ZiJGfUfN4+WrvmJfAJ308dW+ipQdmVKWVhMJ69oPr9hddl/JVmo6Qh4j8LL02JwJkO554j+9s+qyrTTEl1efh1vmwH5v+zCgeu1R9nv4+IhP0TjRbw9vjdMlHGMr7fjvKZYQxOk3mVWdBWHfjoLDJuC8c7tQLlB+HrL+VoxLwNBmoDDnsfgMHcUHFoa/vIIefp5rPk92jBlWRvKRIT/VdWuxche6MorFK5AUWQoMlz7oLPOx0GQJh2H505zzHWzY7VSHex8EX/CO6wVBg60xXNqzymCUbdecDGLxx8HwpChVPmPS4v+WHEzE+HHd2Prl4sxfUQvdKjDUICo/WBMX5iDbXsvIU/ndTVH++GTsTBlL/aG5iq1dRU8FWgZ0iNCEKLcdXFBf0tNweRatLWG8wgrtnMVJyJu11ymWXQdp/ZGAG5TMLa3GJQVhl8j2uL5dk1hYIQP9S0zVmHDA7A3ywxuC0ajt5EMWeePIaJTZ7TjvmE4EMpjA+F9xBFTXCyFycb1TX4yIoKVPbMTprxgjzYVpTqQIOlqHl7u34XHar8SxPofxJERbnDppqnesvNduoB4mKDzs200P2OTduhgwr597CzCs3lNIGok2qH3iBEo2XkMobk8rsukO0ZMlmPnH5eRW02D8qzbBUiMiFbt8e/xGKLmaGms/HIWrlxPY2ephkyKslLAZrQTrEW5CPn5OMyXjkW3p6a11bfMiImsHKXojtFO5hDlh+LnPR2wdLy1ASqoEsSdO4VQfToOAZ4QSmLCcFBlKvP1bBiKTESd74ReXVtzBVoov4lzvtfhMrYfLDVpW8pBbEg827FA766mFWXqaP4vWAxgBoEkCpE3i7hCQ0CENk4jMLPVn/ALyaxhVarnWTi5uqLVvhMIqdYR8Gt7JYm4cDCK7ejT49UkP7+E2WTVaP8CFm9fivY7V2DGpEX4zXYZVrp0eHrWwte7zJgb8eK/sX2RAjtXzMGk+Udgu/E9uJgaoMWuuI2IE1dhNbYvbAzw8po2D5EWEwlVZEiPDoruxuKC9UD0aqO7hSluMe8ntCvG9rVgtU4D8kLcjVZdhXaqDIIcpOUa2CKKtpZwHFSKI8FxPEI3zdC2Ww8MkoQh+Pp9roynAtU/lschz8PtG3e5D7URw37GVlxOPIMDR/ywfW4fiJ8a7dlAMmvlgBle55B45jCOHPkec3u1M8wO5/5NXA41xmDbzjDiinRDeBD1MybZv4KNYXlcWS2Y1ROx3ws7g9Ig5YoMHcoPww8f7UbUA74BQII03R/rJg7HxC1hyK/9szrGP4vjolDobAMttiKHHPcTIxEKO9g+z3xvTRTdw20Nj0k9eUjJKdQ+57SxEXWA3cCuyA9OQAaPCxN1scNAq2QEJ2RX3QcPBVrHWJ6Swmyk3KoYCLGy74L2qr16hkpRkJ2FrKz62LJxT1IfcRoDl1kDI0uPR4DEXOXa8Vfw+Yjw240jSXIYG6mfbi+PO4hlsxdj3alkZoc1ASgXIVu/xYVeA9DdhK8kHiLpzx348mgIjm7yw+Xag6p1in8WITYsl2f88yHS429AYmWLrh21LHsoK2EeErfPi3xkScp4uMqNiQmet7UDrsUiOYdHuzfqDNvBz+FaRDKzpyvgoUDrGMtjoipLvYGzKiHbYKhtJz2sEf4oUv+Au10XdOlSH5sdhm8OZdXtcTFsmTUsMuSm3UQy8zDattZj3ZE8EzFn4gGzAXC2E3OF1anslOwwZrAt2nKlhguzqK/uw4acedg8rydacaW6MUGPOV9ix3TWsPMlKCmrrnKqxT/FQzGiz78qinUhv43IK8x6suER/2SKLu0GU9CmYrRu8RS5hGpphlZtxKymJiAls5Qr04LICG2eZU/yQgoyOX2rW4FWxfIc8OogGz1ieWVIi7oM5S8BZ7zcz6xB3M1m1nNxqFg1n7UetmLEfTUCz3DnrjMGLrOGRY7SEqUF3RXmHflb3orkyzgUkg/TaS+i7zNqqiXdQ0yoUjJ9Mdyxo+HLhbnaQb+kYs6KsbDUUxEplxDOXeYOx349YVPDCqwW/xw2EI6d+HVQlH4NAd2dYGfM4zqoDCWF5UBvc3Tk3fE3VZrD1MwSnVi7K3rA7lknz8DMtjNQLsEDrmPTqUD/juX1xiB7PRxKxS2E+KqcWIgnvQZXW/59cFPnny0zKfLu3uH2+SLD3egrCIUFRvTXEKcrTsD5I8yqdxmFITb6yIUgk9xXE66puWXfK4L8YQFy1ByrsWUXgE8SLMq4gKNdZmKqjbo4ojLOeQb/2R/xaIxThQgmXbtj4IjusKiuxKrin2I4je6Drjz8R2WHlp+YiHZ8rXa+g0MtjNBanaOgEVOYiY0NtOPTc4ArIxu5RRWhFR2PQIac+ChEKnedBsGpK1+LglWQ+HPwOZ3F9ofhvSVjnqLpSboQZKY/BYi7dAUSDMGEweZqGhlzh2Mv4U8mGv1CIkqyEfj5GDXhmpqbxdj1uPXHAvRVc6zGZrcEf6Tqeo2KDNnhN9F7XG/mkKujEBF7v8I7R2+ye1aPolgCce3OpCr+2R1jnK3Ar2YVIubCfbxQ31a7qRlsO3H7vGgP647tNI/qN1F0NNHKig2YjXHm5wIooVyc37MHf7Fd05mL8fZwTdOT5JAk+mPX/ovIkhlWeLnuNLDMqBCJJ/Zi/8VM1kwbA/aM0i/Bb9Ns2Dt7IqohhlHLbuHqqQQtHc5D3Iq8hGj0x0zXHnpOCTPDmK3hasI1NTdpuAds5vkhU82xGlvxXsy11qW6WB2IMEZfWw1XqoxJ+t+Cm5sTnlf7kMtx+1om+tbqTGSpN3BcFR/vA2c7nssniqLxV+wAuNS3N9O8HTo5WrCdfNy+p8V6YxZtTopyuL4junbQ78k1BbQr0MqKrVfgnlAaexjbfgplP3sXXhsmw0bTUj5FEn5f8hYWrDiKON7TPGphaKPwDSwzRZIfloyfhxWH4vGAK2sQ5FHwdG4LkagHJqz/Ed5b9iOpqBy6+7lW6GLdnf0th5Rnp6hIu46/oiSaO5xK11U8EIN76DEl7EmhuIdbsc1goqnzLLyD+GQXzHHtpr4BPojC78c7a1Z6ukbIqyhF+snDyJr1Muz4ejMtOsL6BRtWj6Xan7WoPaz6mLMdCfJLtMQPqQySLKXWt4aduaEpUIJcWs5MBB2LAaqQQ1rG9IMNk3+HCvlrFWtlxdYncE+Sq/jPp1/jKF7BGq9PMdVa81wyxc1Q+DKX1WzuyxigbuCAB4Y2Ct+wMivFzRB/nGaW2NwxfR5/sEsbzZ3wwdViZnUlIshrGUbxDuWKYNxGzFzPVGTk8HljaGX8U3OHQ7nxCFW6ri8NQ7/OFRVXnnoeAak8Rk6fBIoS5KUWVg001ESO/Bh2vyZO6Kl2etsDJPvtQcLkUY8ovWZt24OpNvZsjNCyua6aRZBlBmDr0R5Y9qoFr3pYgRHamIqB8AzkaPU2KlbmmOEubtzOY3elHsq6ifBktuM2CoN5h7MaCznyMtNxC+0gbs1H/xQhMzGLOTVitOYEquVXlRWbwTOWR5JY7F+xEB8E9cCawzvxxUvmWhLoliHtUhBTBo6YOLx7naelGNYofAPLjG7j0tGLzMd3YcrZUC2x5mjX2RJWKEZuIR8FVxnyeB69urZX09CZwrkWjCP5Yji59EAX1RdKkXzmAu43r1un2yhIghFwtXbSXinyo3bjwwXf4kryXzgVnlfreBmyAr/H2zussGjso0qvmZUzxg1jltLdZKTpWL9Nkuvw/vwMBq+fjV6t+KtP5QBVZ2szpsfzUPhAWzLkZnhmyGR8OLQlrgVdR7paa1WB4qQoBMMB7gvVW8FUWoDse5JGCkfVRobigjx2y5Yw78BDubOOsSD7AcS9zKsSmGipgfrE8qQoSDyJ7/49C4uuDoLX6f9qUAQKFF38CW8pM2LPnYo3Fv/KLt4YGb6fYj4rc193Clna3AaDpyFkloeLnu+rsojPfW0GFh/JgNj6JnxXLmBl72Ddqdu1GuGTp3k3R4w2y0TkrXvVkqFooCrkoW4qCbOisoKw7VsfZDHby7W3RcXAifQmzsTaYqiFgc6SbWGO3uPz8NWCVfjhVCRSs7KQkXgRxzw/wBiX7Wj19QHsnpmMz+atwA/+4UjMyOSOL8PESUEY/s08OKubeG/UG3PWvwcHiT92H4iCRIPSKk0PxHcf7EHLj9ZgmhYPUD2t0c2xH8yY5XgrW8fUHpN+mLf2HTgc2YffLtXuDBiyVJzcewjFE5bjIzVWMOWexZev9oFZhxF4xzfpCawuk+B2QgowrC/s/8VjeEuSiYQb7OuDbFE1A5dZXmqQ08O0Q7TMQcxkYkXTfVLV5PLjkpqG+9Pu9fNpoOkwmu9xiCJzeGafLgykj82YzN28KcHQE6vzoqFlJmci+4TMYEZu3nHsUyPCvbcKNh4UzisXbwr5zLTh9Z4reYI3uSk1JcTksOwY3anKrC6j4uTjtHH1Hrp6eSdNFFfmVFUm8f2W1tVzkmbVe6bm+VEm9/nx4HKhqu6r+taP5ntHUbFCRnmhm2mkWNNx7jTqUBRQjM9KcjV1oYXbT1NM7sMKOSgeUm5CKPltW0rT3T0psHp2eD1RpPnQzCp566AqI/1aOpZc+Pf/5DLFa8tIX/FuL+7e9clrWoWUiuP30XxT5TmcaJFPHBXrzMxfDWWCaTcL3vmIK+pqzVy8Nd4LL4/ZgVFD3kWw0oTig40rpo93xYtDh+OFEUPQ28yEZ6yFUBbxHQYPWInCDWGI/2wIzykZhkfjyawIEVtex4CVD7Eh7Dg+G9KISexkEdjiMAAr4YHw+BXorzkuw1GKxF3z0H1dTwTHrcVwjQksypHu+y56zbgG990bMaowBEHJzdDZvB2MymUwdhiLGROc0KFFObKCd2Hzb7fwnPWzMLZ6DYted6zX3AmyiC1w8LTG+d1TwBzYx0c1W+IXbP/PPngHAaMWzGZe1zS86vw8VB41lSDjwgHs9PwJW08qMMp9Kl6fNhtvvGBZcVwrSu8lBMeO+iPgxCHsOZsEcf9JcB83Bq5jR2PUQGs8+ziriBTx2PXKKKwb7Iu4r4bzmPWgfCdSII6dCEOiwgTPGTNPM6sYxn3HYtaU4egm1mDdlcbD95MP4RFljpdsO2Pwl2swxUxX5crAwTdHYuoFC5WsHl1bpcDD9Ev44+wo+GX+qPV8lLoXk613YWDYIdaedIXEypC6dwGsN/dC2KXVGFLpIajUaKNTSil7Zqt6DV69nADr6ZNoz0QLgulH5K/xFQsNhL4WKKPCihlLHuEFXIk6uFeeiBeRXybPEzcQ9WuBNnXKKM3nLRIP3ULhjfKqHSll+nk1ch1gnsyxpWTK93VCitt0bJHTI9bqE4rCV64V1zNT0T+ZyknUI5xgrymFXd4pLGuv5q2fOrdXsCWikDtJ/SCycMGsOVnY7R+rebpV5ZLXvk5w4DUtR6BxMILFyMmYE38c/tfrt16opwRpGSa1lq02MJSBM/sDMeC919CfR6IXygjB/n02eG9ynxqLI56MAq1sOE590bNL00uX0fhUJpGoPhKthvZjsDVP3ewCXdtJrOhfzyEBURe8/P5iWPv8iYt56ie5VC551X91Uf3T3HI4vprmyCPd2z8DUUdXvL/JDD6HI3i88uIxkWbghswS3RqtDhCkSWfw241JWD2th4ZXllTnAZICjuHGe4sxrUfNgMYTUaCKO0m4xBrO3yPV7IZSfseSTefrIRPS00gZ7iTFIqPGEr4HSPFdg03n/07ualiI0KrnZKyYcg2ehxPUjLBWZleqe8Lp+kTUYTBmjbPXI2vS044YPacvxJTg/+FwUkMu2ZAj7/w5lLr2a9h5zdVRrvrb9QdMPp6L4e11a23KC8MuT2N8/PZQMAevBk9AgcpRkBqLK7DAIEfLivmfyhvaeQBthtR9PujTTSFSryeyvw5w7FYhIeVD3fkjMKSXAYdARB3gsmw1Bvl64WB67TmhQhjH0BGZumDZd33g+81xpDfQUmsqisBv4faY7txYg6JyFF3ajW9z5mPDDE0vzKsG5eHSDm/kfLIaM9QkhnkCClSEFiZtocx02a6NMjtLGbJOe+G/rRbjo5FNIE3ZE6EFTJ5RKk4x2rRiPaYsA6c9fNFq42KM5NGDPjZyKcqUXri8HFK5fg1JZDoUH3w/EOe+OYjE6mmMylIRfiQKGDYYfZ4XwjiGSXOYDnkH37tcxje/xaH+133lImR3JPq4j0THRmr4lHsG33hK8fHGSbDW+bZYGXLPbIdnmTs2TrVVr2zpSSDNoMCNU8mu/ziaPW4szfQ4Q5n6zN/6x6EgaWYAbZzQj/qPe4PGjZxPHuduU4OOWcoiaVs/5ZxWqN/6baNI3pMBSikz4GtyX3v67+esyKawX7xoX9idhr0PgceHtdeAte/T2oCMJv2sFMVR9MvyT2lPdAGPObIyKo7eQ8uX/0rRxZoreo15oAICDYcy89Z5XBENxEi7py8rz1OPcl6rfxRELw2HnVFT9BNluBdxDje7uGCIGY9Z58r3b528hS5uA2GmZU6toEAFBAQE6sgTmgcqICAg0PQRFKiAgIBAHREUqICAgEAdERSogICAQB0RFKiAgIBAHREUqICAgECdAP4fCaUGDCTA57gAAAAASUVORK5CYII=;" vertex="1" parent="WIyWlLk6GJQsqaUBKTNV-1">
          <mxGeometry x="324" y="238" width="266" height="39.58" as="geometry" />
        </mxCell>
        <mxCell id="a27hsYVGrG07yMlYosN4-26" value="&lt;span style=&quot;color: rgb(0, 0, 0); font-family: Helvetica; font-size: 12px; font-style: normal; font-variant-ligatures: normal; font-variant-caps: normal; font-weight: 400; letter-spacing: normal; orphans: 2; text-align: center; text-indent: 0px; text-transform: none; widows: 2; word-spacing: 0px; -webkit-text-stroke-width: 0px; background-color: rgb(255, 255, 255); text-decoration-thickness: initial; text-decoration-style: initial; text-decoration-color: initial; float: none; display: inline !important;&quot;&gt;(equation 2)&lt;/span&gt;" style="text;whiteSpace=wrap;html=1;" vertex="1" parent="WIyWlLk6GJQsqaUBKTNV-1">
          <mxGeometry x="324" y="223" width="70" height="20" as="geometry" />
        </mxCell>
        <mxCell id="a27hsYVGrG07yMlYosN4-75" style="edgeStyle=orthogonalEdgeStyle;rounded=0;orthogonalLoop=1;jettySize=auto;html=1;exitX=0.5;exitY=1;exitDx=0;exitDy=0;entryX=1;entryY=0.5;entryDx=0;entryDy=0;" edge="1" parent="WIyWlLk6GJQsqaUBKTNV-1" source="a27hsYVGrG07yMlYosN4-27" target="a27hsYVGrG07yMlYosN4-72">
          <mxGeometry relative="1" as="geometry" />
        </mxCell>
        <mxCell id="a27hsYVGrG07yMlYosN4-27" value="&lt;span style=&quot;font-size: 14px;&quot;&gt;&lt;b&gt;do_firesales&lt;/b&gt;&lt;/span&gt;" style="rounded=1;whiteSpace=wrap;html=1;fontSize=12;glass=0;strokeWidth=1;shadow=0;" vertex="1" parent="WIyWlLk6GJQsqaUBKTNV-1">
          <mxGeometry x="660" y="320" width="120" height="20" as="geometry" />
        </mxCell>
        <mxCell id="a27hsYVGrG07yMlYosN4-28" value="" style="shape=image;verticalLabelPosition=bottom;labelBackgroundColor=default;verticalAlign=top;aspect=fixed;imageAspect=0;image=data:image/png,iVBORw0KGgoAAAANSUhEUgAAAoMAAABiCAYAAAAr6dmAAAAAAXNSR0IArs4c6QAAAARnQU1BAACxjwv8YQUAAAAJcEhZcwAADsMAAA7DAcdvqGQAACrRSURBVHhe7d0JXFRl9wfwH6llNmr4poWJqYihorihQmSir0uvC2R/xRVRW9Ryy7VyyzXFFmjBesMSUzFDM3sLFcSQxBQVVFBQUEAhQUFkRHCYOf87cFHAYZiBYdbz/XxuDncI5j7cc++5z33ueaxIAMYYY4wxZpEeE/9ljDHGGGMWiJNBxhhjjDELxskgY4wxxpgF42SQMcYYY8yCcTLIGGOMMWbBOBlkjDHGGLNgnAwyxhhjjFkwTgYZY4wxxiwYJ4OMMcYYYxaMk0HGGGOMMQvGySBjjDHGmAXjZJAxxhhjzIJxMsgYY4wxZsE4GWSMMcYYs2CcDDLGGGOMWTBOBhljjDHGLBgng4wxxhhjFoyTQcYYY4wxC8bJIGOMMcaYBeNkkDHGGGPMgnEyyMyEHNm/zUZjKytYGdHS2HMLkmQkfsa6QdlHsHJAW3SYFoI0hbiyJgpisdmzIxoP/gJxBXX7mTVXjOzIdRjQuAem7bmK2myecW5fXbLcmNAl844vZlIoD/E/rMb68GvCkbGmCAVx38CzfVsM9j+NAnGtFQnE14yZMEJh/H/h1fdt/CoVV5WwRk/vGRjbxVr8urYKkX05Gf/cy0faXwdwJLnCL1NhKHxjgrGgZ1Pxa91TpGzD604f4u6K3fh5fh80sRLf0BJl7sc7r7yDmOGbse+T/8Cmhj9Ht4qQsu0NOM3Mx4qILZjfqxlq+rGMc/vqkuXGhC6Zd3wxk6FMBL9fjDcjnkSvG1dhvfgLLBvYCvXFtzUnQ+Zvi/HKuFMYvns7PhnaqvSYqkwGDUGRFUEr3NuQ/dSfKVUurmQqyCjrz7XkLulOU0OuEDeVOncpOXgG2SvPguUWyaDP6GResfg9uqYgWXYiHQ8PoUDf+TS6p02F361cbOaG0i2F+O2M6RXHBGMmT3Gbzge+Qx6LQygxv5hkWcdp85QJtDwsXcgQdMNgyaA8OYg8JbY0yPc45fFBQY1CSg6aSBKJB/mevCUcZplaslTaP9el0snHmpyXHKIsfTSeIp9So38mXx9XkpT9fslUCk4tEr+BMT3jmGDMdJUkgnNp3NowypA9DFhF/jkKnjedVugoITRYMshYXVFkHaIlztaVTn4uNHd/qs6uoqpXSFkxQTS3v63wu63J1e8M6fTUJxwg4oOX0OiRo2mYsztN33mB7olvaUN5QNm1eDwNGz2K+tv3o+lBcZRvBFccpQe6cTRywjBydplDOxPzxXe0Y6zbp28WERO6ZObxxUyI7Bodj7iger9R914FxZQf/xMtHu1Bo0f3J3vnWRR0/naFziVOBpkZKqa8k5/RIEn5E5+w2M+g4OS74vfog6K0O9+nO8FhJUXm6eomfzHlRK4lj8V/CFeK+RTj259gPZ9Cb2l52+9ePAVNfZc2n1MeFMSfI5lIQcmF4jcYiCKLIpf70OLQNJLJYsjXDmQ9J5RuiW9rzFi3zyDMPSZ0yczji1kYBd1L/JGmTvmOzuUL+7B4TJV4BlFyufDT79PElIeEXe9jjMcYDO89ADOCL6JQfItVRNLz2PXeeHhMHI7ernMRnFTdoGz2UD006ekD33WjIRHXlLgUgBkf/ITEQuV5UB+sUL95H7zlFwBf2/34PuxayRm41mQXsGvdP/CePRA2j11D3KFEoOHjaFBfmxHpBUjasQl7XpqBqY5NhU96HwV3igDpTeTm1/w5tdojYfP2YF36CMwebIvHUuJwKFnYvCcaaDlQ2li3z1DMPCZ0yazjS1dkyI3bgdXb44UtY6oVI/twAD45XJsnf3VA2J93LA7HS0vGwVFSDygqwB3hjyZNzUV+ueDTYzIoR27UV/jgzCvwC9mCj8YQNs/8Dn/myMX32QOUjSjfT3BmyAaE/PARxmT5YebXfyFHfJtpwOppOE1fg6/H2YsrSuXuWo5ZX57AHT2egaya9Ma7n72FnG1huKSLkhrSXEj7eeJlm/q4f+4QAg/mw+GNoejVRItwVlzHyTNdsei1F9FA+bU8A/ERFwGb7nBs+2TJtxiGAtJbcvSb6AIbKynOhe7BQbjhjeFOaCJ+h0aMdvsMyJxjQpfMOr50QTiXR/vhneBmeMOrEx4X17LK6qO5+3gMubQRc/dcMVhCqEiPw5neU/GafaOSr+Wp8YhIF3bFQY5oK+SGD4g9hCpkUeRGL+pZ+baCFouk51IKyxa71u+fo4Chsyjk+n0i+QUKHGxDsHmfwo3yNoG2dNlWCrofv5mGTgmh6wqhqRIDabDwvs2icMor/WVMYwqSpYbQdHtJpfZ2p+WRWcK7eqS4STE/7qTobE1GaMkpP3Y3+S6bQz7eE2l0f/sqYuU2xfgOFbanP62JzhXX1YwiLZi8lG3jFUxpem0YNe6eIF8Xa4LjOoq+W7sPZZTbZxCmGhPqKKgo1p9cK2xPNYtdf/Kas5IC9sZQxr2qzkFmHl81IpyfkoNpqufnWjyNLqOs8BU0zC+WtLzRbh5kKRQyw5vWHsvWMr5uUPii0ge/JD2H0URvb/IuWyYOE/MNG3LzO02aDzy4T2nBU4T/rw15BV+p8Hk0GjOouBVKc22Uv9iaXNYeU/P0r5zu5Vyh2FA/8i452LxNIRlioOdEku+6cMpSlAWuhByW/Wl2CU7t20o5XuUrWheeIfyh8inWb5jwnhsti7xZ+r8xLSkPRMvJufyJQLk4LKT914117I5wws4V9o2YkxQVOJ1slJ/XI4hSKu9Ld4/RGkdh36l1siSnvPD3hd9jTW4B54zkgK2gu9HryFE4TjiuOUa1G9VmjNtnSKYYExpS3KLI5a4l2yPxCKTE+6riQjj2ZsdTmN8Ushf2L7uRGyg8Q8V2m3V81dC9OArw8NKiskUhZZ38lnyEc5ydb4weH1YyLoobf9A8tyUUeqNmLVA+r3Be/Csl59e0JbOFBLOn8HM8KCC+4lFVo2SwrHdKmZSsib4trlWnmG6FLyWHNmspurDyLqO7qy1jpNO20mHPiEVTZNOxtcMelrUoWSRkPz2EUss9qm98FCSNXEG2Kk8iD08wpU9lKk/w/uQbmSW+r427FB/gIbSJi3DRofVjGnWk7KA1jPxi84WmyKDwdV9RZE5NTqXGuH0GZrIxUZ1/KHSOk7AtGiReilQKmeJQsu3W4p2Yh8w9vmriLiUGTiDHxWHV14iU5VNG4jH62XcqOYt3zCw5GdSq7VR4mFfUch8qPkcBbkJOYbuCIqUVP4gGgyCKceP8SRxTvrTug14dKgw/rkI9NOvljpFtm6FJ5UG3BQkI3RoFOA7GwK6mUYFec7psK0LB2TBsjZbBcWx/dG2kzeBlE0A3cHzHASTpY+C61TPoO/sjrBvZRlyhJMWlzUuwKCjBiB9iuofU+FikwwHunVsKe0p5OYg5cBCZ+DemDXXA45SBo9sT8Ozz5UbWUR6SDgZj+8EkSNU1s/D/ngo9LeQCTujWXquReXXnzlkc2HYKGDwKQ7sIZ5PMaGw/1RjPNy3XCqa8fYZmsjFRjbtJ+GtPnPBCVcxUYmUD5yEuJS9zv9+D8KtFJa9LaRBfkEOaFIbt28OQJFUz9t1M9j/KicYW30K8490Xzao8HUlxapM7GvcdiyVfH0SW7SjMmlnaxpatEew9J+HfO/6LnxK0fRi0fF7hipc61zxvorQzCI3KhWRgV7SvlFNokAzexoW/Twp/YkE/J3SwVhteDzVqiuYdWqDitytw5/h+fHW+AVzffBU9GsmRffgLbDqaLb5v6nTZVrdwfG8IzuMVvDm8CxpRJg6v/xpHc83kgRv5NUQt34vzetoeK0kPvLlxBbwqzMB1CbvmfIgvY3JKLl2NjiJN2AdOVHEAkENWVAzY9YZTuwbIjfoRQa3GYnjbJ8T3CUWn/4sxQ8Zh4pBp2Bh1S1yvQn4azp9IB1yd4fis9pMb1YliGYqEjMRukBPaWWUj6pvf0GrOULR9cMQy8e0zAiYZE9UoGxyv2UnTCvUblD3+cB03cmTia6Xq4ktQdAabx7yGiRNfg8fGv3BHXP0Is9j/CnDply341sEDgx2eEtepIkHPBRHIj/kNWz9fgRler6BT83JtZsGsmvWB19tZ8Nv2N3K0Cq4a5hWPUCD/ygWcgA1cX+6EZysl9NUng0VXcfpAovBCgu4DuqK1ph1UchnIriWaiV+W0uRqy4Tpsq006RlhWrBCwxfHYuN3c1DhWUrpPny0KBDHjTDJphsJOHoss4oDQAu8MnMJpjf7EQvGvg6fnS9g7UI3WD/Y56zweMtOGOBsI7yOxW9nrgmnN1WEpOrSaRwQfk2bfp3wghYPTNapZi9h5tdz0OzbBRjrOR0728/FQrfmwlaVMfHtMwqmFxPqFSHtVBSilC81OmkWIuvatdKX1k5wsG1Y+rpEdfElePw5OA7oIRztpbj4WyyuqGwuM9n/7ichNPBv9BvlUu6CjGmnKbr064e73+7HsWwtni1+kFdYw21od83zikdIcel0jJB/2aFfJ5tHkr9q/6yK1LM4FKfMSV/EIMfnVXS7F+Nm1B+PHjhy/sGNxpJKtcE0uNoyYTptq2p7Rpj2GqL1a4vwxbyKty2kEaswddUfyCg2pr4Q4SruQgwOSKs6AAgn8g5jEXAiFhE//4J9X09AZ2UNqXKsbP6DT09cR2H0MrSWPFEukSrvPjISYhEHJ3j0agvjiUQJOoz9HCeSIvDzvhB8PakrJJU2wLS3z1iYUkxU5zaSTp0X/tXwYrzgAg4FK2++SeDw1gi4Ni9/BK4+vmDVCkM//RP5hdFY01qCJ1X+PnPY/wj3LxzFrmOOGNqzZRVxxqpnhaec+mFcw98REpWhcc/7w7xCg6EP6lAWEqIuCjml6iFs1aQWcty+koCTypcSZ/Tp+HTJ2opu42xEGho0qvSjmg/C0okOlT64BldbJkvHbVVtzwirEauWGLxsI9a624orlIQr+89XYvWvV4V03ViUXcX1godz65ofAFCA5Nh0OHd6TnWw003EH4srua3Wr0vFfnzTYO7bpwcmExPVeDBesKqL8XLoNuICffFRdC4k7u/jm/mvqBkHpw5BlnwWZ5w7opWqHdAs9r8iXD11FMfa9EY3Owut0akrjVvDsXch9kVeQK64Sj05biXF6ma8YPZFHItMh7WnK7qo6jUXHySpwi2KXCZOcO4WQPEqHs1SXA+hN+bVYKoos8NtpZWSKXHKlR7Sqyqm5rL2psCLNZsDV+fKnvqqVS1OBcmu76f33thOl0tKbJROS+Rjby2WdSqkjNCl5IzuNCU4ie6X/k+6o7hBJ3/4hr7/40869rs/zZmyinbF3yZF/hU6/mckHTt+kmJOHqTAxW/S28t3U7xyqiStGHj7zIoJxEQ1iuMDyE35mSXT1R9XZP/Qyc1vkD1syHl6IJ3MqkU5HVkq7X9vPgVdVpbpMNf97zrtf9uhhjUSxWn4hL+LeT1NfJ9yEw/T1rVLafHqdbRx9WKauzyQDqfkCXuBOrcpeo0bobsfxWp0uCuXV6gqL1alfEoMelvYx8WydLI0Cl0s/B3UTD+pPhksOyEJH8R2WSRJxdUllI+Oxx8kP29X8gi6VE0D6Jqc7uXeoIyMDN0s2fm130mNtq2MlEGTQaV8uhjoTdbKICu3SEZ+RbFaJyW6p0gJIg/l5/EJoYya7jB3T5H/1PUU9qCGmpA8ZYTR2pEOJUVMJwxzJefRSykw+nodHKQVdDfmK3ov+HLpzy6bD3PUO7Tog58puSR5k1Ne5EpyKGn7R+teVcug22eOjDsm1CuklKAJpZ95cCAlPnL9JNZ1Dd9Oa7ycydl7NW0NT6TcWpXRyaNY/3m0Iixd3L/MdP8TY7fNmmihlbVlhsmg7Dod859KLj7fUHTGXfF8LlxMRW8gFztv2hybK65Tpazos4bnvgd5hbY1KoULkfANNNLOlnoOG03DnN1o9NKtwuet+i+oNhksOyGVPzA8utTgIF5b8iQK8myj4rPUcNHBhOlG21bGyuDJoEBZGX66spZd+b+RLbmvPUo5tTlH1Fox3QqdL5yUbWhw4AXhNGaKcil63RraLxZZVWSEkI+y18l+DoWk3itZpzx53j2/laY4d6eRa8Mow6Tr25kJo42J6pTVF5SQ/eiFtNHXl3wfWdbTsrdH0cg5/vRr9OVaJoIWRIhdb6Fdu9doBhEzSwZl6RS2/FWy8fovnat8gSTOrCbxDKLkKg/axZS1fxZJ0J98Y6rvcX+YV9R9jUo1yWDZCUn5QSZQUEqljFKWR6nh68ldRfFCy8NtpTVjSAaVV/LX99Nch8pTc7nQvNDraq7u6lrZrYFBwgHDROfoEa5oNy/cK/ZqlhXwlZCT78ka9C4w/THWmKiGNJKW2So/Z09aFJ4trlTlPuXEBpbcyrUbuZL2Jt423m0yEqUJiR15h6SJa7RhTsngXbocNIWsJeMpMFFVp04ahXjbCds6hYLTqh4UIIvxJTuNkrtyeYX1fAq9Vbe981bK/wh/KBVycHT5cPRbHQ24BSD+yHR0qjzmsOg41i28iTf9h6O5uMoycVtVUCzFzex8lK/a9Qj5WQS8/CPa/LIer7ZQN9S7Hp60fgZPN1T5eIAOyJF7dD2G9FtW+vBPGfs5CAn7GKNaly83oSf3Y+HvPgBzrkxH+MU1GKDNBPnGggqRdwdo0rQhrHAHpzb9H3otzMGi8FBsGPCM+E3mTA5p+gUkZpUvZFwzDVq8iC62Ej0+PGaEMVENecJm9O88A1GS6QhJ+gKjbNTV85MhY88cOL4egFyHpQj/ayUGNFP7uInhkRTp5xKRpfagqokn0OLFjrCt/GS0GsWnNsGh12a8FBKBraPKP2SkCWUR6hFC7B+BkAzi4oKelSqMaMrw8UQZezDN8XWETg7F+U+HPPrAkeIitrw6ANMOvgjfmP1Y0FP1pBOat2e5vMIjCCl7J6FtXR4ESlJCVdSNgRMpUrbTLFW3se6nUMTRNBO9vVUD3FblFFN26ELhyqd8r0JtljbkGZRUt+2juEUnfT0qTc1lR+OCUwzSa1A29VCtxgsaE/H2SbUD+82JDoeyqL/tVEeMLCbUq2684KMUacHkZdTbVJE8OYg8Kz/cU6NF++NpaU+WgXsGDR5P+RTrN0z4/9X06OWF06KS+YPVDwfTuD1rMF5QnrKXPg3NEL/STpVdDmXTlgBOGPVSB6isOf50X8z8T9tKJR3kyDn6K07Vb1xd3RqzwW1VXj08M2QjLpcOQah6kcXA1+5tCMmB6vcfLFewd5J93baPVTP0encVfB9MzSWBw9zPsen1NgYo5VM29ZDqKvGm6EHxbEuaAeQxe0zae0XF/qz9kr93Etrp+wBhVDFRnYf1BZ0GddWosLNV/QZizb9knEjPEY7Exu2xdpOwN1/1/qHdoofjaV0wdDzJryJ69zHApj/6O6kqG/ewuDhsOqFDq9r3nj/MKzStL3gXFw8moGXHf4lfa6eKJpEjNykOkcqXEhf066r6h1tZt4PDc5XKaMoS8cvvzTCip+p6OCS9iP9t2Y3jmbXp7lWg8HYWMjMzdbPclNailpaxt5UWSIq04z9j3dge6OEfZ/QHSJ1q2A4vv9pHOJ0I12Fen2H36lfRsvK82npRNvWQIwY5taz+oK2cn/d/27DjeIae6sHJIU37GyHrJqBDD3/EVbuTlBXP1vxEXZ6+Y4CkqTgesh5jO/wH/nF3xbUWymhiohpF6Th3JFl48SKG9GijQWFnwv2s67hc8tpWuEBpqvpEq/fYMk71W7bDS0LcF8nkJV1rlqgsMbP2cIVjY1UHMSER++sIlFUubbxeQTeV36NEkMvuC61piy4vWIvrVCmXV2haX7AgAb+ft4eLbdkUi5VUsz9X8YnzEP/XsdKiiFpdzRcj6/BunHF9BfYNVB00CnHpp+UYPm0D9l7IF9fVgCIZu6f0QcuWLXWzvPwJou8oxB+uLSNvKw3I4/zRw8oKVvavY3XAf7Fp1xncuV9sQYFfjOxIf8xauAtS56XY+dkkOGoxpkanCi4h+vdE4Rzlij4OjUvX5Ubhv78kC2nVoxSXQjBruDcW7L2IAnFdnZDHwb9HY1hZdcTI1V8icNMOXLpzH9VPUFFWPFvTE3V5+oqBu4jzf1XYtsawH7kUAYGB2HXpHu6b1OwbumZEMVGNBzM0VFnsv7I7OHfod7GQ73B4D3xBZW+n3mLL2D3xFKytryIm/ZZldRA8UJaY2aKfqwOaq9pZymazkXhiiY+LmgLmcuRkpOEqmkLypLor43J5hYZTK6btD8bVIa6wreJ3V7c/q/40iixc+vuq8EKbq3lCcWYYPv20Hsb8u5XqWwmKq4jaFSWkzoMxpFctqrHrsMu4ZLmwAi/XdJC+sbeVBuo5zcZpZTtcPoCA2YMqzSdt7uSQxm/HojfWI8LmTQR+vwCDbbRLWXRJfjUOoeelsB7lgs5PKfcMBe6cOYlbz/1LRbAW4nJUKA6iJyYN6Yo6neG7nhNmn84X4iUJhwPmYoCmO4kiA3GHzmtxoi5HbzHwFJxm/yFsWz4uHw7A7AHaDpI3N8YVE+qVDasQaHQxLmxb3Has+ihUeN0dUwLmYUTLBqVvVaDH2DJ2TZ9DuzYSFGTnWWhSXJaY9ahiOj4ZMg/vxLfREgxasQQ+XdXtLcXIv50jHA9bo1VzNTElz0B8xEXhhZBXuHVEyyoSvFIEWco+rFyjwNDez1YxjKP6/Vll6vJgjI8W3e7FmX8hYMkqnH7NE32rSKwo9SR+PZippqvV9HBbmTLl3+IwfGctww+ZL2N5wHJ4d25aRTDpB92TQrk3NWv1jBiwOYiJBF7qpCJ86Rr+/vU4YO2Glx21TLT0pDbjBTkGDMH4YkK9smEVmlyMy5AbtxWzRi/Gr1InePl+irWvt4eqVNAUYktv6j0Px0EvIjP2Kv6p6Q00U/YgMUtDYvodIULKE+Il4wA2LvwB8FmPL9/tjSZqg0WKa4kpwvGwGzr8q+revofjBavLK4SLm5T/YfUbCxH6nxHo16KKY6wG+/OjoVOcg/g//od9ynmR0RU97Ku+V02FubiWFIMDW96H58uvYvb+bpg+8sWKwXXnOPynTsbkyRMwQgjCfbBBu/SdWOgjrJuyHgcya/2svOFwW5k0kp5F4Lx3sCriGfh8vQnvD2xVw7IHulPfvjfGO0ggL5IJYa6c9zQc4W2GlLtoyMFx/3eFfWQyJo0Yi5n70iFpdxm7Fk4T1r2FlQeuVTpYGRKh4PJZhGszXpBjwKCMMSaqpkBh6hHs3nZKeG2H/l1sVZ80i4ULrKRohGyajiFu0/Dz02PxeejP+G5+f9hUGANpSrGlT03QvocTJCcTcOW2NjeKhURJmoqE+H9KvipITkaq1PRGX5YlZjazfND5+B4cfVDepjQRWzVxJVImBSMsYBw6NKzmsklxE1djs+DYr4q5rJWKbyHuwMHS8YJV5BWl+UQ09vjPwQinEVgd0UJFj5+W+zOVuEmRy9yU62uxSMhhcRjdqvIZ/WwKX6SsbD+aAhPLZiAwRebdVqWPveuhQKihi04r5xSdqyzsbGyzKxRTfuJv5Dv3XVq0Zj2t9f+dku+p+nBlhZwNMEuJOD0V7HwpRu2fr5hy/lxFLi5zaGeitvPbGioGykphaDZDgFkx2pioqDgxkIZqVWZFQnb9R9Pbiz+nH0NPU8a96qLFgLFlpErLXWlSKFlGGSFvC21uT/1HTyRvb+9Hl9H9a1GqRt/KCj/bk09IKinyL9B+f+G47LuR1q7+gJauDaTfYm9ofK4sLeDdn9ZE54prytyiY2sGVyrlpMXiuI6i71YVsJrtz2IyqAeFJ8nXSUJos5aiC430KGMsDNhWFpEMPqihJiH76SGUapLTUuUJScsg4UDgJhxYbovr9ETjZLAWDBYDFpoMmkVM6IoBY8tYKVIoeJwDufieIMuaULVsNihdXJTK6Mb+OWStNnGrC5rtz5rcuNEJyriAqDgprD16osMTxjsCxRhwW9WlQqTtXYXxC/cBg1ZjxwYPtDbGchnVoSwkRF0ErPugVwdl8Q/zwjGgT2YSE7pi5rFVI1a2cB8/BBe3huFsgZBXWIqy8YK2nWD/fPVPBKhF6YjYEY5e74xAz0Z6jC8N92c9JYPlHs3uaQd11XWYJm0lR86BBWimLAej7eL6CU4ZQzDXawW3Va/BsdpH5nVJaNvoL+Az2Q+XHBZi5w8z0KuJcZbLqFZuMk5FpqspO2DK+4gmMXADB+Z2U/351S7N4LrppGWXCqnAjGJCV6qNLUtUHy3+PRXr2kXgl+PZJfcmLcGD+oIPqjvUFEF2KQI7z3liyZiOqh9aqisa7s96SgbLHs12gFunFkb8ZJox0KSt6qHZkE3IKV8eR9Pl2Hz9XpVUxepZ9BWuNKsdcKszhMKkYLw3eRUiGkzE5t0fYljLWl7paUUOafplpEt1UamLcDc+Gnty1ZUdMOV9RJMYeBZDPo9V/fnVLjk4tsAZjcSfYtnMKSZ0RZPYslANO8NrQT9E+v+GSzJLSAd12IlF2Ti6ZTcaLZqEl/U6D7bm+7N+ksGyWnw2vdDDXuymlF3Crlmf4GiNiz2bKW6rOqAslxGG9dPfLy2XsXs9pjnquVxGwWlsHu+Hkzr5Gxbh+qUEpFcoO1CAlF3Lse7orZKvTBrHgB6YW0zoipnHVq3Ug7XbdHzSOwwf70mB+c/KoqtOLDnu/L0VG7J8sGasvX57BbXYn/WTDN5OxdmTmUDvjmhbUi9MOSfvNnz5VDd05vphFXFb6RxJzyHog8Wl5TL8PsbCAfoul1GA5JAA+DsOgZuNLg4FebhyNkn41wGObUtnKaGcaHz7JdC3sxnUROMYqHPmFxO6YuaxVVtWz6Dv7CVw+/Mb7EwqqalmvsrGC5a/KK0Byo7Ax/4yLFrriXYqZxurS5rvz/o5stZ/Ek2eFRqz6VNoaKW8Ij0E3+8aYe38V9RM22KhDNpWZfMmCnFQUufODBSn4+CaOZj2w024L9+Add5dINHrPidcFcZ8ixkzz2Lc6L5ooZPfXR+NmigDW4KnGtYr3UbfXWi4dibc9XELQi5DUclOch8yeR3cLjJoDMghK1L2eRSXzMVqlswyJnTFwLFlAqwkXeC9bBCSP/4S4fqaN98QHmsJl1m++HHPu+hXwxnKlHU7t66PQMcP38EAg8zio8X+THpRSBnhG2ikvTMNmzCS3Md9Rn9mFIrvsYr031bFsX7UXZkJqlwk1N0vlorF7zUpitt0bvNEslaWy/D5kRJV1uurQ4o8St6/gtyVNdF0Wk5AQbKMMFo7sjv1HDaahrn7kO+f1+q2FFBxLPl1l6jYP8Slux/F6mwn0XcMSCnWb6jq7SpZhpJfrFT8XhNntjGhKwaILROlrLn3++HLVCR+zSqTUXZMGEUbNNfRfH+2Uv5HOOAxZmaKkPHbMgwc4Ytr7htxMOQ9uOjtyUA5pFeOYpffOsz1OwQprOHqdxgRs7vhcfE7GNM/jgnGmGo8AIeZIeVtqAD4jPPFRfs52PrDLP2c9IqzkXB4F/znjUK3du54o+Skp+SOSf+255MeMyCOCcZY1bhnkJkZgizlJ7w99A18nzkQvhFbML9XMx0+JVmEm0kXkJpfDFneDWRk38C1y4lIiDuBsN1HkCx+V3kSzyDEhUxCO770YgbBMcEYU4+TQWZWKPsIPvLyxkcR6eIaQ7PDuOBD2O7VVr9lOxgTcUwwxqrD12XMfBQm4MdF7xnRSU9gPRzj3W35pMcMg2OCMaYB7hlkZoJwP2EH3ttwEPniGsN7DI16vYV177rAms98TO84JhhjmuFkkDHGGGPMgvFtYsYYY4wxC8bJIGOMMcaYBeNkkDHGGGPMgnEyyBhjjDFmwTgZZIwxxhizYJwMMsYYY4xZME4GGWOMMcYsGCeDjKlFKIj7Bp7t22Kw/2kUiGsZYzpy/yw2D2mLDovDkSuuYozpFyeDjKlVjLz0RCTcaA3HDi3wpLiWMaYjDZ6D8+RV+GxaLzwtrmKM6RfPQMIYY0xQhOy4UATv2ImtX+/CKam4WhXr+Qi9vAFDmtUTV1RSfAOndvlhxWfH0ahdA9z8lze+8B2LzpIqvp8xZlDcM8gYY2btDuI2T0D7xq/BP+6OuK6S4ms4vG4CXF7fgpTnX8OGsERkyxRQ9hWoXHI2qUkEryF89TRMDHsRG44cwk+7tuA9+OL/1hxBTrmuB5KexbZ5b2H2dE+8NCMYSYXcL8GYoXAyyNgj5JAm7MaSMZ4YM8YdHXrPxrb4PPCpipkkykP62UTc6OiADi1UDHQoTsNvC70wPXEAth39CZ/N9sLAPh3wTH0r8Ru0QDmI+fxdeO5sj7UfeZX2BFq1gFP/Hrj41c848k+x+H3ZiPL9Frk+vlg/oRvSNwfjcMq90vcYY3rHySBjFRAKk4IxZ9MdTNwSgp92bMJbOV9g5tJfcUUhfgtjpsTKFsO/jkH+ifUYatNAXFmmAMk7V+Kt+NHY8cXbcLF5QlxfE4SCs9vxwUdxGLjkLYxo3VBcb4X6DR4HpOdxIfVu6SpFLjIbj8TorsU4fSgc6YNeRT97HpHLmKFwMshYebIL2LE4HC8tGQdHZa9GUQHu3BfOY6m5yOeuQWZuCuIQvPESvJeMR88mtRzPJ8RO8IpPcajBq/Aeao+HaSehWCYEETKRlCHepq7XAWMWDMZz2dHY8WUmxk0bjI4NatATyRjTCU4GGStHkR6HM72n4jX7RiVfy1PjEZEO2AxyRFse+85MBeUh4adlGDP8/zDGvRt6z9iOeKlcfPMh+aWTCMkbiGF9mqN2qRih4NQ+fLbvKqy9/gO3Cj2QBbh++ZLwrwTWTz1euqqEDJlRv2MXhmO8eyvci9uBL45mi+8xxvSJk0HGynms3Th88b4brEvOjDJknDuBKLRBvx7t0LjkOxgzdlIk/bgSm3L/D1v2/4wdmyYiZ/NSLN2bgoojHYqRlZyAM+5d0f6p2vbK3cLxvSE4D3t4DOqK5uV/nCITCZHJwgsbtHtOUrquRDZOH4xAwzdHol+zNOz3P4EWLzQR32OM6RMng4xVKQ+XTp8V/nVC/y4tatlzwpg+EGRJP2Hxni5YMrUrJFaEogIp7uMmUnMLhHfryN0LOLLzlPBCinNb3ofP5MmY/GBZgK+PZQq5YHc4ti0/LrAF+oyfBMeT27Fq1pe4NnkhXm9dmzGLjLGa4mSQsarI/0HSsRTAths6v8CD25kpuI/0k1fQe9FI2JeMwbuH1PhYpONFDHJ8HhVHOtRHC7tO6B5xFpfv1i5NLBtOAbflCNq3HVu3bhWX7/HFlK7IkALWHq5wbFz+lFMfzft9gIOHA7Ep4DPM7/e8sIYxZgicDDJWBUo7g9CoXEgGdkX7RtwvyEzBE2g3YTXed3mmtCebsnDuSJzwoit62DdVrqmgnr0zXm8ajv/9nV2LXkMF7v6TBuWNYFv3znihQsaZg5gDB5GJ7pjs2avi7WPGmNHgZJAxlRTIv3IBJ2AD15c74Vk+iTFTlJ+C05FXAbfe6NKyclkZQSMnjF1kj6CPd+DUnUcfMNGMkAzezhESPlsh4bRB6aNXpSjnFPZvOwXJyOl445VneagFY0aKk0HGVJLi0ukY4QRnh36dbDhQmEmSX0uCcrjeoz12ZRrBbtwyfGm3A+PnbEFMdpG4XhuP4amnmwmXTY+j6VNPlEv4CnDplyB8l+mKd+Z4olNDTgUZM1Z8jmNMFcpCQtRFwLoPenUo/wQkY6aiCGmnohAFewzs9kKFHrsK6rfFa75B+PjZPXB38cLib37F0bh0SDW+b/wYGrd3Qn+JHEUyuXi7mVCccRgBvsfgvHYDFrtX9QCWHNKk44i6cqfuHm5hjFWLk0HGVKDsizgWmQ5rT1d0seYCg8wU5ePKeeGCBt3wsqP6p+GtJA4Y9fEvSAnxQfML32OeW2s0fswKVlZVLM0W4EDOw9vKVrauGD/pX4g8nohcIasj6TkEfbgecWO+xfZFL4mlmlS48xc2eozB6ogMTgYZMyArUs46zphFkyJp2wIM947H2MhfsMqlAAeWemPono4IDt0Er3ZV9qkwZryKYrCpjzsW5r2P6Ivvo+8TdXublm7+jW+XfoRdOU+CUhToM+9DzPfqieZVznFMKDj+Mfq4nMG8xCBM7VA2fR1jTN84GWQMRcg87Ifpb32J6w598VxWJhoNeRPvzfRC31rN1cqY4dCVbXitnTci54Ti8udD0Excb3jZOLppOb47l420vw7gCHph9Eut8eRjXTB541wMaM4FZhjTN04GGWPM7BQj67cFcBhxAJ4hBxA4qrXxPcmruIgtrw7A0m4/4uKGAeC5RxgzHB4zyBhjpq4wAdum9IBVx49w9I4cxZlh+HTVT3hmykosHWFrlCVd6EYCjh6TYEif9jzVI2MGxskgY4yZuvpN8Lx9O9hd248NMz3g6hGEBtND8Oe3Y9CuZCaSKsjPY/PLzR59QKS6pdIDJNojFFw+i3Bp9Q+3MMbqHt8mZowxpmcFSNg8Hp039BYfbrmHlD3bcLa7Dzzb8jhdxvSNewYZY4zp2W2kxCYC/RzwwhMKSM/vxJo/nkbXVo+L7zPG9Il7BhljjOmZHLkxgXjvgz/R3LkpshXuWPjhKHSScE1PxgyBk0HGGGOMMQvGt4kZY4wxxiwW8P+vST8SSBrr6wAAAABJRU5ErkJggg==;" vertex="1" parent="WIyWlLk6GJQsqaUBKTNV-1">
          <mxGeometry x="500" y="462" width="314.95" height="48" as="geometry" />
        </mxCell>
        <mxCell id="a27hsYVGrG07yMlYosN4-31" value="&lt;span style=&quot;color: rgb(0, 0, 0); font-family: Helvetica; font-size: 12px; font-style: normal; font-variant-ligatures: normal; font-variant-caps: normal; font-weight: 400; letter-spacing: normal; orphans: 2; text-align: center; text-indent: 0px; text-transform: none; widows: 2; word-spacing: 0px; -webkit-text-stroke-width: 0px; background-color: rgb(255, 255, 255); text-decoration-thickness: initial; text-decoration-style: initial; text-decoration-color: initial; float: none; display: inline !important;&quot;&gt;(equation 3)&lt;/span&gt;" style="text;whiteSpace=wrap;html=1;" vertex="1" parent="WIyWlLk6GJQsqaUBKTNV-1">
          <mxGeometry x="744.95" y="490.29" width="70" height="19.71" as="geometry" />
        </mxCell>
        <mxCell id="a27hsYVGrG07yMlYosN4-112" style="edgeStyle=orthogonalEdgeStyle;rounded=0;orthogonalLoop=1;jettySize=auto;html=1;" edge="1" parent="WIyWlLk6GJQsqaUBKTNV-1" source="a27hsYVGrG07yMlYosN4-32">
          <mxGeometry relative="1" as="geometry">
            <mxPoint x="378.4849999999999" y="840" as="targetPoint" />
          </mxGeometry>
        </mxCell>
        <mxCell id="a27hsYVGrG07yMlYosN4-32" value="" style="shape=image;verticalLabelPosition=bottom;labelBackgroundColor=default;verticalAlign=top;aspect=fixed;imageAspect=0;image=data:image/png,iVBORw0KGgoAAAANSUhEUgAAAJUAAABZCAYAAAA3iGaAAAAAAXNSR0IArs4c6QAAAARnQU1BAACxjwv8YQUAAAAJcEhZcwAADsMAAA7DAcdvqGQAAA+lSURBVHhe7Z0JWBRXtsf/uESjDYrjElQUQRCjERGMSxBFB5eoNHFcJk8E0ck8yLwY8xSXJxjjaDIRMolk8vD5Bd8ETeISTFwyAQ0moiM6gAEVFTAgok1kR1DRXs5UNdWku+3Ghaqmwfv7vvqoul1dTff9173nnnvuKRviAIMhIu2EvwyGaDBRMUSHiYohOkxUDNFhomKIDhMVQ3SYqJ46biF720IMtn0Fsdm3hDJxYaJ62qAaFJ/Lxc2h7nDr/axQKC7M+ckQHdZSMUSHieppgOvyLu6NwvxZczHfbyReDP8cOXVq4UXxYaJq89Qhb9cGxFTNxY5DX+GLmCBUbotE5NcF0AhniA0TVZuGoMzbi9X7X8CaJSMgsyHcu1OH+yhHUdUd7lVpYKJq09xHcXohXlwVANeONtzxXRTlZKEYQ+A/vB/aN5wkOkxUVkMZTkT/Ht62NrCxebLN1jsKKeX6tlInOC/8M9aO6wleUqBSnP8xm9sZgVGu3fgSSWCishp6YULEbmTUEjQVSVjuwJfZY9zmU6jREHjPz4ObGncrC5GVtBXBrjLUZZahRtlEp1ZbgLOpVwGfF/FC345CofgwUVkhVH4DF0v4vWGYOfl52GmbGVO0Q2d7J3hM+xM+3LYc7k4D0LeH+U5NfT0Pp7jrOvoNw0Cp+j4OJiqrQ4WbF9Jxit+1HwNvN5m2tGnao4e3HwIG9YBdB3MKvIdrmSdxEq6YMnIgugilUsBEZXVU49KZdNTxu74ecLN/xCalSzf0cusN86fXovDCZe7vSEwY3rvBxpIIJipr495VnE3O5XZk8Jw8AgMetfbVSpBLX/QQDh9Ad12nkXh+YCehUBqYqKwMTdE5HM3m2ylzw34Vyk9+h9NVRh7xyl9w01aGDsKhMaS4hJPcde3lXnDrJGU7xURlZahRXXgR6fyubDTGDO2uLTWkGud+uIaOXYyqrpc/IoPczfieVCjLyUQq3BHoO5QbU0oLE5VVUYOcf55CFb870gPuvR9sd0iRii+rnDDIuLXp0BXdZcL59RexM3QUbIa+gxO31FCVfI+/btyLnqEbEDnbUVJ7ioeJyppQK5DzA29Mmxj2q+pQcvEoPl77Aco8XZpubTrYoZ+rM1yuH8L7r8sxXp6AjmGJOL59Ppy1nnVpYfFUVgQV7sQrzsE4IBybRo64nC8Q9ryUToHmwVoqq0GNqrxszu7hWYiEgnpD77myBkUp78HPcSSGDZQmYlMsmKisBj17yscHXgOMhv1clzbgpUn4baA33LtK34U1BwuKSvqA+1ZNU/aUACkK8MvIwfiNcNyIshA/niyWLD7qcbGcqCwQcN+aoWs/Iekk3055YM5LbujaUGxI97F4/eVBRpWmRuWJg8jsYGu6MrnfPe/bnfjitAIqoUhyeEOd0dKoqCJpBXEjOoIsjBIVSqH8EbifQ/ErEij3vkYoMESdG09Tues6rEqhGqFMaphNZRXo2VPjR2N4H3N+cWNUKD22Dz+NnygE4RlTjysnk3AEXlg0bQTshFKpkVZUFg64b7VoSpF/5iq3I4OH/wgMfKRaoQan5l/bY/5v+5t2aNJ1nDl4GrD3wYThprzzEiG0WBJQS7kJyyl0WxbVci2zMiOaXOBEgQl5pBbOYDSgUSTSYhkfMu5Fq1LKhNKm0JBScYJig8eRf9x5ui+UNlBBaVv/RMHBwRQ004tkXBXLvGZSEHccHPwavZ1UzL1bWiQSlYbuc315YGC80NdrqC71bXKEjDy3ZnEWBKMRZQWdj1/SYE8hlHZfM5SIPpq7lVScm05J8atppouMYB9OiTfMna+mmpS15AAHmhp/yaI3skSiqqefd0XSu6fKhLviNuXEyR/jTmzrlFNqlA8/k9GMTUbuq7+nCrPNTg1lRPtz5/nQprRqocwyWGb0pymk3QucuC/Y9J3IEBFNPiXIHbnWbAUlVVi2b7DM6M9CAfcMPap+RmZq8eNFj4qERURlqYB7hg7C7Zw07K/iRpM+Q9HXwrM6FhCV5QLuGTru4Ub+Re2i0WmjnNAwi3gHBXvW490TFdojKbGAqCwXcM/QUYPCc3ncX3cMH2SrLaHKNGz/GzB2mPT+KulFZcGAe4aODuhix4tJhq6dOXtDVYwj0XvQefPr8GtiXaBYSB6kpws8S30zCVc+mmZ+tQdDRHhv+zFsCYvAfvVgPHenKyZt2ITlvv3MLowQE/Oi4qdYvvo7vr5ai1sFt9D/1TcRzv9TdAuFP36DxFO/AM/cQ5kCGBLwH5g/yQWyB/o2FUoPr4T77GQEJiYjfs4A1v09BZgRlRqVxz7Cx1iE9ZN7ovZYJNzlRdiUth5OyV/j6sRQBHv34VTP3RGKbxExZSPqN+/Bxy/fxZfhQQg+LUfqmUiMu30UkfIl2D/8QyT9XzPjo6ke1TercFeUdtUGHW17oqduoQBDXHhRPYCmgHaviKcc7RSLzt0vIye/jZSsqG84p5EySlnlRXDfQKkVRZSy+XfkIvOimQtn0ujRr1Jk/ClSKJs/26T+OYECtfNjYmwyco86brFQkKcNk6LSFO2jiMb5It0UiyctTyoxMRlZSxnRk7jXx1FUaoVQxniaMTH6Iyjr7THJx7FhaEgKZCadBex9McVTyHNkwG2UX+cjgUpRVHa7oYjxVGNCVDZ4xm0KXnYTAlob3f1eGNbLhA2iLkNh5jVupzue6972w4RNJRtj268bz0P8VDp3vz18pnuaTBbxa2y1M4b0f5S0N60brnVnWxMbz0P8VLeQGTMX3hFAdMZXWOllHJCqQsn+N+D2u21AYAKyExfB2UimVHcZ/9h7Hr+ZEYCxDs1wfrLRX+uBF5VZ1JcofqoDwWEtpdSYCPPSFFFiqDtXzeNpdcpNE0b8XcqNn8e93vw4Kjb6az00KarGMNcFu+naA4ppiO6Uy2TkGpZIRabcBg8TJaNN0oRNpUHtpQwk86mSKqtRq+Jvcj34zCLr/4KU0Wvx6cYADDCRFpCK0nHwSAns5eMx3PYh5hujzdBETdch/2wGSjAVkVPLsDe5WFiMSFBVZWP32gh82n0ljny+Ar76o8JbpxG7JAQhIQsxe95qHIADnIu/RMRiriz0PSSXKIUTGW0V84a65jJ2zJiMpZf+iNRLb6Hfyb3YnVmNZzjj/UZ1V3hOn4MAX1d0N5u4tBzHVk/HlC3OiM9NwBK3zkI5o82j7QRNoClIIDn3sv2bSfREfvL6dIr2kBGcNlNaffOnaayfUkrdsoC8mjGYkHlF0vdlrX+tkZnuT5fWxhG+Xg9JsGUGS+aYtA5ETK6vzkbsKFvBoTgYIfvzUZL2KZbL5ZjPmRWzvAdgsHwLjpXc07psvtkcilnyhQiZ74fBgwOxZu8F1PEyNYAPhzmO2NAJcPOb28S5apQdXgZbA6fmDMRmC7MlZYcRpv9UilGxyDZeH8x9ORNUUGrUOO6j/Ck640kG3rrcAI4kT8g34Wpo2+jyFzz68iju90qJJHf9Vl1TQ1d2hWvX7fkGLabQt480TsxzoiVOtGQ/bzVtDFtB8Reqhd+4jnLi5nCfO52rN6PP5XMuyL1ogbC4l//M2qxPKEDmRWGJBfRg9oZ6Unz/Z/LjWl6H8EN0U1eJ2lU6TuS6eDullxoHFzRgWlSq8xTnY98MV0BzRdmaUZIiMUy7MvixlkfVpNAqvzjK0Tu9YVU3d51xMZRxW1erPNcoMdiF+33dKTSxyOCmbXiPPfnEnTdYtKvKiSMfyMg1/CApGt9QTRnR07n/M5QSrtwWyvTQVFFW7Dzuu3hS6O48us8LLSmK/Bf/nS7Umv9eJro/De5cOI79/NRL7x7o9iRdly43gIM3RnHNuhZlPva88QFO3LKWLEpSIX5yfaeZL2F4F1P1MA7TRjuYmOSvQkkd1zUKRzzt7PvhBVfj5XF2cB8zBo5V32D70QKu4zPCpjs8wt/HZ2Ht8P9/WIn3E+KwLu5ZRG5ZiGEy89/LQFTqvB2YYdsfvutOwSE4GMEep7FymB1s3NbhmHHe7qaoLsK59BLgxaEYpPVP8TmUduJvXUdiWFv3V0mQXL99p45mUlk/g45mR9+G2DjMxv/mVSLvEz8o/3UE+3duQ0xMDD78PJWT4IMibKTDILzy7kfYPPonRIXsQ+9lSzHBVGCBHgY13N5tCb6rVSDj8Of47LPPuO0r/HClFpS3GZMfZ0Fih2dh14drobp1RWcb3kA8iuhPu2Dziono8QQNX2tCquT6zUabgWcdZrk+j7nbzuJ2r+HwXxCONa+9jD7CKeawkfWG43O8S+gUtm8/+NDMPdI0G3ZjEP5JFALS/oLXggIxdcVlzPjgLUMnaZtEquT6zeUOft71FnwWJKP/O0k4tmMNFk33gYejUVQJ1aH48nXD0SCVIy16Pb6bmIBLByPQZ89GLIs5gTKTzVoDEvVFneAweRUO5P0Lh3cdwLEvlsO3OREKrQaRkuuLjTof3364D1VOc7B47lC9BSq6x98KqHOxJ2g3chsbojso2LsBK8uCELN0DNxnrcHO6FFIf+e/sXpvPszNjbRxA8fCiJVcXwtxZtZ9rfGsvqc0NKJJDeU9vuQ+lAZzsmbe0643hkwcCpRnIf1yjWA7cWZJ2Rns2PcTBnH/zJ0b5aipKYfCuQ/seVWobiJz53os/UM1wpb5oy9vu9n0gPebmxDt/wtnuEdga0alcC0jhFEgQwR0sxD8z2p+k1Ncjonhuz6qLNrqKTN633TamlVDpYfeaHBX6G2y/zxEpWbfU6e9pKb2PO2JepW8ZK40aV4QBQcFUkBoLB1XVFLBwTU0SSYjl5n/Q3tyrlPW1ul61zDMKabK2kqeZj5DBxOVaOglg8VCSigwcgwqa6go5T3yc3ybUuv0PUttD9b9iUbbSa7fXJioxKINJddvLkxUIiFZcv1WCBOVKOg9rEg2Dr4jHmiLtNjYO8P9OaNuUZmLb/7RA7O9ugkFerTE0xpEgIlKFKRJrq/JT8Qbs4Kx8uvLuCOUtQaYqMRAkuT6LfO0BjFgohIBunkRJ/ikpgbpEJuCF9Q/EbdmI86+EoixdiaqoaWe1iACTFTNRVWJnO++xQFtrMsIjHI1YRsJUH0VrudlIHnHWgROmIFlh0YiLGAIfg1IqcTp2P9CSEgIFs3+PV4/UAyZ8xXsiVjKlf0RG5Kvaz2OVo/gr2I8FlIn12+5pzWIgeTpGRlPgi7dwF1sSjuMdWPNt37WCOv+rBEqxcWTlzl7agy83YzCU1oBTFTWSAs+rUEMmKisjpZ9WoMYMFFZHS37tAYxYKKyOlr2aQ1iwERldbTs0xrEgLkUrA7e295yT2sQAyYqhuiw7o8hOkxUDNFhomKIDPBvfj0JTJsIY+EAAAAASUVORK5CYII=;" vertex="1" parent="WIyWlLk6GJQsqaUBKTNV-1">
          <mxGeometry x="345" y="870" width="66.97" height="40" as="geometry" />
        </mxCell>
        <mxCell id="a27hsYVGrG07yMlYosN4-33" value="&lt;span style=&quot;color: rgb(0, 0, 0); font-family: Helvetica; font-size: 12px; font-style: normal; font-variant-ligatures: normal; font-variant-caps: normal; font-weight: 400; letter-spacing: normal; orphans: 2; text-align: center; text-indent: 0px; text-transform: none; widows: 2; word-spacing: 0px; -webkit-text-stroke-width: 0px; background-color: rgb(255, 255, 255); text-decoration-thickness: initial; text-decoration-style: initial; text-decoration-color: initial; float: none; display: inline !important;&quot;&gt;Probability of bankruptcy&lt;br&gt;(equation 5)&lt;/span&gt;" style="text;whiteSpace=wrap;html=1;" vertex="1" parent="WIyWlLk6GJQsqaUBKTNV-1">
          <mxGeometry x="415" y="870" width="225" height="20" as="geometry" />
        </mxCell>
        <mxCell id="a27hsYVGrG07yMlYosN4-34" value="" style="shape=image;verticalLabelPosition=bottom;labelBackgroundColor=default;verticalAlign=top;aspect=fixed;imageAspect=0;image=data:image/png,iVBORw0KGgoAAAANSUhEUgAAAhcAAABlCAYAAAD+rMGrAAAAAXNSR0IArs4c6QAAAARnQU1BAACxjwv8YQUAAAAJcEhZcwAADsMAAA7DAcdvqGQAAC0iSURBVHhe7d0JXFRV+wfwH6ZoOmr4momKCwiCgJjgjsiSqLmA+rqVu1lor6m555prCvZPLKUS3wI1UHFJfQNlUSBwARVkxw1QUFDWAdlmzv8ODIYwwMwwDNvz/Xyo4QDO3HPPvfe595zzHBXGASGEEEKIgrQQ/58QQgghRCEouCCEEEKIQlFwQQghhBCFouCCEEIIIQpFwQUhhBBCFIqCC0IIIYQoFAUXhBBCCFEoCi4IIYQQolAUXBBCCCFEoSi4IIQQQohCUXBBCCGEEIWi4IIQQgghCkXBBSGNSd49ONnqob31IYTl0ZqDzVM2wpw+Rd/2U+AYli0uI5Ux5IX9DNu+fWDteAd54tImjT2H//aP0V5nOc4mFogL5VH7uqPggpBGhGUlITwqF3oGWujyroq4lDQrLAtJ4bF4oacLnS7vigtJZcXISopF1IueMNDpgmZRUywHCWHRQG8t9HyvpbhQHrWvO1pynRBCCCEKRU8uCCGEEKJQFFyQWipGmv8eWLYfhMVnn0AoLiWKw/gROLXhU0ycMQ0WOqOx1DUcfHre2LywLESd2oIZE/+NGRYDMWTpCUTyBeIfkn8IwI86jQ0zbDFjhgV0hnwF18gsNO3DRbTN7viaOz/MmTgSI5a6IS5fni1WcN2JukUIkV8+e+gyh/F4Nsz+9ismFJcSBXkdyVwW/Yc53c/k6jaHhdibM/DmMJeH+eJfIE1fDot1WckWOt1jOdwBVhRiz7TQm9m6xDGB+DeIiJC9jj3OFi08yu7nFIsqitlrgfFsXdjDJlxRwvRrbKvNVuaZnC9uG0Zshedz8U+lpfi6oycXpJZaQ3OuK3JyzmONSSfQEENFykPcSQecHbkUiww6cnVbiLzsAoD/Ehk5xeLfacyKkBF2EjtPRHJbRiRjKIo7hfVnDbFh0QDwVBgK8vhcfb1EQkaexLtKluaHAwd8kVJc2/v1RrZ/iqJxcr0PRm6YDQPeO+AqCtncB+cnZCCnyT66yEW0+zEkzVsMa3WGR2G38BAt0boVt/2ykLHupGljFFyQt4kev54/Cd+k2kxjItWSto6Fz3D77gCsm9IPrUTfC5IR6RcDqH8Igz6Nfey7ABnBB/GlWyd8NrM/VMWlpKJCJN1+jCHrJkO7lSh0f42EyHtIQj+MMegOSZcQlffN8MXYx9i08hwS5Q4wGtD+kfJ4ESaF4e6QRZii3bbke0FCJPySuMNljAH6yHitbTzy8IpvgjmjukGlMAaezt6A7iRM5G70ZCFr3UnVxsRPMAjhCFnuPUc2hqfLvrj4TFwmmTDnPnNbNZtN/nQCGzx8BfsjNkf8k6YmgwXvd2LB+Yrq8JG+jisSJrqxmdwhi5luLLFR9z8JWeFDN7bI9gd2O6tYXFYDYTLz2fAZO3iPLy5opoSPmdvM3tzZfCFzSywUF0rymiV4rGY2uwNYusxtRY79IyJ8xE45+rBX4m8VQ97jpZAlui3k6qk3m+n2mPtXmjqunkIc2HDwmMGuIJYrLpWPtHVXfRujJxfkH0XRcNv2Pa7y85GZW1j1QB6WhkD7A7g7dh88fvsWM1IPYtnhv5Eu/nGTInyOqMyu6KWqoA4faeu4EiFy4sPgDzWYmuujW2Puf8q/D+evz0Fv01wYd5DilrL4BUJ+2Qq77x6gsNaP+hu5nEe44/8EMB0Cw24lz7Oq0AY9p3yNpS//DzuvJMvQzjiy7p8ywmy8FLZDO/G3CiH38ZKF+Dvh3P+NYG7YpRl012Yh3PMSgmGCWVZ6KH3+IC9p6676NkbBBRHLR+JZR6y5wJ248AQhSa8geSw64473s9iTNAlfWWugxaMwXH3INbPWrVCblC0NFXsRi4da/fCBQs5O0taxJPl4GheFFOjCQr+bxMfhjYNoHMl+/KS7BIuMqxujw1DMT0FcsAcclkyFhd1RxIt/0pwJnsYhKAXQsNBHr5oagYo6LO0m4NGaI/BLl7alSbt/KihOR9zfoYi9sB1263fC3sEBDnu+xYatrgjjyzuHrBbHi+A54oIecRU1EPq9mkH6rOw7OPfTNWDEVEwc1JG7//PFXocAZIh/LBNZ6q6aNkbBBSnBUq/BMaArVk3rXfJ9XlpWFSlfheC/EsBsznCoq/Bx3/MsrsAUn000QgfxbzQdQuREx0FVu4tCDhTp61gCloxQzzsAzwgD+zbemmbpwThmn48v5w1Dp6quXMWhcOjbHcNmbcBhzxfQmPsFlpVWWTNXgMTQQARCG1YDe0lxd6qCVtofY+lH13DwVCR3qa6ZVPvnLUXIiDyLbdNGwnhNCHQ+n4peEA82Vm0J1Tbt8W5L+SLz2hwvLPEuPAMzwLMagL5t5Xv/xkOI7BBvuKaow3rxGBiqFiMl4CJCP+iKjuLfEGH8OFw54YYrcdVPL5Wt7qppY+LuEdKcCVOZ/7bVzDn2IfNcYSRqdwzzPFiy+MdVyr3F7IerMRjsYcG5TbFXM4uFONgzz1cy9DtXRd46LpPlw9apc39j7cxiG+20ulwW6/wJU5N1ept4WhxgzuxDmurYHmmkMZ91xlw9TOfa0WtxWU2ELDd4DzPQ3cx8amzHsu6ffJbsvZNZ8MB4FjuZd7ICp0fX6ngRcIfLRqYOdWbtHN0MpusWs1eeq5ma+PgonZq6m/mnl9/f3LnMfkxpPepuZ/5ZVdWKPHUnuY3Rk4tmT4DsUDe4/OsTzNLpgs491EqL7z9FarXPIBnywr3xe3ARDGaZY0BTvDsQJiMsoRt01GrbCSFvHZdhKIi/A68UoLdZf/RqrEdtYRw8nW/CbOpw9KEzj+wKnuCOVyzXCAaif6/W4sKaqKCtoSmm5J7H6aDnXEuqhkz7hyE/9g+smr4Ffq0W4vCvX8NKXdrPVJPaHi98xN8JQQq0YNZfvRk8nn8HnUZ/hsN2QvyyZg5sF1xA391fwvSt89a76GZgjME87mXMDdx9/Lq0uBJ56k5yG6NDvLnLj8TJw68xb44R2qIVOn3QvbQ8g4/X1Q6ee4Ub5zwQgdFYMtEQbVkKfPceRkCG1L2iDV9mIh5r66NnbeMmueu4TCGSo+4hDEawMekDRZ3ClYuhMDoA7kEGGGfcTfq+fPIGS45GYBgfajbG0GktQw2204P57NY47nETz6tsbjLuH5YM7x8OwD2DB4PVSzBNq3ZDCN9S2+OFpSIqMAZQGwoTHdHVtBloo4tZR64jzu88Llz4HnP1RXlxymsF9XF7cSsnE8G7+oL3bhU3TPLWnYQ2RsFFs5aHh6dd8GDmHHGU+w7atBM3qCeJSK5uEFh2OLxcQwHrqRhnyANLCcaJ0Pbo3rG2d/kNBUNu5H0I9SXnEpBeLeq4DHuJyKAw7oAfATND2eavNxwFeBIagKDeQzBQq1msT6lgxUiLDIU/dGFrpgfxvbyU2qOPgS74F4IQXmXwL+P+yYiAt3sE98IQU8z6STH+Q1q1P15YWgyC/JOgZjsChrV+6tjEFCXh3t2e6N9D8i2K/HVXuY1RcNGgCMB/dBVOe/Zg98ppsLBZjt2uN6TLtCdKNHPRH4+luFaVYSk++CF4KL6yUhdHuS3xfq++0Cp5zUdufjX/WHERCvIBrTFG0FRJQ+DPl9BjxbhG/LhbNDshEaGXf4PD1i3YuvtbbHLwx6u/f8aujVux59j/EJoiOSNidWSvY4b8uBNYqNMJelv9kc2d9FOuOGGHUyssPLIKk6qdftiQpSPu1n1gqBa6K2pab2MhOjZPH8Ru+11Yv3QdDvk/Kx3yyLLx2M8FDrv3w8F+J9av2oljfg9L143Jj4LrwkFQ0fsWAdkCFKd44/sdp9B54XZsnqQh45MfVXTT7o/eGZGITapqWKeM+0dQhPwi0YvW6NBWcSm2ZD9e+IhztYOOyihsDXjFnZeScOX7A3DqvBRHNo9r3FO2SwiRnxKK8077sXuPPRxEs3AcD+Hwod9xOfJV2dBZKRUg2esUQm1sYFzSja3IupPQxsRjL0hDkBvKHDeeYQlFwtIBTVstuNOMBrOoMRFODos9vpPt8U5iReKSGglfMJ8NK5hz7NvpVorvHWQfiq5wNQ6e497zjxVssLY5mzZ5KlvqElay7kGjVPSchRzfyCZbfMkOe0eytNcCxgTRzHn5CfZItE3CXJYc/DNbMHg62+1T13UsZEXJ3mz3ZF3GM57APp0wgg2evpk5Bz+T/n0bIvGgzN67gpnMw/4a9YDOYvbKx4Ft93nB7VnxYDneJ8z5fgzzcdjLnG8/F+9Xbr8/u8hW6g5mdh6PWFFREvPZPY1p8YzZBFGiusGz2WbnIJYsOjfIoTQBmxab55EoLqlA1v0jTGAeC3W5fWLA7C4+5T69Ash1vOSzZJ99bLKWBjOeMJ1NGGzKpm/+nQUrcnBpPRG+fsx8Di5hYxb8yK4/yvzn+BdmstiL9mzB8IUyrDEkSkZ2hC3adqVcG1Js3VVsYxRcNCRFfJaR888lRPjMgy1U4w4q0cmowgH3D9GI7R/YtnPcCUlcUrNilhXswD49GFo5k1uyB5tXciDLs/hNY8Od0NNDmfMCY6a9wJndS/8n46Ew+Rxb63Sfq6kyojrbx4bzbNnBe1nisupQHb+lZJt57MOD98rVqZQac3AhfMTcVjuzyELRCb1sJD6P9bbYwbwqncTFs0GqHc0vp9SL7AsemJZ9iOTzhMz7hzt2Ei+z9eYajGexlZ3x/h9zd3Zk9vb23NcRdtwrUsbMoHS8lCfMCePOSx8ytZm/li4k9oZ4ZkZJfdiwI5FVXRfqQYU2Rt0iDUnLdniP908qKpVulvh8tTnA/wtH/4yUMMe7ACk+R+CYZIE1Nn2kT2IlGjD1iwBfzBUNmKqg3Xvoqi56wUdGbtNeTorx7+DIgmlYkb4Ipw/Nh5FaWZeDABnhcVAz6lFuvMU76DDIGrMGXMf2g95I5g7talEdv4Xl5yILH8CwR6dajmFpXFhSKEL7j4BuybogZYnQtGG7fgnGVJpd0QYd328PxHjhalimuExB1NTR9wOgMDuPO2tUJvv+UUFLdWP8e9ZUTBgAhF08Dd/YnNIftUxHbHAc0gpqOkjKoePlHywFfrtXYPFvH+CbtdNLFxIrp1WnHjDUMsDk3ctho9OAxi9VaGMqooCj9Cek4WEoDPsRFgO/QpDBHgTf3IBhb6Z8CsAPO4at/oOw4z/G4EndP5aHh65bcaTL17AfK2FUuCiBka4J1j4EuAgUMWuM6zTzJuMn4X5sKkq6b2ujVRf0M9SQvh5YGgK2z4TZ911w5MZR2OmXHxmdjoBvnVG0ajUsO5SPv5Nwdr4Fpl20heeDfRjbqarTcMOq4zL1Vtec4lAH6Jo4YaSHH36fqiEuldKb+jKHfchFrDGWYRR7eYyPpPuxSK11BbRGl3560Khw0q+MO37jfOGNYfhYpx337QO4TrHEPP+puBjjgIldKu71F/BaORbjDvIxT556qk5ZHY70QPLvU1FyrS5H1v3D+OE4vu4gHtpswQbr3mgjQ1uorCEeL9z5NSkasam1X8CxVZd+MNTgVd4uiQRI992OkVa78HS2GyJPzKz9bDVlqdDG6qlbpIilXt/NLHgfskUej6VM1FGF3LvsiI0u441xZPeaYiInUd+/aC1dmLNdwRniwmKWE3GcbdhzVeY+WGHyn2ypNk8UUNb4pbHFn9XtMlH57KHLHMZdKiS+v0xfvDky9T8WRjqxMdzfqa/0ZK8qVmHBXea4+hxLrlgujGcuNhrc+33BPJKr7oRqWHVcpr7qulRRiD3Tqq7PvzoK6hYRPHRhtrwK2yLXV29m6xIn+3nrlSdbIermtHEpHctTUfF9dsRUjfv3jdk6nzRxoYKU1WEViahk2j9FCeziytlsvWeiDF2xVWuQx4sgjrnYihaIk/w5ZPniyZI0TtSNNluL+zstNtvtEXemakQqtLF66hYRICchGrfRE3o9O0gZ0UnGspIQHpULPQMtdHm3sYR4MmjRB+ZzrMBDCNx8orkYXzSbwB1bT3fGV2utoC5Lal2WCr9DARj+1wtRUFnF1zNc/EK35NeTEtKQXfKqrrSG5lxXcJcLCZ9Dxq8cV8zVlDYDxGvE+/+FqzDG3EnGldIcC5+EI97IAF0rVm1OIiJuJQGmA6Fb6a5TrMHVcZn6quuGo4XmXJzLkbA9Mn89xrm52jJOtRNNbQ7G2Qw1mI77UOLdaFnaZUAT/XrI+XSmzuUj0eM77O3wBdZba9T+CUJDPV5aaGPuuccSPovsXznn5kJT2sbyMhJ+Fx9yL4Zh/JDGnQ+mnoIL8Yku5zzWmMiwOI4EKuqTcDguEbe+/xjqjXlPVKk1+phawwp8RLj5IeSBN/7vvwyL13wkW2DBBXTZN0/gRM85mF5twpsOUO/btfTlo1TUnBNLAH6cJ46dlHLKbIPwCjHBojn6ujDo07606I1ivIhIhn6lREICpAd7wjVFDSOmD0NfiU/EqY6r0rKbJkZy21FQJCi5nWt+chBzMwhJMIHN4J4SxjUU4/ndIPhwr3i2k2Det01pcTmMH4PLx07jRoocj+oFRSjg2pmWYS+8Ly4qT+r9k3cXrrvSsfjToVCr9fm2jo4XloW4y644eSNZxqma9a84MQbefO5F7/7Q7ibHFN/63PYKbayeggsiC5VegzHZWh2I+BVrDqRg8qZZ0K+xv7cC0YCpX4Eln+ij8mmrvJZo30l8+knh43VNVwJhPE4tX8QFO38iOq+xXDZU0U5NdGfIQ7s2FevxFcJD2sKod4WBUlz9nTp8Gim6X2LnHEPuX5CA6rhqrdtBTU3WlWCbEFEq+atcQKtugkHaEp5KsGQEX7rG3UKMwJfLx0rIF5OP+FNbMXHxPpyLFg+clEV6MuKeqEGd11ryzZxU+4ehIPpvnH5tAiPN6lu4VOroeBHGe2D5xHlYcy5GwiD4hk2lpWrpApBmuuglSxZWsXrd9gptTKnBBeNHwP3rT2AzZyKGjFgJtzhRiCY70b9zasOnmDhjGix0RmOpa3hp4pmmqkVvmM405V5koZXeAGjLGliIBkyJst7NmImhHWr6W+5Afk+cBfLhAySkVR//Ch8Ewf1KCtTnfgSTtwY/NmRq0BtuzIUWz5GaUWH0eW4cbqgYoH/5tVJYJsJ+3YW1vkawd10FC4kDOamOq9WxKzR782RbCbYJYS+iECBaK93MCNrtK+5DhqJ4b7icfgptu9VYZvZ+5QBA+ASB7oFccGKNsSayZ2kV5mRyrf0D6Fc1G0Sq/SNAesIDhOWl4mV2bUPEujpe8vEg0BNXRF2eYwc0upWa39HoBzOp0q8WIMXXBaeicsXfi9TvtldsY8o7U7E0BNofwN2x++Dx27eYkXoQyw7/jXTxj6WWH4XjK35GxpzDuHjqdzh83gJOy+xx7nHtR/U2VKKlcoNuv0BvZCDIPQDRhbJEUgLwI05i00ltLLIsy3pXnXfQqVtP7r1EClFU7WP4AiTc9OUaswFsRvVDxQ6GhksVGuM/x7YxEXA5H4bsN5vIUPggFoXDy20Ly0Lkf9dh+iEe9lw5jJUSu/Gojmv0TncYjOmHlHtP8FwoLms2hMiJDoGX6F4qPRM5Ffe3KBvn1u/gM3gjju6YjJ4SujtZwm38yQWYajYjYFApOKmJEPynD3AfhhiiU0VgItX+aYF23EVePcUN+w761qKLrg6PF/YUN/+8wd0/mGKUwXviwkZE7UNM/nwE4BeOB7lVbCfLRaLXj7AP04SFXjtxIadet71yG1NScMFF5tFnsSdpEr6y1kCLR2G4+hBo07oVF5PKIg9xJx1wduRSLDIQLcxSiLxsLqjgv0RGTmPrXZNS8WNccPCDxupt+MyABwQFIPSJdIEUy09FlM9hfDl1FdwL+Mjm11xHLP8F7t+LRlbJdxG4E/WyQt+dENk3fsKi+fMxf+40TF92AuC1RpL7N1jAlS3c7oUUec85SqTSYQhWHHXEaO81WPHLTaSVnLBE6yukQFe/M9e2ipAZ5wvnVYvwTdxouF7/Ef8Z3q1Se6U6llYH9B1kBN7tKDzOlOWutxj8hzGILLkLyeBuXJ+CL/dFrb6UrTRpjc3WaTjllSTe3wzFGWFw27gWR99bgysnVsPs/XItLPsGHBdxbWD+p5g0fT0uQB2aSX9g7QKubOFeeKVIO6e2EM+fPECKwYdVrikh3f5pgQ7DpuDr4Xz47ZiKUbYbcexKOFLypY8W6+Z4SccNx/9w9TQfcyfNwrILSeBpPoD72sVc2efY7vWUq+lGQqULLFbvxra+f+Kn4xWeyLN8vIzywbG9P+AybLBjpSneV2ko2165jSkpz4UAGQE/w6loCjZYtke44ywMXJGFLf7nsWPUv8S/IwVhPE6suAzNHcsxXLSoiiACTuZmWPrQDj4xuyrkJGgCip/Cx/6/SJr8FebrM9zcPQXDN8fC2tkXfy3SrToyZE9wdrEtpvmrYfrInhCNHhC+isT5y6kwdb6CS9zfVnwQyVIuYtmoT+D0oh8m2OrjX+J/vPTvQtFqoQcinKe+nW8+2xfrda2w39AZsX8tgk4jrH6W/wx3PM/izLXHaPl+e6Rdj0AbS2N0zspHC+0hsDQfCRNNtcpBMNWxzIRxxzC+31EM9b/EHffVPdoX5xP5W+NN3b5NiNeJN3H6miU8kn/EVPVaz1moW8IYHBtvicXRn8M/ehW6B56CW2gmVJGNZ5nt8OG4qZhspo33qhyg/RK+68fBar8mnGNdsEhHxvEOJfk1xmD/4JO4uWl45SRVYtLtHwH4UWew5cu1+OFaUmmRljXs7BZgurU5RhiqS855oZTjhQvKfTdD1+o3GNZ0jmzQuKAzMx7+f16AX1Qe3u3cTjzGqzU66Y3EeKuBUG9TccvqedsltTFRcKFUubeY/XA1BoM9LLiWeSlKc5lze2KmG0tsVBOCpSBMYdf37mD/jcgUz3Uul/Z1hCO7V1DfGyxk+SH2zIj7PHKtF9EQZfmwb7YrK++ENJpYHZfM4ddlw+1vVU7x3IQJH7kwG24fqq3wZK/EZTLJv83sjXgMvXez4HzZj3vhi4vMTq18npwqyLB/hK+fspBLP7PN0weXy53CY1oTVjHHcyEsWbQ+j9JlsRD7MdznMOW2NVNc1lzU77ZLamNKDuwY8sK98XtwEQxmmWNA+UFzMhMiJz4M/lCDqbl+E1j9rhxRP//vR3F79FLMf7MuvwraDjDHrJKuES9cjy4/kKc+FCI56h7CYAQbkz5cTN3YMRTExwLDdFCuF7OeNbE6VtGAxSdjEfO7N8Ib66wXmQmQESc6T2nAzFhLxqXSS7HkaASG8aFmYwwdmWcQFCLJ7xyOm8zCFOOO4rIqyLB/VNp0h/GEz7HT3R+PY4Pg4bgKE7SAh5f/D19NMYflN1eQquxdzFIRFRgDqA2FiY6EGTlNWb1uu+Q2puTg4hVunPNABEZjyURDtGUp8N17GAE1T/SXoCxPvy4s9LtVeqTWaJUEFo74U2MBVgwX9f2X09YQE5eM5l5cxxGPO0pKvlSVTMSFinJFGMBYpxEOnKpEdCHPhG6D2pamVsct0eWjRdij6YfzN9JKbnebPu54/jsIGdx5yrR/l7ePZ6nUMjgpegDvP5Lw5YYp0CtZ36Q6cuwflTborDMcU5d/j4sRcQjzPIh52kDMr//DrZe1nVEio4yHCPVPKpmRoyPqNm9O6nPbq2hjyg0ussPh5RoKWE/FOEMeWEowToS2R/eO5SpDlATkihtOXImrfnopS0ao5x2AZ4SBfRvbhKOqFCDlyi843mEO1lr1kDDYlQfDiTNhy+Mj5kc3eCeXDehiKOZnKXegW24c/j4bBhgNRH95kr00ONyF/Al3N9azAT0faHJ1zGmjj5lrzODveAnxRc0gvBAkI9KPu6OsKr9FjWoTnAiQHvAHHNvOx5JREqa3SlKL/aPSRh0Dxi7Frp3TuTvoTujYVpmXl7IMqDwYmeo1rSfZNarPba+6jSk3uCguQkE+oDXGCJoqaQj8+RJ6rBhXLmEMQ8GdXzFj7GzMGbsY+wNficslKEvFPGIwDD5o4AO6pCJe4TRlLDZNqXqF0xZ9xmPdxgngZbhik70XkkUBRXESPB1OIiJfeSdr4bN43OSqX33sIGiXPKplKHp0Csv3BNTzExU5ZUfCX9gHvRrQDU+Tq+MS70DN1A4Hhnjju7OPKoz6b2qEyIu4jrOilN5duIutHEmRIExF/M0nbwcnRfFwX34AAdnVz9Jg2bfgtC8TG3dNgVaNTy3KyLh/su/g1Mmb/8wYYTl49jAdk7+ZisHt5NheuRXgWXwUktAPYwf1Fnch5uGR+1bsCajmOtIk1N+2V9fGlBtcdBqJZYdXoNMvazDL1g5/9F2Jtablox0VqHbrD8vBojX77uHS3adcXCSJqH/8DrxSgN5m/dFLuVtRN7iTyMNCa2yaP6D61SZVOmP4ul9w1eUbjHm0D3P+sweOR7yh8sknGMpTVkUIkPk4CrehgSEGPUtzL4hWGf3lDNoNa5y5GARPn6JNgxpv0fTq+A2uDQ/7agNMr/+MP+RMpNfQCUQzL9r3gNmmIKjPm4d5RjewRr8DVHQ2wVeWbuDMBITf5k50Q/TQpyS/hehO0RU/thsI/eryXYiW7f7uvyhYtx7TNKtLrS2BLPungxE+Hv4aV3/8Dnsc7LFnmwO8u66H02eGNWTdVLQsPA6P4/7/T0p/lh6MX34Ehuk3hS7F6tTTttfUxsQDOxsYIcsP3sdsnKOrWHkwnz1y+ZS7TTdiKzyfi8uI8ghYlv92pvtmFcV8luy5nc3e5sdSm9qsnXrT1OtYyIqSr7BtC/cy7+QmMdeobmRdZ1t0eeKVJkV19hfbMHsvu55azXqkwkwW8d+NbJVLGMuRu600tv3zkvlvMeWuCeIVi4sSmeeGJWzb9RRuS5q6eth2KdqYkvJcyCoXUU4bcG7gTmwaJiHyYs9wadk4THIfBY+Ig5jarZX4B0Rpip/Cd/9K2J3Nx5CuAgjN1+PAytEyLqZGqtUM6li0GJfn7VawstCSvF5LsydK83wQdnZnIBiijjyhBbYfWAoz9arHBrGXd/DXg66wHlY56ZusGs/+YShO8cV+u7U4K+iLrnntYL59F1aada91HTR8yt92adqYHMFFMV6GnMGZiA7Q7yfEXff/4dWIZVg7vSde3gpDolAV7bhWmBn2J47fehfjv1qO6f3LplNKg6uo5MtYvy0byw7PhhYXN+THncTSictxY9Z53NwxFLleu2Az7jIM3Nzx80xtUGhBCCGENByyBxd5t3FgSwKm75uGni1zEeowCSbfdsTyZYNh+sUqzBD1vWT7Y+vQCdgZ0wqmR/xxzc5A+qmieXdwaPkV9N+1ClYl0XlZVPYf7H2mBZuuGYhrawm7r5dingIic1FK1cwXGTWvTCkVFbRq3xmdeU0/ViaEEEKqImNwwZB3wxFbX/4b9hO7c3+ciLOLPsK03zrAzuM0Dk0Vz3LIi4DLf5Zi16tJcHJaActqHuHVN+EjV0wzmofzChlXxoPulsu4ucOs0a3GRwghhCiKjMFFHqJ+dkTM5DWl+fzL1j3oYo+Qm6thLM9UK0IIIYQ0KTLOXWwDzVnL8HFX0fOJf6aD/jMPnxBCCCHNXS1mi+Qj7tg89Ft8Dws8vHFsak8ZBm2SilRUqPYIIYQ0DfIHF2/GWwyUeRlg0fSm/526j3+Nn4xhDXg8BiGEEEJkJ39wIfd4i7InHo+wzscT+yw7i8vrCc0WIYQQQhRKzuCCoSD0AIaarEXqOh/E7LOUfnaEMAbHxlti8f0F8InZBcsO9Zu7m2aLEEIIIYol55W9AAlhtxAGbYwd2lemdQ5Ywm38eSUFajYjYFBdbnwlaaE5F+dymCgNugK+chBNgQUhSpSNMKdP0bf9FDiGKX45N5Z2Ddst+0BnsQcSq18nrAZ1+zkJaWjku7qzVEQE3ONeDMQoAymWAc6+AcdF8zF//qeYNH09LkAdmkl/YO0CrmzhXnillC0dTgghMmBZSAqPxQs9Xeh0eVdcqDgsJwlhtwXordcD79VmzHUdf05CGhr5ukVyA7BVzww7O8k63uIlfNePg9V+TZkHgRJCCCGkcZDvyUWhAOhhAbsNE6EvS36Lgie44xUL9B6I/r1olgghhBDSFMkXXKiZY0eQL47M0pVpzX6WHI3AMD7UbIyhQ0m3CCHyYFmIOrUFMyb+GzMsBmLI0hOI5HM3PIoi+vfdN2KGzQxMHGKJpW4xyBf/SCZ1/TkJacCUOKJSgIy4MPhDA2bGWlATlxJCiPT4iDu+HQ4Z/8axi2dw0mEO0p02Y/O5R6jVeMs3uPNU4E/45u5oHPQ4hm9nMDgtO4rr6bIGBXX9OQlp2JQYXGQh8u8gZEAXpv2lGARKCCFvYSiKO4X1Zw2xYdEA8FQYCvL4KMRLJGTkcT9VgKJouO95jnlfWUG9xVOEXY0F2qiiVUtZzlhK+JyENHDKCy6EqYi/+QRQN8EgbV5pWVE83JcfQEA2xfKEkJoUIun2YwxZNxnarUQX+9dIiLyHJPTDGIPueKf0l2qHnwG+mS1GqbdE4f2rcL6SA93PxsFEpnw8SvichDRwygsuMhMQfjsFGKKHPiX5LQRID3DFj+0GQr8B5LsghDR0raH56U5sHN659MknS8X9a2HciwHcDUtHUUntqY3Cmo2WeF8lG/ev/g9BMMGcjwfImLtGCZ+TkAZOeVf1lu+iwwc8oGM7tFFhKE65CvujbbF79Wh0kuWJIyGEiOQ8wh3/J4DpEBh2ayUuVJC8KHj+HggYWMNqQC0Dgrr8nIQ0UMoLLjoMxdKftmBy8HdYMscW1qtjMP7AKpi9T+twEEJkJ3gah6AUQMNCH70U2tcgRPaNi/gpohVGLBmPQW0FSPM9BIeANPHPZVN3n5OQhkuJ/RGtoW65DhfibuHS8QvwPbkSZrQiKiFELgVIDA1EILRhNbAX2opLFSMdIV5XkIKPsHicLlRZMgJOROGD7uU7RwTgx3njxAlvxFU7vbQuPychDRcNdiCENEI5eBwRw/1fyiUIZCJAUUExoDUERpqtkBF4HC49ZmFin3I3QwV34TRjCubMmQKb/X+j6tVC6vJzEtJwUXBBCGl86jTbbxeMXrYBdp2OY82saVjwRy/sXmsKtfKRgWpXGFgOAg98xFy6h8dVPbygrMSkmaLgghDS6NRttl8VtNGZhSO37sHvzHlcOPwp9HkVBkuo9MC4768jJz8Yu3ry8G4VH4GyEpPmioILQkgjU4y0yFD4Qxe2Znr1mO2XoehhOO4O1kMPiWfShvI5CVE++VZFJYQQeYjW2zjzG849yUH2o2z0mL0CS826oyXLxuNr5+ER9BxQLUBaMtBv8ieYYa4FXkEUXJfOwbwbNvC/uRnDc69is80inDX4P3j+PAOaJYmqpMTykHLnKi54RSBdtTVUoQJVVe6/vL6wnPIR9NVkmCpanIhL6x2RsWwH5mq1BfIV+DkJaeQouCCEKIkA6b4/4BDmYqtlZ+T4boauTQJ2BW9Fb69zeDJ6IeaZfICWYChOvoy1VjuQv9sdhya3gv/+lfh87xPu97siNa4Dxtotx7J5w6AudVpuIfITr+GXbY64O2glti40RR9e6TR4xo/BZSd77Ak2x/HTc6Ep1fPcbIQd2o5z/b/GZqse3GfmFD+Fb60/JyFNAwUXhBDlYI/hvtYPhnsXon8rhmxRcGF1CK0t1uHnE+tg/dbU9JfwXT8OVn9Ogv/NLRglU/rtigTgRx7H8inf4fVqNxz93Ai8N9f6TNzYPQXDN18DTI8g8pod+lMuCkJqjcZcEEKUgiWFIrT/COiWdA/k42lcFFKgDdv1SzCmUs6bNuj4fnsgxgtXwzLFZfJhaX7YvXAVfuv8GdbOFS0kJv5BCVV06qkJLa1p2P3tROhQYEGIQlBwQQhRAoaifDWYm2qUnnRYMkI97wBqZrD6ULwGx1ty8fJpBvf/VCSk5ZYWyYOlwu/ANnx3uxNmr5iKQW0rvlNb6Mx1xoMHZ/CNpbh7gxBSaxRcEEKUQAWqOlb4WKdd6bcZDxHqnwSYGUNf0hIAgjQ8Dk3kXryHru+9W1omB5bkh6M/BQG80bAZ3p2SWBGiJBRcEEKUjCE3MhhnM9RgOu5D9JRwxWeJd+EZKHpyoYl+PXilhTIT4GX437jI515amWOIhmppMSGkzlFwQQhRshzE3AxCEkxgM7gnKg9zKMbzu0Hw4V7xbCfBvG+b0uJySmZ4HDuNGykF4hJJXiMx5j5EsUXvwdroJsdjC+nehxBSEQUXhBDlEiYj7GoEoG6CQdoSnkqwZARfusYFBSPw5fKx6FPpLJWP+FNbMXHxPpyLzhGXSaKClqqiwEQLZnrdIXvybWnfhxBSEQUXhBClYi+iECBag9zMCNrtK56CGIriveFy+im07VZjmdn7lcdJCJ8g0D2QC06sMdakk7hQkjbQ6KcvXWZMUY6Kw2cRVVhuZr7U70MIqYiCC0KIEgmREx0CL1FfRXomcoorpNkRZbnc+h18Bm/E0R2T0VNC8imWcBt/XkmBms0IGFQKTsp7B2qDx+Nz3Rfwu/cEVc05YflP4GV/GGEfjoSe6j/vJ/37EEIqoiRahBAlykaow79hslYFm+1H4R3dedg8sWdpVs6McJzZsRGOr21xYNt8DC+f+yL7BhxXHkGooBivIv1wORQwnmAB/X+15G6RdPHJnjUYqy4pdXcx0vz3Y+asaMy88iM+N+j45kkIy09FdNBfOH89H8bzZ8NaswNU5H4fQkh5FFwQQpRHGINj4y2xOPpz+EevQvfAU3ALzYQqF3Q8y2yHD8dNxWQzbbxXZbpscebO/ZpwjnXBIp3Kgz0rK0JmXCD+POOLKGFbdG4jDg5U34feyI9gNag72lR6O3nehxBShoILQojSsMeumKI5D/4rPPHgh7GQeSRDQQgchlpgbdZGBMdsxLC6WsZcWe9DSBNFHYmEECURICMuDP7QgJmxllxLkLPkaASG8aFmYwydOrzgK+t9CGmqKLgghChJFiL/DkIGdGHav4sc2TJrH5xIR1nvQ0jTRcEFIUQ5BMmI9IupOr9FjWobnEhLWe9DSNNFwQUhRAmEyIu4jrOilN5dOqGjPF0NwlTE33zydnBSFA/35QcQkC0s/V4RlPU+hDRhFFwQQuqUIO4YxrfvAbNNQVCfNw/zjG5gjX4HqOhsgm+GQPxbUshMQPjtFGCIHvqU5J0QID3AFT+2Gwh9ReahUNb7ENKE0ZFCCKlT7+gswl85yQi5dAK///4793UGfg9ywOJ2w1Kt8soiVWr5Ljp8wAM6tkMbFYbilKuwP9oWu1ePRidF9l0o630IacJoKiohpJEoQIrvQdjZnYFgiDryhBbYfmApzMon21IIZb0PIU0XBReEEEIIUSjqFiGEEEKIQlFwQQghhBCFouCCEEIIIQpFwQUhhBBCFAj4f/s2ARsyMbQrAAAAAElFTkSuQmCC;" vertex="1" parent="WIyWlLk6GJQsqaUBKTNV-1">
          <mxGeometry x="345" y="780" width="264.85" height="50" as="geometry" />
        </mxCell>
        <mxCell id="a27hsYVGrG07yMlYosN4-36" value="&lt;span style=&quot;color: rgb(0, 0, 0); font-family: Helvetica; font-size: 12px; font-style: normal; font-variant-ligatures: normal; font-variant-caps: normal; font-weight: 400; letter-spacing: normal; orphans: 2; text-align: center; text-indent: 0px; text-transform: none; widows: 2; word-spacing: 0px; -webkit-text-stroke-width: 0px; background-color: rgb(255, 255, 255); text-decoration-thickness: initial; text-decoration-style: initial; text-decoration-color: initial; float: none; display: inline !important;&quot;&gt;Rate for next period of time&amp;nbsp;&lt;br&gt;(equation 6)&lt;/span&gt;" style="text;whiteSpace=wrap;html=1;" vertex="1" parent="WIyWlLk6GJQsqaUBKTNV-1">
          <mxGeometry x="345" y="755.5" width="205" height="20" as="geometry" />
        </mxCell>
        <mxCell id="a27hsYVGrG07yMlYosN4-37" value="" style="shape=image;verticalLabelPosition=bottom;labelBackgroundColor=default;verticalAlign=top;aspect=fixed;imageAspect=0;image=data:image/png,iVBORw0KGgoAAAANSUhEUgAAAckAAABsCAYAAAABmUmYAAAAAXNSR0IArs4c6QAAAARnQU1BAACxjwv8YQUAAAAJcEhZcwAADsMAAA7DAcdvqGQAADZZSURBVHhe7d0JXJTF/wfwz3of64F5QeLF4YWSIiaGJJpXonjkLSqWf48yrbyyPCq1FDqkX16FJZriAWpgoQkoHniAggIKAgooKCgILMi53//z7D7girvL7rIg2Lx7Pbk8uyzPMc98Z+aZmUdEHDAMwzAM84Jawr8MwzAMw5TBgiTDMAzDqMCCJMMwDMOowIIkwzAMw6jAgiTDMAzDqFBJQbIIaUEbMbhJH7zvfRdSYa1OcsOwfWw3NBn2M8JzWUdcRkGNThuE3PAdGGvaCcPcriJXWMswTPVSSUGyGNkJN3EF7dGtfVOIhLW6oMwkXI/KQTcLE7RuWJFvYl41NTttFCEzKRpRD9vDwrw1GgprGYapXtg4SYZhGIZRgd2TZBiGYRgV9BokSRKBA59Og+MMB/QbsASeMRLhHe3w33Nw5XQ4TJoAe/O3sWDPdUhYfZfh1Oy0UQxJ1CGsnDQWkybZw7zfx9gTmQmWtBmmGuObW/VCmkpBa2bTCr9EKiwMIRcTkMFiP3osvK2xp5HkMecj2n7jCUkpm0JcBhHEM8gjLk/4wKtCSoXpV8nj6/0UmS8V1jFqaZU2CinVfyu5+idxr6oDKT2N3ktznH+jG9lF3ObJrxHxWA+KKxY+wtRshY8ozONH2hspEVZUZ9Xt+qi+9FSTJBTe9MbGpNH4eJgxasWH4984oEH9uqgjfEIzuYjZ5wrvtxZgjkUziFCA3Kx8QPIIGdlFwmdeDZRxHps//AutPxiH7vVYh6TyaZs26qCV/TQMv70ZS7zvoNJSD2Ui6ug+BCRx26JO4U3sW+GPt1ZOhYW4NpCfi6wCbvMTMpDNqpJVh7JwJ2AHlgzuBlP79+Dk8BYGOP+MoJRyzl956BGCN38Bz9YTMLl7Y2FldVZF18crQE9BUgrJ42LYzbCBoUiCG37eOAlbfOBgiabCJzQivY8r13ph+bguqMv/XJyMyMBbgGFvWHR6hfr/Fd7GwaXuqPfpIgwzrC+sVI/STuFzh58RXiysqHG4NBJ+GK5rlsB51nQ49DWCqP06nM3RMELokjZEzWDx/icYfGodNgc/qoRmTULudQ8scfoGB8MfC+uUkyaF41q/ORhn1kj2c3FCJAKTuM0faoFOXMys2fKRFv4Xtq/7AivXfwtXlw1Ys/IruB28iKS8Cg0A0y+uQBP5+1IMH7IbmH8UYadcMa7NUwT/8THGfv0vUnVOILmIP7gem+s543OukqBdxeAlqvTro3JJ4/dgXBMRRCJ+MUJf+7dgKnst/3nAhvPIEj77guIIbB/YAqImfeHgNAuzZnHLJHuYNhmH7ZFlBmQJNUr9yblMLjYGBIuNFJxTsWZEaaInTeZzosmelPjKtEhmU8S2GTTM5SJlarRPUipMvUjbZ/cmmLhQSI1tG+H2Iy2GQkIuUeC2OWTInVfxbC9K1vG8apM2pA//oU9sV5LfQz0fvIJIcnfsyOUtHWmy5x1uDzVVQImezjr8XjUkfUIR7nOpq/3X5JcgebYvfNOjbP03dCq5km+VSNPowoZRJIaYzGb/QRF8c/YLpFQQ7U6OYpCBsxfd5ze06AZts+XyKj4t6tzsLaWnETvIcdiPdCVT2d8tq4gywn6neda9acyWy1xuUMkK7pDf2vFkZv0Z/ZWg/DxU2vVRVQpjyXN2V9l5hOFH5Bn7RMMm5AJ6HLSRbGBMg5bspuD4x/RUycWo5yAppZzgjWTBJVaL9RcoR1irm2LK9P+cy0wNyHbbDS5pvQqEC9XiS/J/XN4eFVJ28i26cNiFZlsbyhNAjQ6SJUrOqyENc7/J/aQLbdNGDkW7TyeLFafosd4i0lNK8JxHBvx54RYTlxAt7u2kkf9yK+73HGlbZMWukperkB76raCu4mnkHq1kP6QPyX/FABKP2UERynIffXnsR4sN5OcBsKHVQcp6QuRQ5DZH7n0TmumVKKzjCm7JIeR75F8KS9UxkMsKSkNphf9D7ts0cZ985skzdJ36bGipMMSFTGTHZRRtCVMVkivj+qhKEgrbMkJ+/rXKI/l49S3ZLfGh+4Wqd1zPQ0Ae4+IRL0Tgbcx16IlGlIKAb7fibIYubYR5uBcThRR0hX0PI9T4FikepeHsrj3I/XAyBrZQvUdFoa5ctb8/pqzcBr/UDnBaNA0dhfdqPgluXw3hzqsJ7Lob6tjer23aaASzsU54Z9+vOBilW4/rsij1NNzOtsUnE+RnJjctU/NZc4ofIOZCPGD8Bnp0qMG3EXKvweOrnXg4YyochGbk54hawXbqFPT660d8/3eSLIpVCgMrTFk1kUtRYpiMmYR3LZoJbyh6jFvBEdy/xujZgSvayIhQx9AKo8a+A8tWmt32eF4x0s/uh0vuBMwc2ErDSVNao//cr+C2/RgCvxiEFsLaylKnxzj8sv0XuJ/4AXN6iYW1Zen/+qha9dG6XQf5y7hYJKRpeIc17wY8dtbC+jUjYVRH9dnTb5DMuo4Te0KBYeMxoqcYlBKMP0Ob4PVmCtkYZSLmpCf+PBmjvus+JSPU7yogtsQbplrd2aymCIW3feG2sx2chpnJ76upUMdqKWKzQ+C7+yd8tWAiF0zavhqFBF5xIq4cC+EytjfR11zVRVsOHdKGqMWbmDwvFVv2XEJ6RXNrrrBzbuspdP94Jvq1k2fIKQ+eIEf2qnyUeA1+5zIgHtILpo0q0mlLghjfP7AnIAZPiiotBKkgRVbo33APbgBra1O0VLobItTr1AO2hrdw6HAwkiprE0Ut0X/pQcRSNmKPLUF/gyq6WgqjcdTNB12dBqNrXU3PYx20tJqERfPG6BiYtdTABMPnLcScYeYQq9lEvV4fKhGKHt1GaGiokiUMMY907TxVGy2M2gsViQTcS9Xke3IRd2gvEmfMhm056UW/QbKoEPl5gMlQS3QWcRnJDl+0WzwCnUr/CiH/6q+YNHwqZgx/H5vPqenskJ2IiMtJwABrWLSpMbfC1chBlJ83jtkNg22nKrg4qqmSAAE7S5jrmpnplDaaoaedHXJ2+uCCpiVNpYq54OAJj9emYYp5a7RsJ9RKbtxDqkYNJlJk37mJyzDEgIHd0aYiMZIrajVpmo2Ale+g79jPsSsgCo+qrKOMBLcvncctrhbStnlj1RlJo2ZoxVUyJT6nEfLgVepDSSiI8of7MQuMt22v54z0ZdDX9VEGSZB40QuuC4bDVFQLdVuZo2/fvkqWgXB0u6S6o41aItRt0RbmstdpuP/4qeyValyFJe4ovgsfjCX2rcttAdDvuW3xFhZuXYwWO5diytj52G+6BMtsFZshuJKlUXcMtjbkXofB99o9LstRhgumt6/iRArQ0a47OtT8FAgUxOLMgeuwHdEb7SuUMdZkxciICUcQDCpwHHRNGyI0trTD1AZ/w+tcMvctOsqLxL6tTzFzhiUXHuqiRZvX5eszJHiqUW1OH83NJerD0G4Rfr8Qhr8/NUf0DxPQyW4uXL1DkVLZwZJSEXXuFvdCsflSidqvwbgvV8aXhCMsVrcssHrKwc0zJ3DB1hZW7V+FQq+ero9SXK0x5Ty2LxiJHjZf4nSDkfjqn7MIS8yGVN4XpsySjZtf22k3GkJBrZavo5ssGaYi+v4T9dtfFA/vH2/jveXvoLUGeZCew48Y5lN+wuWYQBw+5oWtTr1eqOKLDN/FD5fvIy94NdqL66uI4gVIjgpDOCzh2LcTlxXUfNK7V3H8QgeMeMP41Wk61VomIs9fQEaF7jNXIG00aQ+Lfnk4FnST2wZd8E00HoidPENooqmNBo2FJuO7iUhO16AqWRJcKtLcXFadFjAfPAebjl5A+JZ3AZ+P0cN2BlbvCkDMk0LhQ3pWnImHEVxtvjyi2qhbnz9WqUhI07RBWhvFkCRFyJrsQs6ewNGj53AnTyGLTPHGLNmQgPaY4BHHrTiNZX2bcD8LQwVMXRGqS8VJeg+hx6+i44g3YPKqXNAVvj5K8AHyFL6ZPgM/PHHE4bhL8PlxCaaPsIWlsVhFnl9BTVuinewGbxIiHmaqqHzx8pD4125cGjwTQ1pr1gqlcZCkvPsIPboDGzd8C1dXV27ZAretW7HreAQytL4fwmU2YUmw7t5W+QbQI0ReCOcykgGw61nZt7arQjEex4ThAsxg+rqSDg7/FQWJuObPBQjZvcQGeMIVpva4cenI7Xu4rFmCOUs240DoQ/UDmyuSNkStYGbdARlB0UjSoS8Zpfjjp+A38fEQQ+FCr4NWHUy5OiFPgpy88r+U0m7hQlASDMYOQE993zurY4DONhOwdNe/iNzxHppd2YR3+07Eil0ncT0lVw+1AwVZj3AvXXitkXTEp6rLvHRTHP4L7Nr3lDXZWduNwLhxe3FNsaOg4XjsltVUEuE1kz9TJpjplfisBhO7FFa63M15HIvLF+rjTdO2qCesUi0fKRc94ebqgvVL5mLhz2eQUmn3kPORFuqFn/k8ev0ncF74I3xjNJz6sILXRwnKuoyfZv0fDlr+jNN7P8PwzhV7EpRG6rRG57fkV2LcjQSkyV6VxQXvRD/8dK4PlozpqPl4Vi6hqCeVUIK/G80eOpfczsRRdmlX2SLKjvYll9lDabxHjBZd+aVUeN+HPv3gT4ot4L9LPl3XbDMD6rr6DGVSHiX7fUnW6E3OnjFUIP8l3UmfUkZKMiUn62NJobRsXcZgCFOoddxAwXna97Eu7cZdw4eAFEe70zB+P4ZuoP27v6WNXjcovTQ9CUMqnhtOoO+0UTI+cR55JWt5IPnhDCsXvzDUoShsC/Xm9wmDyCWkbBf7bIr2mEdmsKXVQY+4E5lIfiu4dGC2gDzjqmLoRwFlRPuT+3JHMhEPoNkuXhSSnKPhUIVyJHvRTJX7rSiRuODE59FaDpPRRh499FtFFrLtUXVuS7ZDcQiI7uTXpC2tD34irFGliDKv7KTPfw+nbP7Ay46bBc33uaef8/Ac7vrw/5XcfGPkf4ueUPB6W4KNK4VoNGa9AtdHqUwK2zKWxDabKFijcaP68piCVtvI0hlst1Gksj8tvU9+n31GHrHaXXvqa5KyGSo+wTvvXUb/H1zwkV1niEu6yuZexpYJU7DsjxCk5uTzqVMzudewbXUE3v16AkyEHmF1mrSFWbc2uPf3Zix0GAxHd2B+sC92TlbfC1QT0juH4GxmBCMjfSxmGLj5gg43lzOQcCOJq/2I0VBNV+NXWxEeRlzhatOc4HO41XE2Vo63gEHp8WgAI1NTtJAE4sC5xNIHdes3bdSSNY+KEY345DxhnSaKkXVpD3YZzsQU8+dbAmq3boeeslcZuPeobHNiXTR5vTO6mSTg700L4DBgGtzrOiP4zI+Y3LkqWhTqorn5YMzZdAgh4a5wwHEsMLfC6BW7EBCT/gpNRVYfrXtZoY/wU+UrQlpCLOK4lNSkYTn1kdyr+HW/AebP6Cm79VSckYp4RODfWw/0XKsm5EVytdW7Npg7yky4zcU3dXPbF3wK529rMkBJ1+vjGUoPxh/fJeCDtTPxZtOqbIduhDYd28lfxiXiQU7Ze/JFSD25E4ct/w9TTLS79tQESS4hBP4A5/cPo+Wqj+Ekmy9TQV0DtO9pApMxK/GVo5nm95ca9cEi95UYUjodGz9WaQhWHbuJ7BBf7PU9j8sHv8Gc/kZ6md6pVmcnHMkuuTlc0UXHm8uUj5zMAqBnO7R+Ve5faO0Jbl66Agk6YozLd1hp17ZMEwwhP1eCAuQht6BIKHTpO23UhoFhe7RBPrJyufOhKb6zzs5izHPiO+uU0bg52vL90Lg9y8gp+531YTh4OY7FJiLE9yB8L5/FwW9mor+GUxHqDxcsO9tgwtJfERSzFx+0i8AP776NsZ/8jKOh96F4C4/RRDHycvjxhB3QrrW6cylF1sUzkIy1R3tZYTAH0UH/4hysMKFPB73kb6UoCX//WYgp07pzxU0BPUDUOf4+7GswaKrJX9Px+iglRXbYGRzACIy2Kb/XqH7VhUHrtlyA56Q8QFrm80UQSj+DH/d0xLIp2heuVQZJ/ku///AHXBGPw+JJSjKHul3htC8MsceWY3CVX/Q1jKadHCrVsw4OFV2uJ0k0bzkokX8XV09Ec7VpR8wdr3Ahl8rH/dtRSEJ7WHVqpXmhSyfadCIp21mnDGGIA1d8xfn41GpeO+NqCoZWGLvoexwN8cKnPe/jt8k2sJvjiqOR6dqd0zr10FCrfkcGMFTZUa+mKUT6w/vCa3UK8LjYEhOthHvnBbdxak8gYDEB4/q/Jl+nJ3QvCg/eHoFeDRSOcEYcQoO4fEfrHri6drISJvno2hi5MdeU5h2ql4qMk+SVBHjeHSQpjpXkxzW7HUeHz9+DeXnjWflx/Mf3YN/F5GfXMldDUiKfEjznEHcNkHiqJyXov/H8v0V4LBJmelGysEoberknWRxDHmP5eUZleWGFFl3muSy5H6lyvlZpPHlONSGI51fgfkj55MdS8/tS0uS/aIGZWOlxKLsYrw6imvCQJDn+fuVp2r18BInF1jR56xXt5hEtSdMa35PUz71AlUrvkVbFPUmhj4FW9+5Kpuw0oAFbrnE5bGWTkiRoLRlrOUWottfH80qOy/PXhWaLWOh3UAGlaUBx+4soPWgTOW8Lp6fCGnVK8inD5f6l26KiJvkI1wMvQAJjDBlpBeNXo/j331bLDE5H7pRpPtZtyT7ihM7q72aXkY+ESwE4qWYAPSVdxjGfOIhHD0LftnptiNIdpSLw57Ow+eeh0uMgX+7DZ15X2ceTEtJ0HAxdlQrxJCYAu1ZMRF+rVQhsNRenY05j/4K+8qYqTdVuhjYWxtwLZfdiFRRnIjWe7wbbGh1a1YRHSFWWdIT+/TcixKMw36GbBj1iK+opEiLDkIQueNfG7MWWwEpRB01atAIcPRAvVXatqFsqNk5SpmkrdOCTpEJPasoKwS6Phlg4rYeS1quy8hB7zo/Lp6zgNLxX6bYoz+qKUnDrFD9QuAOszTSdk1BRMSQxfti172IldnXWEOXhyYMUpKToY3mARxIdGtRKuifnF+JlH46X4wliQvl5M/thXH9ls5MUIiXkDPwkXTHxPZtyCmUVSVuE4sIC7hvKGQAvw3fW+RN/tp+BiWpv9DeFoWlb+cv4VJQ7TbGy5pyqQLlICfWGq/MgGL/rhuguC+Ed8y92LR0PK8NG2l/johbo2IvvKKHsXqwCyockhR911xlm7V6VINkARp27cP8WoFDDNEipwdj3v3NcIdABb1fFjFvSRFw8cpmroFnjzW7NhZXl0eb6UKY+XjfrDuOgUETqc9YeTTUwgJFsuzOQkJyBPOIKJr8e4ir802GlSSciuodLf10EDGwx0OLZMVMeJEV1UK8pX67sgW4ddEjY0ts4uGgO3l/6F27mvtyoUD16t9ZDYwPueIYkaTh12SsmJwbnvcNVT+jNJc6zh08iw2A4xtsayTNsrhZ38fg1LryWUaG0VYz05ETcRTOIG5ZTFeY76/wKzC23BCqUnnkpEjwtZ5Okt72wyGEmlh65pfmE6BVRlI6YAA+snz0UPRb4IM9+PUJDDmHTnGHopUtwLNUcloMGwRAPceNeOndklaOUWITwfUeGDcabHV6Vvgsi1G8shkHZe18qFSAp8Aj2ZlhgxjRboRDIFQzPnkDok8rJEOhhFM5eSNFy6kYtrg+l+Fl7BmN2G39462XWHi3VboF2PeR3JZNi7uF+pDe2Zo/GHKsWatJ5Oi66fSR7nqTT6ClYeCwJ4s6xOLDsfW7d/2HdiXsqgmTttuhiJx+YqR4/s0Igth6M4pLBM9LYCzhwMgWGTu+gb1NdDrb+VIverRCjbWdDIDcdmbnV6CG0VaTkAcMG423Qo/GLyVV6OxC79sfBcO4Y2AmzYPCT4/vcr4uyRbSKpa0iZD9J505He7RTO7m00Fln0mQNurFzQbK50DGj3CcQKG/OqQyUl4qogF1YMfYtWK08gwaObogMcseXM+1h3ryiA6t4tdC0/zh8alMX1wKuI1FpjihF9m1+GsKucJ73DsxeblagR7XRrC0/oXY20jI1GCohTcAZzwBIDEdi7AChV7c0Dv94PYbBC+lLirwnqbq1WJXijvvNEJyQGMB2XD+YaHzcNb0+1GjaFzOW9cKh7zxwTqenP1WEQqtO0K/49Lt0OC+2hYHakmAL9P/4f9i9+3f88ukwNOFvCS105X7ezS07sW54OxVBEi1hPWY0l7Svq5lvkTuZiSfh4nITve3NFdrYS+4/WcBxYBfujzJAQ3Sy6A1DrlR994EuXatrsnwkhp7DOZhghI05V/ouix8/eZlLL5aYNLiHEDgycXV/BKwcupTprl3RtCXBveh4rnT9BsxfUxX8iiGJ2Icv9plhzuCSmXXUUXwCQTnNbyqac/RJNjOWtyvm2PXFmB9i0OXTY0i68BuWjreCYQM9R6lGvTFz7f+h67G92H9JSe/Yojv4Z88RZI/5BJ+9a/zCsaSMc9g4uD1ETQZioVcsV7eqOWp3ssBQw2SE3X3E5YTleByN86fuwmDSEFjLHpFXjKzLp3F/5CCFhz/wipAW9B3eNW6DVn0+xoF4XdsaSuYH1nb6R02uj/I0gtmkT7HR8A+8/+leREqqMlDWR2vjTvKXKfmwmFP+Ez6eUT2nsoqrhrvw7T/EjrXN8dsv3oh4bke54PgoCgG7XPHt8VqY/PU82LSqhayLv2AOV2Wd5TQBExf+yZVG6iPpwCrM5tY5rzuBlCqve1cntdDE1BKDxDG4fidTWKehokzERcVANgNYbgJiEzKr9l5WRdFDrqZxmXvRB+/0VhZ0auM1kx4YwIXPdi35emM+UoP2wtt4EkYb8SGSH2ump7QlfYS7YamwsOuGdkpSvqz25b8VH47/BAfyJcjSoDRPeQ9xI+wmF9Z5Ebga9ajM+Sm/Oafilwah6EkMAjzWY7bd21jgAzhsCUTI0W+5QG+O5pU2gUUdtB72OQ67d8CeVW44Hp/1bF+KHiLE/TusS5iOo9tnoYfi0ASZYjw6fxDf8k0MknPYtmgXzmbp2srCpZmbkbgte52C+OTsMseUOz6pMQi/zV9F6bgdHoPUinYOaNIJfQY1wpXrCS/eEiirWTt072WAFu1acoVAeevbL35GmFU6vWGJPCRe/heB/BDM257438l4lc3YapU8js5wEAZZalEYK+f60JRI3AcLtm/D1IR1cJy+Hkc1nRavwrgafqu2XF1QjK6frManGjzho5SaOZVFxLcjqsLfzwjyxeHAaEgbNkeDevI/Wa9Fd7zFlYL6KLunkRWAFV2HYHNPd0T/MwfmFTjYrxTpLewaORjr3jyAm18PfKEZ8Tn8pMxGs3B+0HC81V7ZJ3OQeP4ETr+1G8m7x3OJohqT3oXPx3PwrfRD7N0yHp2VjVOiTEQd+gkuAXnobtoaTbuNxPR3u774/LsKpi26swfjOu+CdfARfNFfIfOgu/B+fywmBBlg4lvtuXo/t9mPI3H0eCps3U/Cd07XF0rjlOKDhQOnYfvDLhg1tgdeE7ZF/nuhqOvshQj38TAq3Qcu2Ad8ia5D/kBP9wD8w31nxS8NLsPlC6x/7YHbxmPIHfoBPvpgCt7t8zpeiEmVKh9p4f7wOR6MGGkjtKzP7WtKNuq/MQLTxg9EJ7Gy0jyhMP4g5o34AL/f5qPCCGwJO4yPLdVeGWUUcZfKRzCasEP4WdEguIT4YKnRSe5amgAPYe3z+HlcA7F7vKxLpJbyELNrJrqs646gm2sxUMlthGeKIYk6gs0u/ijoboKWTXtgzPRhMH/huBDyYg7h8/k/IbxLf5g2eRtfbXbU+vqWp/OZ8J/txW0jlz9omBZUXh864dJmWij2b1yFhT/dhfX8uXB2tEGvHm+gV2VNcs6Rxu/BRKdYLDyyWuMJzGXST2CJKZcG7TwQf8QJnRQ3kA+S+iOlvBAXsuS+tuP6YMoT1jI8YeypxvMoMs+raNoqpIc+i8nAYiMFv5Tjn0khLkO5AqmtBvN9auoRBa0eRaOWu5N/9ONKmhe1MkmpMC2GQsIjyX/zzHLGW1Y/0gRPmioewW23vs6nokTycvHRYVx1ET32+4wMYEjD3G9qMad2ZV0feZQadpTclk8mK7GsQqli0cM4SZ09G1Nq6XLlhbxFz/W8V+8RV/pTD8b24zDjli/8rmvZ5MpwKpi2KAmB+/zR98PRsGpUpdUsucp4RBZew8CvfeG7aQ4Gm7fQ7zRnVUKEOi3NYNWrOXLjmsJY7RRv1Y/I2BbTZqRgt1+U/nsq5ycjqbExWgs/ai4DYQGnuf/3wSgrlZ1OXlRp10d9tLJ0xKJNngjJloIrFCEkJETJchbHPn6zUjuzqVYy21cXDO/TUchbchF/YA02nn2shxaf55SMh7OAlXnldEyoyUStB+GjjYbwPBqKdL78xGihImmLUHg7EPtvjMXKSd20nrtRL0qmCLOzhLm+H5FVw1H6Dfjf643er7+UM6M7kRHe+WghOnv+jYuaPEtUY/yT82NR1OV1NZ1u+HubF/Gn23YcjXp2z4/Sw3Hyr2iIHcdjRHdNm66r6voQCkVWVkqWN2De8mUVkjJx53oM929XWHSSdwfkJ2rf+T+gf4/meg6SJePhLN9Ad6PKn1Oi5hGj++R5GB/0B45qNCs/U6oiaYvScHbXITRa7oSBst6FVY2QExkM7wwxLG27KdynZPgS++2jh5HmNAimei6yVz4RGnQfh6Xjr8HtaLT+eufy6fWvPAxSN78r3YXXZzMwY/ECOLmdxSPZSgmiDv6KX+6NxMavxsOsvHlKS7z06+Nlq4NGTfngKEbjBtz+FyXhpMsBNNiwEPbc8dBrspTev41LXGHZcHgfmNXnT5D85vyijWdrwHRdVUNkYIsl3/fCge98kfjfnH5HJ7qnLX7mnN3YlDob63V4AoB+qG/O+e8i5EUfxLpDvbBsdCd9N2tVDVEr2C5ZiX4HtsE7UbfHSz2PS6+hvgjpMxJ91DV78k8WepwLsfWH2LJgAFpSDhJP/IhFW+pg7fEfscCyuYadY6rD9fGytYDNgnXYMOYyNs6dBodha3Bj5Fp8KTypSI/pshhP7kThCozRz6K9fAwbX0LZeRiN+7Pxks/UhkH//8MPtpfx3f6b0Mdl9erTPW1RWiC+cyvE8g1jlfesrRLqm3P+swpu4I9VoRi5xRmWL+M+sZ6IDGzw8Q/WOPOdN2Iq+tyxjGDsPmsK56HCzFOq1DLDpJ9/w8axryP939+wYeUabIvphR+D3LHU7nWN709Xj+vjZSt5JN9V+SPtAn5//hgKHXj0oJgyg9ZR19IZ2PmnyK+jqWsDKZV15nxRYRKdWvsRrT2VVAN7JVY13dKWNDucfv9kFXlEPKGXmwT5Xqi2XO4pPDWiMJH8Vs6ltWdSXvJ2MfrDpclT35Lz2pOUXFgzzmr1uT6qN/XjJLVVdA8Bm5dgvnce+rUthnTQCny/5G0Y/mefxl8OfrJrv3CIhgyEmTAGlVFB67RVhEehZxBrZPsSHnJcFt/JIgCb5y+Dd7Ep2uY2xqB167FEixI/UxPwk++fxRWRNezNtBnv+TJUp+ujetNvkGQYhmGYV0iNvFfOMAzDMFWBBUmGYRiGUYEFSYZhGIZRgQVJhmEYhlGBBUmGYRiGUYEFSYZhGIZRgQVJhmEYhlGBBUmGYRiGUYEFSYZhGIZRgQVJhmEYhlGBBUmGYRiGUYEFSYZhGIZRgQVJhmEYhlGBBUmGYRiGUYEFSYZhGIZRgQVJhmEYhlGBBUmGYRiGUaGSgmQR0oI2YnCTPnjf+y6kwlqd5IZh+9huaDLsZ4TnkrCSYRiGYSpfJQXJYmQn3MQVtEe39k0hEtbqgjKTcD0qB90sTNC6YUW+iWEYhmG0IyKO8JphGIZhGAXsniTDMAzDqKDXIEmSCBz4dBocZzig34Al8IyRCO9oh/+egyunw2HSBNibv40Fe65Dwuq7DMMwTBXTX5CkNJxz+R7Xhm+C1x9fYVLqFizceh7pwtsay4vC3sU7kDFjK3wO7obr/9XC9oUuOHInX/gAwzAMw1QNPQVJQuFNb2xMGo2PhxmjVnw4/o0DGtSvizrCJzSTi5h9rvB+awHmWDSDCAXIzeKCo+QRMrKLhM8wDMMwTNXQU5CUQvK4GHYzbGAokuCGnzdOwhYfOFiiqfAJjUjv48q1Xlg+rgvq8j8XJyMy8BZg2BsWnRrKPsK8TGk467oATg590UQkgohfZnkjRXiXYRjmVaP/3q25V+D6znAsy16G4Esr0b+R7sM2KOkAprafggOTPZG4fzKMa/QIEEJRWjh8vY4j9G4RGrZsCMp6goKWfTBy3Ei8ady4QkNlqkYO7pwNwNW7MTi1awu2n04CZnohefd4GAqfYBiGeZXouXcrIff6KewOLoTFlEHoVYEAyddOs2+HIwgGsB3UA0Y1OkAWQxLpgbl2X+Jap+n44tu1WLV0Ob74+isseTsLO4ZNxjr/e6j+DcqN0WngaExw+gjL59gJ6/6D6BGCNzpwtekmMHfejUhJsfAGwzCvGj0Hyce4eMQLEXgbcx16ohGlIODbrTiboUsmkod7MVFIQVfY9zBCbWFtTUSp/2LNe98gY9lmfDm8IxqUBvy6MLCche9/6Y2DY5fit0jdegPrTVEoXE3nwzulvHBdGw0ai4XX/0EZoTjgehwS7r/bf+zAgWuZwhsMw7xq9Bsks67jxJ5QYNh4jOgpBqUE48/QJni9mUKIo0zEnPTEnydj1A/roGSE+l0FxJZ4w1SrO5vVTCauemzBjw8d8IGDufxe63Nqo4XtBCzodRKrvj+J5Jc51CXrEe5p3R35P8jAClNWTYQJxDAZMwnvWjQT3mAY5lWj3yBZVIj8PMBkqCU6i9Jwbocv2i0egU6lf4WQf/VXTBo+FTOGv4/N5x4L65XITkTE5SRggDUs2mjXR7ZayQrHMfdzgHUvmLdUsR/12sHCtjMyDh3H2aQCYWVV487NnRs4nSH8yKgmaon+Sw8ilrIRe2wJ+hvU5HYOhmHU0W+QbPEWFm5djBY7l2LK2PnYb7oEy2xbKXRIEaGeUXcMtua7eYTB99o9KG+I5TLs21dxIgXoaNcdHfTcKFx1+P24jL9uSYC2zdFE5X40QLNWTQDJWfiFPOB+62XIQkSgP8KFnxiGYRi935MUw3zKT7gcE4jDx7yw1akXxGU63IgM38UPl+8jL3g12ovrq+jRWYDkqDAuw7aEY99OqC+srXlK9oOrXffsgFbylUrUR2vjTty/t+EfloBc+coqRCiM88X3G/2EnxmGYRjeS6qj5SIuLAnW3dsq3wB6hMgLXGgxGAC7ni2ElTVRIdIf3hdeqyNCnbr1ZK+SEtK4Op2u+GEmYfB2XYjBpt1gP8kJTg79YG7vjDW7TuOOsl6YRWmIOrENi6Yuw35ZU+sOTDCqKx8DKVtMMcs7SfZR1fKRctEDq6c4wtHJCZPszdGk7zSs+TMEaUXq6sXFkNw5jV2rp6GvuT0mzXoP9tx2D17wI3xjMp+rURfHHMCiSfYwLd0uvoNRPiQxx7BhmiMc3u2LJqbvYWPATQS72itsv8IyyxtJoa4K36GwmLoiVNZfKQnes0zLvK94DLhtTopAaGgoQs6ewNGj53An78V9JMktHP95BSb1ewsOTrMwi98384Fwdv0TXlveh71buJJWFM2PB8MwVYQfJ6kJ6dN7FHJkO21Yv5FcXFy45Sfa8ssv5O57g9ILpcKnNCGlwvs+9OkHf1JsAf97UnoavZdmmxlQ19VnKJPyKNnvS7JGb3L2jKEC+S/VUA/Ib7Eln7eRiUsIFQprX1RIyV7zZJ+D7TaKLBJWa4U7bmd+pMlmVjRzyymKzy75Eu54p16k7bN7k9h6EXlEPOHWCIqiyfOj2TRz5kyaMcqKxPzfhxkNmjhDtk6+zCeXoFThF0oobO9MdzrlsZimrv+b4kr+pjSVgtbYc+8b09AtoZQjX1sGt72nviF7sTHZr/Z59ruFSXRqzUgSi0fSmlNJpcdMmhZGx70O0e7108hMtp0f0O5T7jTHeStdTn1AwesHybfH4DPye1xE0uxoOrJcWIcJ5BamsN/c337o/zXZyN4bRRuCkp8/N4UPKWzvp1waBInt15JPXGbp7xaFbaHest8rWeaRV/LzZ1aafpY22PemiS5BlKx4bUifULTXKm6flaUH7Y4HwzBVo/wgKZVQgr8bzR46l9zOxFF26UVfRNnRvuQyeyiN94ihYmFtuXJCyW3Ot3QqOU9YwWXiyadow5iuJLYaRdNHDSDriV+Se/B9/WQI0qeUkZJMycn6WFIoLVubrUokr5kmssxU4yBp4kIhWu94EaVf2MxlsGLq+sk/9FAhXy4hzQ4htzEdCWYLyDPuxbBVGOJCJioy/RcpbG9HE+rqfIASnisoSSmP+z5L/n3Dz8k/s2zqKKLMKz/SUC5YiMfsoIinZTY45zK52Bhw2/oJ+SSXKSblBdP6jvx2diUr69nkHs3vi4Qitk2QB3nrbyk4W/73iqPdaZhsn0bRlrBs2bpS0njynMqfGyta7p8mrFTw2I8WG04Tvr8sLsj6rSILpccrj+I8ZpDYeC0FSZSdiEdcAcKuTHqowPFgGKZSqQ+SXMk3wn0umRnMoO03FEvinJwLtN5CzGUSBmS77QZ3mVdPxXEeNJbLfJ6V/CuycEFIVtvVVNUESWn6aVpjzWWiyoJBqUJ66LOYDLi/YTC7bFCrQJDEIFofnCGsV5DsRTNl7zvStsgygYYrKG0Zasy915WcvRKeT1cymRTiMpR734AGbLlG+cJamcIQcjHhv5cLKFM9KaHkl/na38kACkstKXxxim+S+zBD5d9DjylotY3sewyX+5c5p1LKD3Mju/k+SgscMqX7V/Z4CefccJmsRvuiYsr0/5wsFNNDRY4HwzCVSs09ySKkBf4A5/cPo+Wqj+Ekm3BcQV0DtO9pApMxK/GVo1m1Hexfq7MTjmTLCgN6WLJx82s77eajrXSFSAk8gJ+vZADGfdHbtLGwvqw6aGVlB0euupXxx+84GK77nc/nGL8Nu57qxglmQvJUKrzmFSE1wAPr/uXv8VnBvncbJZ23GqNTz14wQAYuHLqIWKVdoA3whl0PvF7yy3Vaw3KoPSxbKXTzqtUZ78wZCTH/PQfO4mYBHxMFudEIOnJD9jJlzymEZCluYw5unrmI7qN6o5XynmVqNETzts25L92L1at2IuBOliyiP1MLYlN7fNirlXA/Xl/Hg2GYyqAySFL6GXz/4Q+4Ih6HxZMs0UhYX6puVzjtC0PsseUYbFhz+59Wrtqo1/DF6QPUMhSjoVYZczpuBF3gsk/OgG7oqGYqQFGrDujRhn91CceuJKkYfqOlli3Q9NkUQhp4goiz5+Tb27E7zIzkHZaeVxtNW7aFrMvWuTDcSlU2A1Ab9GjXopzCWT0Y2wzDaH5yoAsncOZmjnw1F7Zyr5+Gl81KbJrM1Z9TTuJEiMIsCrk38e+hNhjVT1nAKk8L9Js4HfbiFFzZsRBDOjdDLS4oTlmyFlt2eSMwKg3S9kMxf1h74eLT1/FgGKYyqAiSBUj6dx9+uSWBePQw2Bgru3CZ8jWFoWlb4bWGOreGVmPTix8gOihO/pp/NJlGuXoGwsLuav+sT2V6tkNrbbZX+gh3w5Llrx95Y/0HszFrFt/78/nl/U3H5Z8R10M9pTvVFqaG5dfpRcb94DiaC4S4gANnYrmUzUtH6N+X8faEWZg9w4GroYViz4nrQq9i+fzD+ywGo18rXSax4GqKfRfiz+NumC0bD8yJO40DW77GkvcnYHAPO0zY6I+Ukl6/ejseDMNUBhVB8hGuB16ABMYYMtKqhj9942WqixZtXpe9Sr/3SM3QjgJkpD6QvTLu0Eq75lwqQkGW9nO+Sp4WvJwJ1aU5SI8THq7VZgq++n03du9WshwMRCzfxJ3tBodWFWjMF70OG8e35U2unv64kcsFp6xw+O7rhtE2RmjV7x1MNlBscs3Edf/LeFOnptYS9WFotwi/X4pBYog/vNxdsHymPfhQDdzCX184Y/rm88jg42RVHw+GYbSiPEgWpeDWqVvciw6wNlOcMUdTxZDE+GHXvovPSswvC+XhyYMUpKToY3mARxJtQks9tO5oyhU1uLpbRg7y5SuVkOKphJ8k2xh9zAxfbNpWp/ZrMO7bUf46vxDqhyUWIl9oY+1obiRvvitPcTjcRv6McH3dB1Pc3ipRD8YDR2EiFwgR7Au/6xnICjkFrwnvoG/TWhC16o1Rky24KOkHn+BUUO5N+B8xx9gBbXVI9zwJYo77IJSf1F8khrHVYIyfsxSbdgcgtvAhwjw/h704CYHf7oDvHS5FVPnxYBhGG8qDpKgO6jXlb+T0QLcOqjqCqCG9jYOL5uD9pX/hJl9yf4mkdw7B2cwIRkb6WMwwcPMFLQb7i9DY0g5T+Va3G/eQqirQ0CPEhtzlXvTHmDfbaZc5i9qi9zBr+esLN3FXzfGm1ATc4P8MrDDJxlSzmYz4mmpavvrgqw3F7X2YiBS1T4jhClsPUtVPhK8BkeGbGM8HQoTA0z8QgSeuY8LwXvIau6gN+o0aAgNcw+6jl5EQfhpHhgyHTQtda2sZiDj4Aw5ek91lfB7fuWjyl9i+ZRrEkhCcj3r8Uo4HwzCaUx4ka7dFFzt545B6xFU6A7H1YJRwr0dOGnsBB06mwNBJXlp/mV5679amXED6dARw7TKuJ6qoS2bH42rQXRg4T8EIswbCSk01gNlIJyww4wo1SZdw6ZaqEF6EtPBgnOReiYfOwrT+r8lXC0QNxcofnMzXPtu1UDPvrLa47XWYg0+6ctsrOQf/q2llen8+Q+mnsX7iDlzLVux5qoPSQChBxG8r8Nn+Xhjet6QeXae0yTXjwDYsdw3EkJIAqrP7+Ot0lIrCVCN0tuyNNlwRpUFdPhBX9HhIkfckVcsWDoZhNKUi62sJ6zGj0RXXERarKtPlLs7Ek3BxuYne9uZ41rUnHwmXArjM2AKOA7ugibD2v6sZ+sxczGWCAdi2/yqyXsgB85D4z0H8mj0ZGz8bptPDpUWGQ7Hyu/dhBj9s/N4XcYUvZrOUFQoPN29kGMyA6w8zX3ggdu125hggi5LPn3NpQhSCu3REW1VBsrwmXiVEre2x7H8rYC++ht+2euO6suny6Amu//kHbk13hHWFC1rPAiHuxiF36vOFN1Hr/pg414qLkn44FNgLg9/gP1gRUtz63x84FqdsFt4ipKfcQ7rBILzTW15Q0f14cAWfoO/wrnEbtOrzMQ7EV/2svwzzyuNqSMpJU+jM2pFkOPlXulE6xRmvmJ6mRZK/+yZas/WkMH1WMWUG/4+c+WnMZowiK37wvtiKRs2QT202e60fJasalP2fUETZEX/Q7K6jaLVPDGWXHos8Sr2yU7a+wlOOlU55ZkyDFrtTcOmMRtzfjvMjl8mWBLPp5HLmnoq/k00R2yaTmJ8wYYkP3ecnGyhMJL8VzrQ++LHwGUHhffJfww9u586z4QLaG/ts2jY5xWnfutJM9xsK+1wij5L9N9EYEwMyGbOWDoQ9FLaLn0bvGnltmE2Oa04+P60bvy+3dtNMA3Xfq4L0HvnMt+B+T9kMO/IB/lwZgQzUTSBQSnH/xpBLSLrC/j+bQEJs/zl5lu4XjzvfIb/TfOsxSs63Lscjm0JcSqbeq96TejBMTaU6SPIKH1O0/27a8OUq+mbDZmHOVhfa4n6cQpJzlMwMwsn0p+WG3EU7zJ2iNZ6r7r+Az+zCyJcrXHy5Yh1tcNlE61cvo+Xrd1NAfNkgoysuiMQHkvuXU+UFFVnmyS0mw2i+y5HnZ6NRpvABhexdQxOt+FlquN8T29J8j3CFQPQsALy4DOKCRYbCTDwvLi/OOiQEAJcFZG/Cz97Ef05MJvYLyMXrGqUqBIRnMwIpW/i/rWqmoRJF9Nj/S7IY6kZhOUqOduYZWm3hSC5X0oUVyijONKRqG+6Tz7wRtMQnntLj/WnrPDsyGzSBKyxOo1FWlmQ/35W8ngucijQ/HnL8vMcHaIm9Dfe9n9DcZUcpWXiHYRj9EPH/4y5GPSHkh36PN/suQ+b6YNz6on8NfswVw9QkSfB2DYfNUgfl95YZhtFJRW/2lPGqPAeSYWqY/GQkNTZGa+FHhmH0Q89B8gliQiO4fy1gZd5cvophmErGPzQ7FkVdXq+2cygzTE2l3yCZE4Pz3uGA5RvornQOSoZh9I7ScPavPAwqM6yHYZiK02uQlN6/jUtJgOHwPjCrzw8x4Eq48QexaOPZCjxtn2EY1YqRFeqLkD4j0UfN5PYMw+hGj0GyGE/uROEKjNHPor18fCRfwt15GI37s/GSDFMpMoKx+6wpnIca6TiNHsMw6ugxSIpQp1ETtEE9NGtcn/spHyknt+G3BgvxmX1rdgEzTGUwsMWiT+wqMBk7wzDq6HcISNE9BGxegvneeejXthjSQSvw/ZK3Ycge7cMwDMPUQHoeJ8kwDMMwrw49DwFhGIZhmFcHC5IMwzAMowILkgzDMAyjAguSDMMwDKMCC5IMwzAMowILkgzDMAyjAguSDMMwDKMCC5IMwzAMowILkgzDMAyjAguSDMMwDKMU8P/iH0xH9hPhBQAAAABJRU5ErkJggg==;" vertex="1" parent="WIyWlLk6GJQsqaUBKTNV-1">
          <mxGeometry x="638" y="759.48" width="163" height="38.52" as="geometry" />
        </mxCell>
        <mxCell id="a27hsYVGrG07yMlYosN4-38" value="" style="shape=image;verticalLabelPosition=bottom;labelBackgroundColor=default;verticalAlign=top;aspect=fixed;imageAspect=0;image=data:image/png,iVBORw0KGgoAAAANSUhEUgAAAIoAAAA9CAYAAABySPGpAAAAAXNSR0IArs4c6QAAAARnQU1BAACxjwv8YQUAAAAJcEhZcwAADsMAAA7DAcdvqGQAAAyiSURBVHhe7ZwLXBT1Fsd/JIaPNV0rDYq0u6IohBJayjUCM8QPJFz5EKl8NjBNKMxX+Lqi3QI111tBDyhDk2u1aPi4WFGJj7UrV8UbyEMeoiECCiIii/LaPfc/MGuIPBZweM7389kPzJnZndmZ357/Oed/ZgyIARGRFniA/ysi0iyiUET0QhSKiF6IQun2EKovRGH+6L9i1eFC3nb/EYXS7TGA4UMyTF+xGq89+zBvu/+IWY+IXohC6a7U5EH1uQI7LhrBKOsipL6b8J6LDH351fcbcejpjtA1xCs+wGGLd7Dto0AstC/C5vU/IE3DrxcAUSidjfYPHFzjjomDTPCszydQFVTyK5rhdh4uPDIXS6Y9AUO6grTfsiG1GwPTPvx6IeCGHpHOppwyIuaSBBIyX3WIirW8WR+KY2mJ1JRcI7OoNW9rLR3vUW4lItxtLAY5foKkW2J4VMcAmLnJscBYjfQvo3G0oJq3twShPDUee0uegZONCct/hKPDhUKluTibVo6xljIM6y/kV+teGAydDK/lTkDJT4iMzYJ+UqlEXlYack0nwGJEf94mELxnEel0tFSVEUGuEuYmpmylhHI9BhJtDkV7m5F0SSwV8yahEIPZLoMB+ppNh9zDHIj/BruOX2WKaYGy8zj5sxqTrEZgCG8Sig4RCqlTsHv1PLi84g6H0S/A719noRbDk3sxeALTfV6FOX7HVzuPIbfhOaJcHHxzIgbN3I5MzS1kH9iFbYPlWO4ySvgLyXsW4bidSpHz/Sk8+QZzrmWUoLAnSLwoMruC30DkLip/pxBbKZPIbApLVfNGHm0BqTa6k5n9fApYNJtm+YZSbHapoNmODoGFwqV9PuQWkUpVtcvFpAqcwk6CE4UkNjgJIkwINygjei05cHEKS5Utg06wM9g1ENZjafNw+ncrrPzbmLrSsiYfqUfSAWNrWD4lcJTe3aBSpO4IgOun/bFWFQVfqRop/4zC4cIafoNOhhdME5RQovJDClwyn+RezmTDlG4aqKK2+gLtJSV5sl3CU0mXOsJfdheqc+nQ+pkkmbSOYvO5IbmE4oPYEI2R5BaZSZq6rTqVFjxKfzxu7QBXr1cxxTAHZ9RmeHHCCAzg17YOLcqykqCCFFPtLWAillBqIXU69q5bCLfvnkDIjnfgaGzErIPxjMts2OIP7A+PRXJVw6i242lBKEZ4ZPQE2Ey0xuhh3BeYgOcth7WxAliBy5lpKGAxvYOFCYSclugukPosdiyeC/e9pgjZp4CPxWD+3BrgQSsXvD1HBpzYjeiT12ut98CGq8zfTuKiWsDZQB28Z2meitOkGC8hjAym+Io2jhnaLIp0NWUZjy9F51fzxt6LtvAIbXDgzsdM2nCsoJHMpYaKYwPImF0iqU805d2zgYZKVe+SOTwoIuM2bxMOvYJZTXYCDiSpIXW1wWijNo4ZZZeQcioXsJ0Ey+GGvLG3osGN5F/x7WlLrN//JdbZPdaIl+6DoS944wNva5Ts2IZv/1fK23XcRJrqKNIdnTB1VD/eJiC8YJqhgi5EzmODZHtmKLVUkaCg8Wx3I4Pi2SeKtJnrKlJ4y0nuYU8ylkLL7N1JLpeTd3AcFQqYIOghlCsUu2Q8E4orhaW2NavXiW08LYm9wttE2oMmI4IcYUMr44p4i7C0PPSUZ+I/e5OYQ2nHDCVdQ+oJ9hlSW9g9PZQ3irSdGlxNOY0Tkkl4bqzQszx1tCAUQtX5RMSx0ELyohVGGZUg8/C3CA0JRejWzVi/1BdLN+7GmaL6XVmEisxv4DN6KMauV7GRtBIFv4TjvfC+8AlbhpdNhOrq7E3cxPnEJKg7MN5robm6Apnb5Rjz+m94actmeJUXQeLhjVkWD6P28GqyEbXQBQtKAnBmjw9G9+VCMkJNwWFs8fXHpjwZXB9j4howDb7L/SCfbFL3vnZAFTdwteQ2V+O+Lxj0l2L4kH5tTPk7CU0Kwu3t8IHTj0j/+2QYVZ/H3o/TYL1iFp7SKz1pA7UDUFPw/Q7cZhKHYDpW2DCt5Sf5OihF42Kd7EgvknBqvE8viVskZXeF0mdrKIyhRRIZyaMvsWt0g5LD/WmBMpOfTxOG5oVSGkcrjdkJlXhSWEoZb6yPbpKvPYGuSKvRXqPTYYvoJc9ltHbRQlodlUxlAmY8HM0I5c+UVuobQ1cbOxDNOYpwNCZIV1BscQ1vFOmJNDOiVSIn6RSSYAbXl6zwaCODOF1OwqETBZC42sJK2vuK8gYGBj3y1RhNC4Uu4+S//8v+aWp+pwq58b8gRi3Dy07WeKxbRYP3B/ZD65Gvxmg667n+M5aOckKIRRhSj/piXEOHQZew9/UZcN/vgOiUEMxuNu3VQJ35K3YnDMHMV56DsWHbVSVmPZ0EJ5R70ZJatYFM2eqm+k+0OUqaI7k7ftEWnaKDCdfqFuqji2WM11BcaXtSDDHr6SyaEEo5pYa5shPZVMn9NmVEeLD19UvIVZQXraAvGvZ5MurKzSDjlXFUytt6HJqLFLN6NtlIjGmSdygdq21Aagrd+eXE6kNfHdpDwb5+tDJoI62T29MU312UnJdM+zYsJHnA+7RlnZymTFlMkSlc33E9qnMpLtiT7OVrSaF4nwI8HGnWyq8pvt6+azKU5M83nQHmNDsynWpqZ6ZXkJTbv8yePPyVlNFCLtK4UO60BMwnZU4lb6zPJYqWy+7OdspP0dYV+xqZDtfN81iSb8zlNk4qdhdac2soyyrjg2kkt+3SGMqr5jdWqyjQlF1A8wCKydNdcL4M4RhBGfW8X13HoJSmhiWzS88ZCih2qTVJ5yop5y4vWUNlKV+Tt5k5eYYnslT6NuUo/ckxMIayy/TLVhsVijY/mrw5BTY4sD8po8QQZ6ZGBSVwNbjqfDq2dRNFZetqKRoqjf+UfOTyOy2UkNiQsxdb5mY6N8RSfg9VjLY4lpZytSepH0XnNV8Cq05QkAxTKSj+Bm9hVCeQQtZwlp0vbOrOtw5tISX+EEsJdzxINeVHL2I/ykWN9PxUU+GxYHKQWJNXgB+5LasnTj1oNOuh6j4Y+LQD/N6wa6IkLIHV/M2Imnse29ZtwtaPf0DZy37w+IuuSfIBPDT5LWzfuRM7P1uOFwcxk+2b+JBbZq8d786AcQ+NHlt/a6ghjPreW1roY9S35S5Ag4dg8rgGSdvfgZuLO95YFYywA2f5lQ0xxKN2b+OjYBPsUiRi5DQrDGtNUsELRiB6Yx+K/reG1nkUe1Ik1Kt68x5FpkhgPkBHYx6livJjlpGZdB6FnrrCb1vfo1ynS+dy61VsueFnJ/n5hdL3ny8gM4krKU4X6x0KCDWFxFOF/LREJGE8XCc+Ba7rtufThltD20QRzhz8CVl2M+AycXjdZCvdRE76xdq1qMlAlJcSGbXttJUoStiOxcvOwzXwDbj7KrBn44P4x9zV2JFaqt/x8YIRCF3T0zyKvNA7/Ekdun5Wln7PYYHlPT9bljUqV5GXsw0LfI3Jxnke+SszmCf6M0OR2DiTF5eNVGWQ0n8eOdsY83HeKlLWTsAyD5G6hwI9ptIU+RrawrKelb5rKPzH3bRlljXZOHjS0u/OkZp95lu1+2F6MFtLcde54JXLWj3rbHd9ZtMIKxRdBD+eucy2NmV3V5q7NbQbIujQo83LwslcwHjGMzCrbcrmnom6G4s3HsfNuk16JtxtFAf3YP/ZErbwCz7bdxa36tZ0WwQUigY3LqbhNEzxrOWT4BIfUBGOf/k9Bk4eU7fcE+nqt4a2EQGFYgDDAYMwHA9i8EAjtsS1RIbhq35vYoVDW28i6+LUXEbcu3MwOXw4Pv4mANOtHfHaCnuWKh9AxM8XoeU365bwQ5Aw1JaY3cmMBWbznJ1ojuII5beiyNOd0Jado+hVTiQxW0gRd0rtWqpMDCVbbsy1DaXEysa/u7Ysk44fzxa8+ag9CJz19A60ZUkU4W3Nsor6IuHRXiDlHBkLaqdSoKqRCVO6RqrAqc1UwbsGolDaSbtvDS0/QUGWpuQYca5LPLWgKUShtIsauh63lsyYSNYfyq1XSW0A99QpzuPAiRQJ3LwOe5/qI/KWe5GHPde8bkb2Hl4kly+i4Lh8vaulHYn4LPxOhb8dZt0oxKUHYdpDAhfK20HXPbLeABUi5XgiJDMmYuygrn0pRKF0JrdykBinhu3z4zC8i9cLRKF0IpqcVBzJlcFunDG7EFzV+gAU+7O7ZL1FFEqnocH1C2lIhAXGjhhY+/Sl7UEqPGnFiabrIQaznQiVnMIXy4Nx9FFzDCnqh2kBy+ExTvd4rq6FKBQRvRCHHhG9EIUioheiUET0APg/cTB9/lrFRmYAAAAASUVORK5CYII=;" vertex="1" parent="WIyWlLk6GJQsqaUBKTNV-1">
          <mxGeometry x="638" y="807.9" width="50" height="22.1" as="geometry" />
        </mxCell>
        <mxCell id="a27hsYVGrG07yMlYosN4-39" value="" style="shape=image;verticalLabelPosition=bottom;labelBackgroundColor=default;verticalAlign=top;aspect=fixed;imageAspect=0;image=data:image/png,iVBORw0KGgoAAAANSUhEUgAAAGoAAAA5CAYAAADeO77OAAAAAXNSR0IArs4c6QAAAARnQU1BAACxjwv8YQUAAAAJcEhZcwAADsMAAA7DAcdvqGQAAAsiSURBVHhe7ZwLVJRlGsf/eEPx8zLeChLEEASZ1RBNRGRBFsTFDdI0LSNsK1ndxPBU5qU8hXYIc8U84Q13D2pJHelsZqGJF0SQFRXikgxeITFAQGRQbjPPvjPzjSF8c4MBc5jfOXPm+56ZgTPv/708z/O+z1gQA2YeEYSmq19jSeBWDN/+LaJnjODtbenBP5t5JFig10AH/GXlKrz67FDeJox5RD0mmIV6FDTfROoXMfj3NUtYFl2DKPwTfDTbAb35lwVRCGWmC5FXUPrGt+jDYyXURLWUFeNDcIul7Gb+dQ2YR1R7qT6NTZG7kSvn71syLBjrY+ZgtJAHcC8H+/ffx19f94AIl7H3+RmIsN+Fy1tmYgj/FkGUcplpJ3Kqz9hA9gr3zTqc4nPL2SgxgMpkihDZUnBCEftL2ukkr49Yx9mBkDGjEbD1Au7xVtNDhqrSEtxmV9xMf8xyHY5eqhf0gFCXn4Gk6okIdLdh/p92OkmoZtSUFKKgzA5ipxHox1tNjzv4JfMcpLCG5/RxeEJXaz9EA24WFaDE9hm4jtLdQp0kVG9Yz94MSe0pbA4cqbO3PLY0XMeFI4XsQgz/CTaGNSaVI+90NkRzpsK1v+4W6iShugfyGz/jpxwpYD0JEx053qontZeReUSKyeNHYTBv0oYRhZJBWvANVs0Pwfz5vnB6djn25tewmdhUaUZZ3jmksytu5iS4DNDRlFSC75dOwoBZeyCR3cOV/+7DrkGhiJw9Ri8RjCQUoV5yABGb7mLRnoP4+stNeLPqcyxd+x2uCbmvJoGh61NvDLK1h3X9Gexe9goi093w1eHVCBihp/vBe38dozGf4kMWU3xhnepemkrrbJl6egRyjy3N2RTrxrEJw4uiMu7wxs7DKCNKXpKDi8++hucdrZT3shv5OFHCpm5/MUb3VJpMDir+GccvsvVJNAWTnDStTzJUn92LPeer+fv287tQzAs5uyMSwb5zsXzj1zhf0cC/oJseTy/E5+97QaQc/k0ozf0f0mAP74lPY4DyHaYGE0CSg1TFpfcEOIk09EYqxtGtx4ABRghQ+JHF00w1GdE0lZk5/62UXacrXhaiglLedWdTQjDF5fNToclRSanrprLvKCKvuFzWakLIqS5rE3mGJNAVGW/qAK2mvp4YOGUeIhY6QPrTTmw/Xmq41yb7DZL0q4CegdxjiawU+ScusQtn+LrasFZrC0kvIP6j/Ri1wEs450c1kKRl4ppUxhu00/ZPWIzE9BcCIEIeEg9fRIWBSlHxRSSnVYPzG48xVqYZ6qq/I0SemOY6iLeqaUBFThI+ef3vWH7aGy/52goE/HLcTduC4Omf4URpE2/TAT+yHkJedojCRWwwca/RgRsNvFUfZFST8j5Zw5oC4n9hd6ZEI5Umb6Sw0JcoyN1a0X1Z+7hT0KJQCg1VP+aSj4PCE1RMRBw5v3eMKgVXj2rKiPIhBMRToZ6NJOyey29R8go39s/sKSRBYkCD11BWjD/7XNe4rI8dVakUE8YEnedDDkxIB5+5SoHDNqRQuQ53QEMcpR4ZrGcYoDrJiygh2JYgWknJlaYaQHUcWWE8BcCd3k2p4C260RBH9cBAj79hmZjFB0eTkJzL4gU9oIpLSE8tgSjEE3/S5LJ2e/jUEzcZU1z0yfKp0CAUw8oFfgsmsYt0JJ66jEaVtQVSSPaGw8liOj44Xcn+fwmObv4M24f9A3FrA2Fjmn6EEbiLy9k5kHpOhvgJ/XevtGzFExpztsH3meVIF29ERuYqeDzkxTXg1vFYhL+5DTedPfBk+S1YzXwDkUtfhIe1Jf+e9kP1d1BWfV+xKhsFi34iPDG476PfcpHlYbuPN6IDf8ClNR6wbLqMpC0FcFv5nLAbr0Y5AWqi4SLFeoqUzsG61Nu8sSuopysJi4hNvAqdjPLgjBR4dpjyQ7SEc6DQg8VsTb9Dudv/Sa8fkDCfUjtahGqm2rx9FD5Z5Ypav5vCfDozHUZ+m87FLSH/F9+m1UveoFWJuVSrRwJIg1AKkf5Di4Oj6OjJ7RTCsV4piqBDZQYd3TBjRASEUokUNjWcEgprWQ+4QQcXO7NRJabwQ7/qPC1jarSeQrv6oaaVULxIziEUc66SF6WJyg5FkIh9iFt4gG50N6X+ILTw+mSQ5u/DW8/vxODNXyFmtt2Do09UdQSR4kBsqV2EhJzdeOVpDV6dItH4w3fIGuqH+R42BhydaovJen1CNBUhcclCrBsejcxoP7BB0RalXMznqMqOpzBHdwqLzxFY3NRbF9pzeKqI2xiOhwl7fULIyyhrfzx9m39H49LChKqn0mMfky9nS74fHKXSJqG3yqgmdT05K76051bKbhB6z30qjJ/HGsWw1IgZ/YBKJI4cw/ZR4X0tC1BdOkWJFZnhIIrNZk5Gax7k+czeoX6wAXJqG4WHraC1S0LouVXf0dVGze0PX+Z6c/7/onM1upKotZQdG8SE4kgclU6qvdtKyohdpswALwpyV05VnHsQLVKm/N+gD5NLup2XqB/NVJW+mRZ/qJrBmrJiyAGBbABI+dfbAmffj+lYaT1/qx15+SnaFOZLDm32qUx5H6ozqKHsffspo0oxOOrpasLLOnccBOKo9tC99qEebKy2cFZ0PpzXU2qNUBf+jZIjJhCCE+iqlulHWxpQf6gcBWmXdBydMh0sRsxGXJUc9RkbYK8wKJLWdXJFp2/1aEbtjVOIC3NjLnh/WFkJNHedBGeSiuEV6AY7LbGDcYSqvoLzqSXaj06ZHI0oLSrAdXYl8psIJ8HzIT3B2U3HK689B1uHIRA69Sy/WYTMEs2HZNQYQSh1nQ+HCV4u3Wgf6g4k5/PYsy283R2Eg1QlFrC04tDnycECQvGbiIKHZB7GCELxdT4Yi5kT7aHKWdzD1cQPsFGxoWiqKKesHHbRuhBNUcS3F1HfX0fLY/cDnWwESj/58+uTx2H0YO0zkRGEqsG1nyXs2Rni0apzsVSVgZ3bAA9X/beaHzfUx7ZhPQ5OI/uqjEru4peffsTt3v0eNG7PsQvwZagYfdCEW99HwmnAAuyR3EPTlSPYvasP3o4MhKMOJYwgVC9YDVQIxKF/X9YrFFvyMYnou2EpfIeY6nrVgOLzaUhjVw+V3DRXoCB5F6I39oC70++d1IIbCWdbjo06C/QaZAMX6yqc3b0CL0SehcdXCfgoQHdpqBGq4gnNt47j0/B3kCQbgyfv9YfP+iis8H6qQ0nZPza3cfy9QPh9WggHn5mYZtdfZb5fjDPfnMQVrzjknwzHOGP2U4VQZgyk/hzFTFCk01pnExqp+MBisl2XSppzDO3DCFNf9+P3klA3ti63PF/fhNpqGeZMcwI/xthI+BVHPt6Js3c7VtFnFspgtJWEWsLObyWWTRvG3zMP8EIioq4Ng52u0lEdmIUyGP5cnmBJKAtwHcfDkeMXJzaajsenw3fxn9vGlx2u5jCjnQclN/aY4jhCSwM2oPTw53gnxwdzp7SOoAyv5jALZSDaS25UkPQ60hLW4OWFSXBbPhvj+7QeTndRkHoSlwIC4TWmZQymGfOPVukFC1SPbMLqL/NQkX8Ch8/fYguUO4JCXDH0oa4uZx56Jr45WaS6dV6LlDPrMUMdT6p/6KpO4cZnAbxr32Psq/j0/RkYriWYMgv1CJBL9mDW2C/wTEoyomeoHQ/tmKe+LsfY1RxmOon2VXOYhepqeK/R3nscRilaX1HNEaP7F27MQnU1VdeRnT0E3i5PwZLFUnl7YvGjnQtG6lDC7Ex0NVSJrB1rsPqkFSYPlkI+YznWzBOD05o+B/4PtT0IrnRXcEgAAAAASUVORK5CYII=;" vertex="1" parent="WIyWlLk6GJQsqaUBKTNV-1">
          <mxGeometry x="764" y="807.9" width="37" height="19.9" as="geometry" />
        </mxCell>
        <mxCell id="a27hsYVGrG07yMlYosN4-115" style="edgeStyle=orthogonalEdgeStyle;rounded=0;orthogonalLoop=1;jettySize=auto;html=1;entryX=0.75;entryY=1;entryDx=0;entryDy=0;" edge="1" parent="WIyWlLk6GJQsqaUBKTNV-1" source="a27hsYVGrG07yMlYosN4-40" target="a27hsYVGrG07yMlYosN4-5">
          <mxGeometry relative="1" as="geometry" />
        </mxCell>
        <mxCell id="a27hsYVGrG07yMlYosN4-40" value="" style="shape=image;verticalLabelPosition=bottom;labelBackgroundColor=default;verticalAlign=top;aspect=fixed;imageAspect=0;image=data:image/png,iVBORw0KGgoAAAANSUhEUgAAAeAAAABeCAYAAAD7Y8ckAAAAAXNSR0IArs4c6QAAAARnQU1BAACxjwv8YQUAAAAJcEhZcwAADsMAAA7DAcdvqGQAADYOSURBVHhe7Z0LXM33/8dfx3054vj9XYooqUURclktEXPZmIy5X2OmbIa5ztw2t1nZfphlJn5iFGKNbbnElhQqCqULUVEpSjrS7Zz3//s9nUPldDmnck71eT4e3+3j8z3ndL7f8/183u/35/O+CIgDDAaDwWAw3ij15P9nMBgMBoPxBmECmMFgMBgMDcAEMIPBYDAYGoAJYAaDwWAwNAATwAwGg8FgaAAmgBkMBoPB0ABMADMYDAaDoQGYAGYwGAwGQwMwAcxgMBgMhgZgApjBYDAYDA3ABDCjdkEp8F/3AZqZzsfxhFx5J4PBqAtQ2j9YN8gIprO9kSCVd2oxTADXVegZ4k6tw6CWH2F7+DN5Zy2AshAffhswNEaHFg3kndXJc0Ts+hgt7ZfBKzITLLE6oyZD4licWvMBWg7dgfDsmvc0U1YiwoMlMOzSHi0E8s4qhZAX8QuGtRyKRV63IK7kLWLFGOoilImIfUvx0YIHmPT7bqwe3B5vQlTVWgoewG/9pxh9uD22nXCBo3lzVMvYZzCqERLfwL75M7Egfgx+/20pBus1lp9hFCcXyX4umDL6ODpu+x92OHaHUM0BzwRwnSMHCcdX4L2x/rD19MIvE0zQUH6GUQkK7uH4/HEY69cL7kwIM2oaL5/fvvD0dcWETjryEwzlvJpH33VXXwizJeg6Ba+5uWLmDB902f4rto/XIuFL2Ui+8Q+O73XFcqfxsO/cDAJBM3S2n4yFGz1wPiYdBfKXFl7HDuwISJf/WwJxpBe+HD8WU0e+CxtnT8TkvGG9soERPtqyEy6Gvpjt6IozyWz/mVFDkK3gfIYZBzth+9FNGF9twjcbcd7L4OAwGvamw7DIOxo5lImYU66Y5fARps34mBv33eCwyQ/JBYSC5CDsXc71jZyCGePtYdp3DnYEPXp9m4f7jEivrzDeYTxG9h0EZ88oTjwWhf+ss1g38SN8bN8DfZ1/Q4Q4H+KYP+Hq+D4GjZ+K8fZdYDpxO4LSXs0yZdMEHT5ag0MuHXBs9gJsOJNYZH5SAd4CZtQFpPQi+iDNNBGRiaMn3c2Tyvs1jDST4s6707IRZiS0mkSrdv1BQdEPKOOFRH7+BaVF/0v7F00nZ49wypLmUNK59WSvt4BOPsovfEn6P7TGYQ35JuVQfogLGcOSFvimyM69WaSUd9eTHE2EJJrwK93MKpD3MxjaShZFe8wlE/QkR88YypP3VgfSh940a/JBupv/lII22BJEU2j9loXkvOsypebz85GUxP5ryQAWNOfnPbTWcS15Rz/levlTD+ikkwXBYhMFPS86dxVQuv9Gclj+NyXlZ1GIy0DucxeT75MiY49/r/Ncco8WU07QRjKEMY1dtZqcnX6mQG7OkJHpR8v0hGSxIZCeF/ZUjLwY8nTsyf3NqbTrpvy7qgATwHUEaeZlchliQDBbSicfyh86jSKl/KQAcptrS0KhLc11+5cSFEJXGdInFOwyi+aumk/2Qk6ldfCgONnTLqYIt+nk6B3PfeILinYfxynIVrTML032tjdPDj08uZTMYED2Gy9SuqojksF4YxRQZvCPNEQoJLOFJ+mhTAhWF/zYnE6TPOO4cfqQTs4148bp62OkUIHmxrdoOrlHZcl7eeTCFXPJO6lQ8ZaRd5Pchs8n74ec6iC5Te5D9Qh6X5Ff5qu5RBrvSZNG8/NFAT3xXUwi/vP7rCG/1CKfkx9CLsZc/3RvSpJ3VQxuHnt4khaaCUlo/z0FpqumdDMBXBeQppL/Gnvu4bWmRb4PVdbSqp48Sg9z56xxIcFkDrmHPaYiQ6F0nl8lF2sRdx0isnW7yU0fPNy1uWwvHEy512mbDXfebB35FxmAbxzpQ/JdZM19z4G0wi9JC+43g/E6spWjPvx4WU6+8tWk6iOTwty308l4TvkX+9NqA07Yma0iv6KWKjeiU0/OJyH0yH7bNU5kF0EaSx4OnAFhsJb8xUVGVLo/uWzyo1SplHLDtpMNOGVi9b/cX3tFQfQx2njyHkm43hCXIdy4tCTnkw+KjUtpgidN4ASzwWp/TqVXlXx65LucU7pF1GfFWe67yLsrABPAtR5+iWY99eEeTBPnPyhJ49Ign1L/3VhoxfLC95YqyzaKAWRNq/2fyPsUSOl5iCtZc9ep8jJSNcAvtzmKlE0yDIYW8FIpt+KEUcIbVRILItzIlhN2esv8iglKoifkv5pXXB3ILaL4CJYmedNMbs4QzuQsVKVf9ik3NwyXKb0bgjLkfSVQWMgll6h50ez3FenBhGbKVtLUQBpP3o68VW9Dy/0eVfgzmBNWLYcyAvDfxT8gWDQOqxcPhp5GXXMJOTFeWPbJZlwQW2PRjnUqegvrQL9TJ0BvIAZatpD3KcjEDd9TCEJvTBzchXulZhHoD8cK18kQRu3Eim0ByOCGJoOhHUiQEfALFn97AaJJi7B4WPs36LFfgNSocITBBMP6dUYzea8MSRIiLkQBBj1g3vEteSdPPpKDzsFHbIDBg7qjrbIvmx0J3/0BgMVQDO7eXN5ZgqfxuBGcDNhZwlRUX97J8wyRQUFIRl8M6tlGvXshMMCHK5bCQRiILSt2IyBDIj9RNkwA12rEiPRyww/BnM240hljjTUrlujZVfz0+Vf4XyxgtmgNVgzVV/Fhb4BWHTvDZFhvdGlW4tF9dg0ndv7DKaBjMLJXc1DaeWx2vYgM+ek3jw5MPv4cX1kDwT+4wStSLO9nMDRMTgS8XN0RjOFYuXgkjBu+OfHLSUHcvhLMzUw90N+idbHxT0kR+CcgA8IPesOsaZEz9AAXj51BhnAAxr5rAIH0Pk5t9ERknkKrleLZ5ZPYeashbOa8j146EqSd3wHXi2ny8zyE5xFBOJ4hgu3wnuhQ9A9n34afZwiEo4fh3Y6NIU34Ext/i0Ce/HTFEKChyWis+GooN+Dd4eoVUcITWzlMANdiKOkMtq70glg0EUsm99CwVZiN2GPb8c3ZREA4Ckud7NBa5XEvRXbmM5j274o2xd7LDcCQcziQrIehs4egW6MCJF88idA2bVGKLvxGEOj2xswlEyESe2Hl1jNIYlYwQ+PkI+mvXVj5x32IHOdgMqesvlEkD3HrbDRg2ANdOWH3CimyYsPhDz3Y9O2M/8h7eaT3AuB58i6EH47EAKNGyI86jZ13G6HFS8UhHSGnz3AW7HuYPdwMjSgJF3+LRJt2uvLzPC8QHxGGRJjB3lwfr+xfbu4IPYODt0QYPMYaRvWeI+qvI7j7VjPVQzQFLdFv5lw4iu7jj5W78FdSvvxE6TABXGvJxLVDv2Ifp/FZr3TEcH3NRvxS+kW4rTrEab6AaOokjDRRRx0QQKfvQhycbFriwSUU5OdxGufbGGLZHoKMQPzi0QoLRnbS8APeEPrDp2GxhRAZ+37FoWuZ8n4GQ0Nkh+GQqycyeOv3s8HQV1kJ5kbb46vYv+sAfC8G4O/tizFr7TFE8nG190Ph7x+EK6GhCPHbixWO87D2SPF0jZRwA+eviyFysIJp46J/XIzYayGcELXgxrB+sXFLOc/xmJs42vTqDH1JIk7vCcX7C94r8t0lyM8tAIz7wrJTQ2QEHIRH+4kYaVREwNNjRF2J5JR/S/ToXFQwc3NHdhYewRi2XdtCknQBe872xYLhnKUtf4UqCPQH4dPFA4EMT7geCuPMjnKQ7wUzahkvnYCEk8k9WtMuSbkU7zmLhPzTDgtyKuGBWCW8uE2HnezIZKADjRq1iDxUcu6qTp5TtPtk2bWLHL3poXZ8KUadJI8eejvLwnCEDu4UrVYugKcU4votecYX+igXhg0Z05j5S2mllyKO+DH5r7blxS7B1o0iivg7FUS703ChMsevR+S3zJqE9j9QcFaJCAZpMvlvGksmVu/TWPtxtOZcYomoCT7HwWFy6mNJA8dy49/5IN0qGYNfcJvchxsqd0SVzR321GeEA9mP2kDnFLHBaiGlPO4aHXgnU5FzYXhUGTABXCvhY2PHyAaAVkz6vIfgTJPCASl0Kh7HVwfQLmWIUWfhY2aH6HHj0EweN68GzwNp0+JT9Ej25nxK8nbilEshmTh5U/zLOOJMurXfmfqYjKWNfiWFZR3gpUe0ITm4R5SZ3IQtQddGsiPxl8cFrmGBCWP6adjzmSMvCbf/iS1s2/SBRZu6VfpBoNcPYyZYAOK/seePiPKXpRiMKoeQfeM0PM4mA6JhGGOrqgNkIZL7t5Fh0w2tZG9WOFRZ49NP3kOHBopP1IX59J9xNeYYVg6qg4VeBPqwHTMMItyHz56/caOMqlJMANc6eKeCv+AelAHofYhxdnpqDbQqJT0JMfcLmwb9TNCurj11Aj3YjfsQeshAkPtfCH1WAwqVMmoZ6Qj1+R1BXEtvzijYtVZPLNbr9DG+/kAetpR7H9dOR3Mf2Bu9TISy8wyeBmhtNwpz9Lhm0O/wCVXkrH8dJoBrHekIOXUSUVxLb9p76K2rXT9xI10dqFXkjFJx0e13xFQsvE7LqAfd3u9hGj8go07iVEjpA5LBqBaehePUngCuYYVpw7pzNqp6CJroonmTwjlFGn8DZ8PFECoLC6zr6HbHsGlWXCMAe06Fo7SK6+yu1Tae3cDpA6FcwwIO/d8uHuiuKXRboaOBvK0mlBwIn+x2aF80fr4IJI7Cn3uP4rK2ViHSNceg8ZZcIxQHTt8odUAyGFWPIkyPa4ps0d+iZBIbdSjAo1vBCOTDhl4LCywPCcQxvth76LKs6lHtRIQegwZy/wWSD5xDSCmrXlolgCntH6wbZATT2d5IYKt0alBkoAltMcRKzawuVY1OJ/QdYSFr5j3LhsoiktJxxeMWbCaVFsucg9gjazBy9hacuJ0l79M2/oPudtbgF+rKGpAMRtWjiJPlpgUHO1i1qopdWcX+7+thQ+UijcWR+bMwe8kfuF3G/mjNpj5E3W3gIBvwZ3C6lFUv7RLAWYkID5bAsEt7tNAKyVHTUKRU49AmZydBW9iMGw0zrpl47iqiVBp0EmRc9oKv2RSMKi2WWXofAV4BgN5QDOvdUt6pbTRAG4s+sOGbyUEIimQ2MOMNkR2LoL+iuYY61mopVGL/V3onEF5nkrVyi6wqEbTpiv42/L5TNP4KilXqfKlVV1+v0zScyErAmSX9oMsEsOpIHiDMN5xrCGE5pDs6as2vWx8t+0/DykkmQNBh7PG9X8Hi1blIC9mP7wO7Y4GDUanelBQfjD+4AS1ysIGFFu9F1evYnbMW+MkqHL5hDzjVgsGofiT3ueftFp8CRw1rtRTU3//NRfyV8zijTVtk1UU9fW4e5lf+xLjFzcv3lQx47Z2tGCpDCdfhG8BnPzbGwG4G6jk7VRcNTTBp606ssU/FrhWb4RH+pEwhTDkPceXAd9h6zRxfLrCBqKRC9uwyts+agRkzpuDDccvhw2n3nRIPY+lMrs9xM04nl58G7o3T2ADdBhpzjQwE+F5HQq1bfctHRvghrFc5jy5DGZR2AVu3nq/kPmkuEkIDwLtfQdQd3Yyaynorh6r7v1JuuO7ErBnc2Jw2FuPm/cbZCI2R6LUSM7k+x3WnkVwrV6Kbwqhbd9k+MAICEJqgZPNNHg+sOaRPKcJzBY0bNY5G9LEnp8O3i9eBZFQQRUktcI/yOHKP1sa7KKX81GDyWDiEhEIbmulyjAKjkyhLEcAvfUHp98LI7/D35OS4nrzCHlUgiD+N/JZZafE1FyWH4jym8FPNa0XDaz4FlB7oQpNW/E1J1VrYvS5RQFk395DjZ0WTXKiKYnxwz9xQd4qukkdOUTZwCLmEFC8oWC6ZfrRMryq/i3YjjfMgB9mcbEXL/NLkva/QsAXMl8XaiZXXB2Cb9158M56wa94e/JvOFudUJwcPYiIL938NusKknVbZv3IEaNCqN6b98DtiLq3H8Ka34LVmMno0rAeBQB+9P5yP745dxwuTCXDZ/TXGW7YuP4hfsRf1WnJ3baQRWht2hswhPPk6bt17Ieut+RDy445hyfcN8eVXQ6D3MiFDWRQg7fw6jNwezpbiS6U+hBZTsG5QIL74/pJ6JS0lKYgJjJM1qy4GX8L94s1h7TQLo8xVWUQm5MZew2lukjK066pFW2TVh6C1IbrLBnw0zt56+NqzrtlbkH8bXptSMP2LwdCr9wDhfJWMJo3QsEIDmFGcJ4gKulXY7GWM9jpafA8FOtDrPggTnNfiv54XcEeWEjUJIad+xZYlMzHCqgOEFXwGKOk2AsKVJXfXRgTQMexS6IiF+4hMrCXFGXJuwv3LE+jy9TRY6ZYSJ1YMfm9/H5Y5bUVUXgFvHjBKpQk6fPQlnB//iPVnklS/V6kxCJJtSxmgl4leFVVEawW7b/9GoNtEmDZRZczlISkyDOGwhENvI+3aIqsudAxgbmPINcSIjUxESV9ozQpgcQbEdqPRX68B8m6ehfuZLJh9MrxWe8ZVGwWpiLt0V9Y06G6oRqm/mogEGTF8CTMD2FkZF+61aDmClvowlWnEUTgXlVxBZzRtJhsxh77HTrM5mGXVsuywtwIxkmOC4O06DyPsP8X/YlmN5Aoh0MMgpxGIW+KGCyquDhYkxeGSrNUe3Q3L+X2qnaeICeWNBAtYmVZFLHINQKALfVPeE5oTd+eikFBiwGtW0on6Y8lXg9BK8Aw3z/6FQPTG1A/Uz9JSp8lIxp1HfEMPXQxb4S1ZZ20nExGXApEBM9h2LV7cW2t5qxUMuxQOyEd3krnvXr1Q2hUc+jOmQsXB1YHSg7DXJQefTX8HLUv9AcQIdbVHs3cmYsXPZ5BqMAbz51nLzzHKhy/2/gGc3/sH245UrNB7IZyCmpwA2bTACWDDNpqtCI7nMbh0PByw7IGu+o3knbUdHbQxbF/YfJSA5IziCpR2mJrZkfDdH8ApRkMxuLsmS6jXXCRpDxAhMyh00LZF07rh3i5NReyV+8VjEfNj4TV/Ky5qa6KLerpobVT4jIsjHiCtmjdAJQkXsebIrWoS9NmI/X0vdps5YKhZWd61QlgtuYCskFPY/9+1cJ4wAF1b1YkFyKpD0Ab9J3yAuG1HEVhhKzgXaQ8SOPWHpyVaNNNsXgDpw1hcSeSG67BeMJFtF/G+A0cwf9PFWpwZriFErdvKEvBAnIAHacU9obVgnuZd1E9i562GsJnzPnrpSJB2fgdcL6bJzzPKh5DzJAXxsrYeTPXryBrC03jcCE4G+naBkSwWUYL0iwfwU9MeMNfaeGBd6HVuW9iMT8GTnBq8A5oXA1/3K7AbYw2jOqHxaRIBdLrZ4qPnv+NoYEoF94Jz8CQptbBp2AH6LSuyP19dSPD0XiSCYYC+Fh0K438pDRd3H0PTd2pzPHB9iPQ6oI2snYqkJ8XXL7Rg2CjSpL2H2cPN0IiScPG3SLRpxxaiK44Ez9JSwCmXHEI0e0tLMmBVNw3egm4bTrds3hRNBISC5LNw2aODjYsHlLEcqmnq4S2hfJUnMQVpz6rZBK42CHm3L8Ir0ALDrdQrbcdQkaZdMHBSYxz0voKUCkng50iLlwtgkRBvadS5VYAGOs04QdSIG66NuX/lIvmMG/Y0mYfF9jVk+0hNBG8JObOIJxXxac9lLQVaIIAlyM8tAIz7wrJTQ2QEHIRH+4kYacSWqCpOAbKeKvzrOqJ96zpy73T7wXnnaowK+g5zpo7G0MVReH/rIthVSa7b6qKRbEmqkHQ8zaqpbli5uB96EYGGfdHDuG54HGieZjCyMIPYJxA3SuwlKkX6HE9T5AkQu7VHa00awJyo0bWejZ0beyBokzOmjhyNxTcHYOuqAfLawrWX+qLW6CRrZSPl6XMU3RyrAgFMyA7/BaNN38fGoFLKrFEqQg+5Yff5eLyen6g1BsxbAaeWB7Fk4ljMPNwRG5favp75qIZA4ls4unkdNmxYDudFbvBXVOeh50i8fBTbN7ti+zZXbFw+D05r9iMg8XkFl5PKghPA6XVxyb4x9AYtg0/MVZw66IPzhxbCTq8mKR9pSK+xAjgdMVdvAv2M0a5RXbN/JRBHemPzmvXYsHw+Fu3492W2KspJwGWvHdjsug3bXDdgudPnWLM3AIk5VeGT0Aj6Jl1hmBGB6MQKuGJxAjj9riwzgHbQoD0GrTyGmJBTOHjqbxxaMrCCMeO1hWTcTa9yAZyBUO/98ImVoHEj5ZaH5PZxLJwyD+tO38XrqQcEaGI6EW5Xw3Dh2O/w+XkKzIVqqmqUw2l8yUhOroojBY/Fqk6Ombi27yzemvEVVq1ainGN3DHC+TfEZCfiwu7/IVBgg09XLMEXC5bg6+/WY4pgL/qP/REBFdFmK4peS7RoyjbktJf60G3VtjAZR02mIBlR56Jg2K1jHQl5K0L2dew7+hZmrFmFVV9/hEabZ8LZ4zayk//B7p2XIbCbjRVLFmDBklX47vvxEPw4HmM3X1QvkUYxBGjUzhj9EIvQu6rVlNZr2wJVkYSSoQZllGOt/EwtSULEhajinqjFUOQiNcGwfp2rdbNdeu8oHE30oa9fFYcJ+n8fqJJ3HqVewnHYY6g+b4XVQ8PGjSD22Y/1iw8g8/3ZmNCvHV7GrQuao7NlFyD4d5y6Xlkf1WdIvpNS2NRpieY6TABrLwI01hFytgxPCu4k11D/z7R43LwrhKjZW+VnK6tVFCD1/D/AaDvo89Zb/YZo3OA+fPZvxOJfnuH9BePQT0/n5Z6mQNcIlr10EPzraVzPqrwVLGjSFC2Ed3EpLrX8GPKXoYnctNCqeRUl4WCoTGMd6MqjrkqGHlZ6ppbevYoTARkQjR+AHsoSaNBjRATyFXp6oL9F9W62F1ZT4rMqVcWRhdvf2qkQk1yAtKvhaGnTqXByVYTIIB+tRs+EQ4cmfG8RJMh5zgcIPEXK08qmJJQg74UWFh9glEM+XuTVTCcsynmOTLRBt/YtOZu+DkGPcNVfBzbysCtFaA1SDTB63gfoUHJJlXLxPDMPSE7H0+dVsAwt0kPnNhWsq12Qhxcs14lWIX6RV0xxqqQAVlTFKCMTUVY0LvrcAmwH4R3jkkKoNpGHx8+MMLBLoY1PjyJxMTAZcHDG/KHKvESzcO9WFPf/TujWsUTsM2Ui5s8DOHQ5qXwtl1FHIRSInyjZOil+pDx+BsmLp0hVcq7YkfIUqkRESdIfQZ74VINIIE68hdDQ0EofNxLFFfPFkGbi2dv90EUWx/pq/nNY+QmGtlayFpCVgFtXOQlt2RkdS4QBkTgKf+49issKPxEVSIxPq8Wxs3UIztqrBOVVopHS86BNZMH9GYPV/iSW99Z+FJWJRGTrdpMK5L3FyAkmF0uh0qo4kmh3GsrdM71lflSxWiMJ5D3dmJ8/CMYuFFJ+CaFykX0WO5QelSU/xIWMZZ9lTNO9E+S9qpJEvgvkVW6q4hBOJY+7OfLPLp/Ca1D3+2dRiMtA2d81dgmpQMWrUpDEkMdow9evRY1DONqD7qpcnUcx/zmQW8RzeV9RpJTD3SdL7vNfH8svKNp9HPde5VVySiU/hFyMue883Zt7AsohyZumy6+vUvdZTsl7VpeOSqH4zfjPKvG7Vc4CVlSisewLS6WVaF7gftgVTlO2wqSBXeqQE4AYsddCkAwz2JvrK12iK72gdQ7uBPjiDHfPpg3TXFpO7tlgRymHdqCHYf8NUfr9ih6coITxdG9wg17p+ZdH1gFM61TDwtfqmWDaiXvKr0fFI+vENHRSdTZUzH8GPWDeUVkoVi7iw68iXJn/i/Q+ArwCuJ9xKIb1binv1G6U3be6clQXlRLACiHyKrVYCSgJob7XAGEf9OtSfvLtyizJyNC4F7QcSQKCfUIAkQ3eNVeWWrOMgtb0AFf+uMy91xb9LepIwnJGjaOBfie8Cwly8/nSdHUTyd0Q+PCVuMZYw7ypsvkvFbcuhnGN1/1fKD4Yf5xJhsjBBhaqZG2T5CNXAhh364hW8i5GzaUSAlghREr3bqa0KAT6JwKDbdCzbeH+iOTeRZy7pyyGLQexR9Zg5OwtOHE7S96nGpr2glZACdfhy5cAs7OEqUiZ/fsUt68Ec3ZyL4ywas/9COm4vP1zzJgxA9M+nIh5PokQdroDr6Wzub5Pse70g3ImubfQoi0T1jWPFmjbooYmsWjcFCLRfYQkPuHEcF1EEd1Rlv/LHVw5HQtOy4aVYWPg2WVsnzWDG9NT8OG45fDhFPBOiYexdCbX57gZp5Mr4EiZnoSY+yLoCflsUuXQlHu+ClMwMbSEkuFglRDACiHSDuYdlZW5kiDjuj98MoSwtO0CfdkLcnD3wiU8qa/kz1bBkoxmvaAVKErkiWA7vCc6KBslL5eueqNnZ/7naIl3vvgJ+/fvw84vh3LKDGcZz3Pl/r2fO3Zj3bD25Qy2JmjeSq4CpXOWe41Nb1gXKFqhphlaNa+hjonN26KToRDZaZmQ51qqYyhK6/UqJRXnq+LzBoN7oDOfrET3HXyxlx/T2/DlYH3uNbaY94N74Tjf9xWG6TUsfGsZSLOeIgVtYF4R73Od5mgljz1Kf/CYOW1pijLCwdQXwAohwmmCz7LzCvtewuflPY9tWzyRDGMM7GZQWHw5/w4uRHaGtcHrpajUXpLROl6VyCtv//f1pSvF3rEx7LrqqffjZIjxPLeuLgrWBLixkZcnr1BTg6nfDhZD3kZy2H2kVEWSp5qGorReufu/lhjzrmlx/xfF3GnYA12V+s6UhhTiB3dwE93Q11Q1IyUj43n5YUs1kgKk+W/CoGa9MPv4/WJZprSGMsLB1JZ0CiEC7nE4ejwQSfJUbLyGL477C99vT8HoLavh8DI3Bx/A/hdSPrCDgULmVMWSjLahSExS7v6vkqUrSkVkAP/efuhtqiypSWk0RmsDI3mbod1wAjhfobAawaDG5u3WRedelhAGR+LeU1VWXPjwqXhERhQmjsm+exfx6vpaaBBJfAQuJHJDtdz939eLz1PSbQTwCriDFUyV+c6USh5S7t9BskVPdG1fgeem/n9g0NtQ/o/aigRZ8bcRjA7o0kG3/GV5DUAF+XLlxxC9Df5TzChTUwDn4cH1S5wQ6Yn5+49gc6cgfLdkDTa5usJ1kwv2hbXDnPVT0bPPdLj9OReC33/ARhcXeDz7oHjliypYktE6UmMQFJABIWfJdy9n//e1pauMuwjl98xL3TsuDQEaNFSsKkQjLqm6yq8zKk8uUhPvyduN0LDG5sJthPY934VNRiAuRWTK+0qjAMnHnSAQmMJ+/HTM/ux7nJP2xfTp0zEk+098+9lszBhvj86CzphxnM9qoe1wxkRUmCy7n4Ndl7L3f21tYdWhqLBUbFGVsXdcGjIHzWBYTByI7joVeG4E9dGwsXweuRTHGUmFzdpFY3SadgBZWb9jSW9lW6GaR5KaiBBZqz4aN6xf/DuSWqSQ7wJLgtCJvJOqIOhUERNruJGCcqTyzhpKfhKFnPKlkKRSYiqfB9IGC+5aDdaSv7jotUpJ7L+WDCAkS5dgqnhEZiGvYkttaUPQU3lv9SN9kUTh573J3WU5zR03UP4dTGjghAW0Yf95is7Ik7+SIz+Rzq3fRReLXXddQxE7yt2nKorZLgvZc1GRmFF1kMaR5yQzsna5SsqiYGsvUm6Yh9CpUyGUlK/sWS4r/8ET8l9tzf3+Q8glpGJR/gqkj06Sk2ggN74z5D3l8SreulbMrTUSRU4Ifl4cyP3mWfL+QtSzgBX7Hz0sYaYs+4uKqL8ko4U00IPViGGwKqUqj+R+OHxvKdv/zcXD2Egk4m0M62VYuGeObMR5rcGmi09k/yqLes1aghN+HMmISap+dwsS38WFvSvwoUU/zHILRb7ZaHz5w3HckvIObDE4/7+vMc4oAbucVuAAZyFRwQP4rf8U0x62gymvvUvCsb1XM84qEnAHb/nEIjloDxY6OGD8jCkY2bsDOjt8j/PJubLwtN83OmKkw5RCS6nzaKw4cgtifmopBu978C+2O/aHqf3HZbxWgrRTX6CZ7G8rjvexPVxeqzPtFJyaFTnXazvCq8yv7QWepjwtbFq0gUZrpFcWgQHsJw9D1P5zuJH92o9RixFww9wKI0ZYlVLNR5H/QMn+ryJFbdHc+fmx8Jq/FReflbWDmYfECydwsPdEfGSlbGtLGQ3QrKU8WOl+ApLSq+wh1jh81TmvLyfDYepI9LVZCM8YbfWqkOL503RuVuZphzYtS6zqygWxShREuJEt99aqyW5VQE98F5MIBuTgEcvpjrWZHIrzmMLNVCY00zu+xLXKVxUwhTziCu1f6ZNztNx2Nfk9UZpLqzhPfGmBiNeyhNRzW5jy7FtVQg4lBf5Cc/vokbCPM7n5x9OLMn40aeZlchkzl1YtHk7Ckr+xNJPuHHTmtEM9sps6kxzXnnlpUUi561moBxKNW07fOi0m91tP5e8TU4TbGO46h3PaZAlLPy+C3B2saMKuMMqSvbiAssJ20iihFTl5xynJBMRdy7n1ZC8E6TmfpEeKLyaNJQ8HQzKZuZuCU1VdiyiHgjDa1lPISysVMp2pjzT1Mv12KpqU5amrEl6Ek9uoIbTc71EtH7sqIHt+DJSvECrGqYMHxcmf0Sd+q8l2+Tl6UtYNlD3bqt5nxdzKzwvDaVtYLclFKE0l/zUzablvAuXLs0yJFvjSE/lp7UJMYduGy8a7sqyHaljAivg3JdqdWrzyGrbtWr3FGjSPInRBWWGKBtDR5UOJhGjahDOLChJxxsULTTbOg31FzKTm7WBmzu8oiXE/LoW7q9VAwROE752PATaLcd58AwJOb4NT/w6vKjwpQaDbF/NWmsBvq+/r+94CXXQ06wQdTj/0v2uBz5a999KiELTsiv5DjJFx1Af3hnwBR/Pm8vc1hWkfa87avwKf4ETOln2FJNYf+3yicS08AYWR5PUhtJyCNWtbYdcn63H4bsmAGb6e8Of4cdM4ZLmt4SzlWPDuEslnPHBAtA4ndsxC71ZV7CSVmYK4+7y2LoKxUesqGD9lI2jVD5NHmKLagp2amGPCEjv4bz+F2Hx+nmG89OWw6QOLNiVWCBu8Bd02nOXbvCk3bvgVm7Nw2aODjYsHoGWp40iC9IuHsV1nBub0b6XCHFkfzQ06w1zWTkZcSo33vecg5N8+jk2JH+KLoQaoFxeOs3e5x7BxQy2tyiVGSpy8JrNxB7QtUSpWDQGsECKve/ephdpLMjUQxdK90tSdLWHtvA4bR13FpjmTMXLoGtx8fy1W2bWt2ICr3xamNp1kzYzbD/G4qm8dpcB/wzTYzj4MzPyJE04zYCmqiJOcADoWAzDGkvttSw3ZAAxHvAsLpY4l1hjWR0/JPchAsjiXV+1fUk/UDt1MSn4nXZj16weDjN+x+2xcMYEtQ9ACls5bsN+pHvZ9sgRbPNzwtdtbWPV9JepSl4Ek5R5CZfXIOsDKqJXSMLWaRX2IbJ2wte85fHc8Dqx4COF5RBCO8/kPhnRHx5IzrG4/OO9cjVFB32HO1NEYujgK729dBLtWpYsPenYVu7Y8xVcbPoJxw4qLX5767U1hI0vGkYrbDzO0M0xHJaQQP5HAbqo19ARi3PQ9jjOwxScjLTWWtrdMJGm4F5oga4qsjNC2xIBXXQDn3kOIDydEbPqhe7vX43lV5mk8bgRzGkLfLjCSxf/y2t4B/NSUm6xrdDzw6yhCF5Sn7uT3lQZjpc81hJw6glPn92GJXTsVtDoh2r9dKIChcmhIeYgRc3AdPvnmb4jNPsOOLSoKp8Zt0MmyDfQm2cFSWcgGR31Og1X+iRX3FBbofYifY9IRs9Me+VfP4PiBXXB1dcWPv/lz4vp1gf2SBkb4aNN/sbHPdayecRStv5iN/mVMiOojQWbiHUTI2qboblTRvTwtR/B/eOeLFbD99xcc1tq9uDfFC8RHhJXw5SgKv+qyDD4xV3HqoA/OH1oIu1L8RWRQMi58tw+5y5ZjbCc1KvoK9fF2N14CJyP4RjxnPtV0OIWv/zx8NYhTyrNv46xnIGcLfoAPrLQ0n3bmQ0RF8Bq3Hvp074iSJqvqEq6REQavdcPBrWNhzmd3qSxqLcnUTOrpW2O+myeOL3y3GrS1xujYtQdkUX8Zd3AvparC7iV4FrIHn8/7BbGcNbrov18oL7tWJiJ07GZeasrSKoMyEXnka4w06YqPd13D81YWGDLBGSvmfIA28peUhkDYGgZt+YXaQOze/QcixNXhsJKDxOgIThXgUDkJg3YjEHbD9NVDcPe7n+Cnbi73WkFj6FtPh9vBn7DQ7j/yPjXhnueI/TtwqsvnWDqovXpLrPX00NWu0D0zI/QeUmqNHxYh+8Y57A/Kr3hYlgaQJEbDXzbglSdXUl0AC9rgnZlOmPKOftWsuauxJFNTEbSwxHinCXinLI1XbQRobGoFB1lgYSSuRD1Wbu2pSn40jm3YhrOcYSN0+AROvOYpP1VxcpCZpqdk37sqycbdg4tgO+E02n/ji/N7V2DacFtYGsi3NRSQGIlRD4p7RdNjBLmswd8DPHD7j6Vo4/UtvnC9iLSq3tKkNEQF8jWgOZWkNnj8F4NfwRmCtdtHI4+7vyVz49Ud6qOF5Rg4TXmnFA/pikNP7iLe7HN8P607hGp/lBCmvfsVxhuHhSMqtbZsEjzB5RPeuIUBmDOyG3QoGec3/4yLGdqkYeQjKSoM1/lmKcmVtGCNV8UlGUbpiIxhZWfANWLhFxZfBTl6JUg//z+s8rnPtS0w9ZNhMFFxD6qQFui7bAsmm1Rj3mNJLP788SgyDMdg5sddikxYhNxs8SuBIImG11RPRL8cp9mIO7IOS9KmwnV2P5iNXIEDLr0Q/M2XWC5zyqpCsuJwzZ+/l2okYaghCIRmeN/eGFWwOVXnEfxfL3xQaUOnPkSmlrDjm+JwhN2pJRmhn93A6QOhwNAxGN5NCEoOwm+hzdCuuTZ5VWQi9tqNwmYpyZVq1yZrXUegD6vhvWTNxD+uIKqyOaEpAWf3Hy+MYRMNxoi+bdS0YBtA+J/mSrylCZL8PJljlCQ3X/b/l5AE+XzdNU505r9Mc8pTynvqtcbbA7oAj8MQHJUpt/4JBWlXsPfodRhx0i774WNkZj5GUqc2EPFPfsEjhB5Yg9mfPIXTF0Ogz1ssgpbovWADXIakYN8nS7EtJF3+WZXlVXL+0hP4MxhVj6BDTwy35dW9m/jjSpw8LaIWQKkI2b8b//P1R9DfO7Bw1nocieTGrvg+rvhfRNCVEISGnMXeFZ/Cae0xRBbdFuLTO+YAxkMs0UmQhoBfTqH9guEw0iaJ9rJeQhmFeeThSIxagZRyw7aTDT/bYxy5R1cu+lOa5E0zOeWSf0yEM70pqSoDPYvEw746+FjFTEo9OZ+Exfq5vz/3JKWW+p7C+EZp1k3yWj2JrIQmNHDcVJo+dTSNctxO/yalU9wfK2igUEjGI1aSV8SDV7F5sqN47HRB2DbqWcrfUJ8XFO0+rvDzbLZTWC6LmmW8KbK4531E4bM31J2ii4eiaggpPQ/ZSV963imMz5fH8wrHfEbLVh6ju3n8+JBQpv86MpONQQdyiyiaby2Log8voD4mA2nsqDHk7BEuj/3XHiTR7jRU9t1HcPNH8QxYCpgArm3kXqdtNiLuR69sYhMp5QRtJEPZA6RHQ91vc8OBoTaK5AxqphplMNSnqGL+KtGPZsmgoE0b6OSjwkQlL5V9kwXkHa8wHDghfWs/OfbpSaM2nisl7ae2oki6xF2TpQuFlJIGlC1B1zYadcaACdxQQyL8/g5FIv8IqIUE6UkJ4Hcs+Soe/Uxas/2KSkCJofjbjy80MACzhpgpCU9hMKoLARp16Y8JNvwy9GX8fTWJl8SaRfIA4RnmsJI520qRdTsEp8VCWH46FSM6KHxFBNAxn469V6/BZ+XgSju1vVEoCVf/vsw1RLCZ9R66leJwyebUWkdTdH3vQwzhWuKTZxCUWBX+qI2hq6OeWw2lB8DtaEzx/d06Rx4Sg87gJB8iazMMA7pUd/4rBqMEjUzw3jR7rnEXJ32uVkIxryLqdcbEr4ejrUwuKeqglxY7XfOgxKvwOXmXa9lgwoDOpTolMgFc6xCgodkgTBttyD3X5+H5b7ya2W/qQ7dVW/A+1eqTj+R//kV2pzalJNmoI0jjcG7v39w0Y4jRTsPRrSri5xkMlWgKs6GjMVrIK+an8O89DbtiCZqgefMmhY6I0iSEn70FCPugX5cqyK6ocXIQe84bh/nQzdETMLLb6+FHCpgAro3UM8Kw2Q4Q4T5+3+WLm3nqqLsC6LzdGyNksTK5eJatuiVNz0LgEWiOSb1Kz/jEVzr6c+9RXK61yRsIeTfPwv1MMiBywOxhRmzQMTRCPaNBmD3VgpPAf2LXqdtaE6tNjyJxMZAbH8pyZ5eDVs4feVHwdT/HNSwwdfagMj2z2VxQK2mA1oOmYKU1Jz0Dj8D7Srq8XzUErfpi3Kf8fnIUzl25q1pcMT3G5V8vweyL4dAv1eDjNMUjazBy9hacuF1YPqH2kY4r3kcQyKlD1iunYFAVlO9kMNRCoI9Bn8yENTIQ6OaDK1qRa7/I/q+y3Nlloo3zhxTPrvjALTADsJ6JTwaVHW7IBHBtRacHJi+ZyE37Afhp379IUssIboX+c+ZhkigDQbt/g29CjvxEORQ8Qsivbgi0mQmHlw4VSpDeR4BXAKA3FMN6a2ku10pCSf9i30/cNYomYsnkHlAjmy+DUUUIoNNrHJY4mnE6tSf2nXugeWesyuz/auP8QQ9wbp8nZ7KYwXHJOPQqJ0UmE8C1lobQH+4os4Iz9v2KQ9fUKVAoQEPjj7H16HrYJ7tjxdpDCM8oKzeUFDnJV3Bg9U5c6/UpFlj/X5naH8UH448zyRA52MCilhXeKCQT1w79in0ZvPXriOH6FakexWBUIwIDDP/sE84KjsI+16O4lq1hEVyJ/V/tmz8I2deOwnVfFGf9foLPhhuUOf/JkIcjMWolfLHvVbJAdtFML4pXO44uh1JDPGjhQAMS9plFLscCKTop62WBe+mLJ3QvzI8Ofz+fHNceobCyithnBtE2x+k0ffpkGmGlx41+PbIaMZn7N9c3cxP5JuXJX1jzkT70Jke++LrZKvJ7okjzwWBoGOkj8ltuw409M5qpSIShIV7G/1Y0QYg2zx/SePJ2NOO+kw0t93tUoRwMTADXdvLjyNvJSqWHojSkL5Io3M+Lfl4znyYMNOE+kxs4QisaMWc5ubj/SSHxmSoM5jTyW8Z/r8pn7NJKXk5yVuTkHafRSY7BKI6U8uO9yclEqGHlUEpi/7VkoFZyGm2bPxTGjpBMnLwrbOwwAVzrkVLenYM0ibfErLdQUKaWWGI5weRiyU0AhhspqJQsMTWXAk5R30LWlV55YDCqi+d0x8ORRBCR9cZAytTII1pA6f9+S9bWC+hwtPJUjaWiZfOHNDOQNlqLCKK55Pkyk1f5MAFcJ3hB8d4LyAQGNMTlsoYGW3GkcR7kwAuoBb70RN5XW5BmXiaXIQYEE2fyvFs0fy2DoUUoVseEDuQS/KRSq2NvGq2aP6RPKNjFgYToSY6eMaTKIjhzwqoTNEGHUV/ih4XtcfabzdgdWlUVftRFgoyYcPjXxrJ8lI7Q3ZvxzVljLN/xFcZ2Yn7PDC2lgSFGrV6Hhe398M1KD4Q+qyn56rRp/pDgWagHVn7jjy7LN2Hj2M5QxdWSCeC6QoMOGPHNj3Cxvoal837EGY0Grmci4lIgMmAG267VWaT/TZOL5DM/Yt7Sa7B2+Q4rhxpUspYrg1GdCNBA/318c2A9rIO+xbxNZ5FcrPSntqIt8wehIPksNs37FkHWa/DzyiEq56tmArgOIdDtiwW7XOD4dCfmr/RERNH6mm8SaSpir9wH9Hqjl4k8TVt+LLzmb8VFrUgOoA4SiCM8sXL+QQjXuGP/wr7QrT2aBaPWUh+6vT/Frj0T8XTLSqz0uAmxtstgLZk/SHwTHitXYqfwS/y+3xm9dVVPuMsEcJ1CgIadPsb2Ez/i3UtfwXGDhjTep/G4EZwM9O0CI1n8ngTpFw/gp6Y9YF4j44ELNeENjl/h0rvrsGPpoJpVuYVRx9FBp/GbccK9Ny7NXoANZxJRID+jlWjD/FGQiDMbFmD2pd7YtmM+BumpV0KCCeA6R30Izadix4nNMD/ujCnrz715IdzgLei24TTX5k3RRFAovFz26GDj4gFoWePkFv/9z2H9FGccN+cmsR1TYS6s06UnGDURQXOYO7pwQtgExz+ei/V+D7RXCGt6/ih4AL/1c/HxcRO4n3CBo3lztZfBBbwnlrzNqFNIII45he0/BsJg/hpM6/omS+TlIvn8Njg5HYOkrx6ypfZYt9UZdmpqkZrlOSIPfIsdiTZY9MVImDLhy6jJUCZifH7Bj+faYf4Pk9FVKyt3aXL+IORFHsKXOx7ivUVz4WCqvvDlYQKYwWAwGAwNwJagGQwGg8HQAEwAMxgMBoOhAZgAZjAYDAZDAzABzGAwGAyGBmACmMFgMBgMDcAEMIPBYDAYGoAJYAaDwWAwNAATwAwGg8FgvHGA/wdL0NiNG+COBgAAAABJRU5ErkJggg==;" vertex="1" parent="WIyWlLk6GJQsqaUBKTNV-1">
          <mxGeometry x="586" y="903.63" width="223" height="43.67" as="geometry" />
        </mxCell>
        <mxCell id="a27hsYVGrG07yMlYosN4-41" value="&lt;span style=&quot;color: rgb(0, 0, 0); font-family: Helvetica; font-size: 12px; font-style: normal; font-variant-ligatures: normal; font-variant-caps: normal; font-weight: 400; letter-spacing: normal; orphans: 2; text-align: center; text-indent: 0px; text-transform: none; widows: 2; word-spacing: 0px; -webkit-text-stroke-width: 0px; background-color: rgb(255, 255, 255); text-decoration-thickness: initial; text-decoration-style: initial; text-decoration-color: initial; float: none; display: inline !important;&quot;&gt;Profits (equation 7)&lt;/span&gt;" style="text;whiteSpace=wrap;html=1;" vertex="1" parent="WIyWlLk6GJQsqaUBKTNV-1">
          <mxGeometry x="702.5" y="880" width="110" height="20" as="geometry" />
        </mxCell>
        <mxCell id="a27hsYVGrG07yMlYosN4-42" value="&lt;span style=&quot;color: rgb(0, 0, 0); font-family: Helvetica; font-size: 12px; font-style: normal; font-variant-ligatures: normal; font-variant-caps: normal; font-weight: 400; letter-spacing: normal; orphans: 2; text-align: center; text-indent: 0px; text-transform: none; widows: 2; word-spacing: 0px; -webkit-text-stroke-width: 0px; background-color: rgb(255, 255, 255); text-decoration-thickness: initial; text-decoration-style: initial; text-decoration-color: initial; float: none; display: inline !important;&quot;&gt;Bank.B = rationing_shock1 = rationing_shock2 = 0&lt;/span&gt;" style="text;whiteSpace=wrap;html=1;" vertex="1" parent="WIyWlLk6GJQsqaUBKTNV-1">
          <mxGeometry x="340" y="190" width="330" height="20" as="geometry" />
        </mxCell>
        <mxCell id="a27hsYVGrG07yMlYosN4-52" value="&lt;span style=&quot;background-color: rgb(255, 255, 255);&quot;&gt;bank.l = X&lt;br&gt;bank.s = 0&lt;br&gt;&lt;/span&gt;" style="text;whiteSpace=wrap;html=1;" vertex="1" parent="WIyWlLk6GJQsqaUBKTNV-1">
          <mxGeometry x="422.98" y="352" width="74.02" height="20" as="geometry" />
        </mxCell>
        <mxCell id="a27hsYVGrG07yMlYosN4-44" value="&lt;span style=&quot;color: rgb(0, 0, 0); font-family: Helvetica; font-size: 12px; font-style: normal; font-variant-ligatures: normal; font-variant-caps: normal; font-weight: 400; letter-spacing: normal; orphans: 2; text-align: center; text-indent: 0px; text-transform: none; widows: 2; word-spacing: 0px; -webkit-text-stroke-width: 0px; background-color: rgb(255, 255, 255); text-decoration-thickness: initial; text-decoration-style: initial; text-decoration-color: initial; float: none; display: inline !important;&quot;&gt;lender if&amp;nbsp;&lt;/span&gt;" style="text;whiteSpace=wrap;html=1;" vertex="1" parent="WIyWlLk6GJQsqaUBKTNV-1">
          <mxGeometry x="650" y="264.03999999999996" width="160" height="20" as="geometry" />
        </mxCell>
        <mxCell id="a27hsYVGrG07yMlYosN4-48" value="" style="group" vertex="1" connectable="0" parent="WIyWlLk6GJQsqaUBKTNV-1">
          <mxGeometry x="638" y="230" width="189" height="50.03999999999999" as="geometry" />
        </mxCell>
        <mxCell id="a27hsYVGrG07yMlYosN4-45" value="" style="shape=image;verticalLabelPosition=bottom;labelBackgroundColor=default;verticalAlign=top;aspect=fixed;imageAspect=0;image=data:image/png,iVBORw0KGgoAAAANSUhEUgAAALkAAAAlCAYAAAAeCUhkAAAAAXNSR0IArs4c6QAAAARnQU1BAACxjwv8YQUAAAAJcEhZcwAADsMAAA7DAcdvqGQAAA5oSURBVHhe7ZwLWFNXtsf/KD5G4wN7LcWKVRGklZaOoDNQa4FWdKR3cOy02sfwAW1HtFW0WtG59dEKdGqYzmBnpLaDt3LtLfgZastti2JQUcEOsUMqiImIIhgQ5CVBgknOuvskB8UIMYlEJfL7vvNln71Pzjl7ZZ2119p7nTgRA3304cD0Ez4dDB3q8hIRMmwqXs88B06o7cMI1R3ExpAJ8HpdgvP3gXAcVMn1aKkoRSHG4dFxw+Ek1PZhhFoqIS/UY/yjYzHyPhBOn7vSh8PjoJa8jz6u41BKTupiZLzzCsJfex7TA5cjXakWWvoANeNkxlq8FP4Snp8egsXpp6ARmhwe3l2xDQ2p8tLo79ln6KpQc1fhailvfSTFZZ8nrVZGYg+QS2w21QvN9zc6ashLoPC4H0ilbSGZOIjgspKy63VCu2NjoyXXQy1PRczcCLz98UGctTZCv1KIpMBRcHJysnDzQvDC5UjY/j2OV1/BzUEEQVuaicTK/8SyUHf0K5cj5wwweNAAOAtHOAKkqcbPBzKxPWkNYl4KxqTOskk7AGWTVjiSoauCNH4bjrQyaWlLkZFYg4hlz8KtXxXkOQomnIEY4Nzbo8521Mm/xacb/wtr4j9EkjgB69e8jy27jqFS00kpBWW3Cq7hMCUEu/O6RhDFkESlFVqshSNNQQKN58+DUEooqGc1puiprbGSSqSfU2wQu6ZoFi1PP0EtNxzIW6p/UKJUxb7fQkXJYex8M2hd3iWhvXfDtZRRbmochXm4k9+Lf6JPswpIUdlAbYIMuLZaUuR9QSsWvENpxU3EaStp//rfkFtMFl3kj2nII3GilGo5jtqLtlAgROS97hA1G7/eO+GaqDj1TfIO/oCyK9TX9UZ7iYoM9Ztov0pjqLJeybUVlLViEW3cFEVuBuX0o9XSOqHRWnRUn72SXPjzuG+gPPXNKt4ZrkVOqZG/NFwzRlJOXT5arf8icYALwSeRClrNn+/eh7mE+dto0TQ3Ek1bTCl5FdcUuyu45mMknr+I3ls5h0Rwp/C00yZGo4m5KnOY/IIovqBRqOuNaOlidhx5i16hVEWrUNcJ7iJJ4wJJ9NttVMwEZqWSt9KZ9Dh6K11J7SoJRYp4JReRr7iQ/Ry2UE956wLYOSz3n7kLEopyYdd1WUySC6bRAEetBYnkw+7JJz6f3a2d4Gqo4MtsUpjTuNtFsEierC+ekalU1GBJ5MP6L0uiAIPxCaeUEhMJtOZTvI+o9xsAwZC5dIxUN9ExYnlTlKTCGiXXUUtRCkWtzWHDHtvVl1JqqJtBQRGaSgq98Sir0J2glBnM6nZpdbqjjqSr/dh3XCgw+d/ULtQa6WgLo+SiFtZXFUkT/0F5DT0cYBkC20W34abdAq6aDm34DbPGvIJ/QcUtVty/ppDEvkyRbxoZ9dQsXctG3w65aalWuoXEebVCuxW0KSjr0y9JqqjvejS1K6wfeRvJG24UmlrK9rqhWUqr3UCil9MtDzypsQCfbNFiyZpgjObjlX5j4DvLx9iYX4jiizpj2Qro/L+RfaSRlaZijt8YC1cmR8Bz6hPssxH53/2Ec52D3ss/Y+//HGfu/XzMeZwNM9UF+PL4MDw8or9wQG9ADeXOjXjj/R+g9n4Ln3z0KqaIrLj/Qa6Y6OsKt5dnwndoZ4k2QLZ3H6rxHF6f442BpMLhL0/C9eHhQrsVOA/F8PYDWOP3FObFbUfuyVpoeHN3R1Dj9I9HcQpD8NDIod3PgQ8ZgdFD2NFZBy2cJ9edx3fxmXBdHQX/4R0CFzFl8wfzy9mZCvFjaZOh1nL0aFTKkccX3Z/ElEd+Yai9NU5wHjDQWCw8ibNNemOZR6dFuwbwmOWLiU51OLLt/zA2dg4m9JrVAD0uy/6Jt5dsw2kEYMXfliH0QWvnh1zwyONTMPtXkzBMqDGih7adGSKP6fCdOACNR3YibexCPD9hkNBuBc4PY+ayz5Bf+Q3emazEx7/1x8zoJGQev2B/ZadanDxyihXc8fgjLJrrjv4PwN1/PNNNuSVKfgXlkhTkPrUUEZNFQh1PPwx71B+zDVUK7P3pHNoN9ZbSjJKj+cwes59lfgCm3GB1LKRRjdb2TlId9RSWbI3FqM9WYeG8GHw1aTnenTG69+SuaBXYHZ+MHDUzIeFvICbEzYZ716C5zg1P+zxo8t0H8cySNYgZtROrFr6AyK8eQcK7M+Bis3CYsRnphZDoD7FHdgDJzwNZi5/BjAXrsD1XiSadnbRd34yLxZXCjhmc+mPAIN4g17IHwywmfrgpt+OX2+SP86ipKJmfIeCDKzv6xeawi0/OzzS9K8xY+VBMVpUVMumMllouNZmdhbEXXFsVySRJFBPsTR5hcZS6V06qNluCNTPUZ1MsP/GAIBLLWNzVLedJEuHBjnMx75NT3WH8pbMfbspt+OW2+eM8atSUVxuL48dhzKje5G+bgc4jZ0cm85kZLs8ibLqrjSOQM0QPjMBgmy207TgNfhh+81ciZd9RfP+OFxRbFsBr5ptIyjyO6s6LM7dDeysaebWxmEYz7oruLL5+fw/cb/DDTbHVL7fVH2e0V+LEwTOGoijAA2MG3oVf0w5QDXvos4R+hc+E3+hevFbrPApeIdH4aE8+5MlzmR+zDF4+8xG3PffGVdk7RDdKroYiLRm5IbEmfrgpN/rl3xecZh68JVz3x0Vz/eFthT/OVfyMHDmfeOWGwOd8MdYhdJxwteIUDhryyVi/nn4Mro7QL2cXTAx4Aau250CZEYmxJ5Ix1//3WPHJnm7SM+xDF0rOR/j/jc0Xf49Nv5twy9wPJ9fH8HQgb8vVKM6W41ynyY5u0atQcoCPkNkPOn0SHjDWWoAGZUeysY8vip7Fa0ETzAxFNqJT41J1NarNbTWXcFnfiqbamq7br221aLJomNajQXUe5wzl8fiV54M936+7idMQuPnNw9K/7obs+1g8XvUFFnjNQnTSNyhptHLq2XkgfmHO7t4Ev55uAlebQ2ujUqjI4gWIZpKJZ/EPJdtepbTyW699ctdWS2ex4MGKDIqrLFidxQe6IvKO20/1PR5c6aiOBX8ehr70xDae5qUpu1+wuIaWVJJFwnduFVB1D1d/mLbuUrBe3MNo60lxaAetDnYnkV8kbZU1CA0WImSYWh54epgEnrwf/qEUvu9FwNfiBYhOfjmKcVx5K7+cQ0upDHsNHoc/pnpa+lgya3c4A8k5LDRzeRF/ejMAo7oc0vVQK7Ox/X+Podrqaaz++I/Zm1FmzOnpftPKIPZYBIlK23X7tY3J8w+eFljl/hg++iG4C3u2oUX1wUO4MtGVna0rbkcuPYCuAcrc7Yib9xT8Vh3C6Le/hvJIKhb7mZnr7or+I+Dqw0uqEVWXWo11XaFvRm15AyvcMCryfvgnOBqyGC9MHCLUWUJnv1yOzKNKmLk0Q43TP8kMswii2f54dJiFA7OmBLuSd+IUfomolLVY6NHNPXKnsWtpNF5f9S1Kr9yFH9MmnDBksj/CDL93Oy5fuWqotQa6LENa/hS8PHWEUGPCXZILaS7geGYSogKfxNyPlZi8LAPKvM+xar4f3Abb4JQ5jcL4J8ayghqNrWbkRO1QV/NR38QOJe/ww+fjvbBxVudgX/fLgcoDJagw55dzKshzilnBigCLmiD/PB7vfqtH8PqPkPDCJAwQmkzhyvKRsa8abn94Dv7DbRDiXcJp9HS8+MdAVjqF/T+esTCAF6BLOPb5UXgvm4Mx3cjzzsqFoGtSIjctHpEzn8HibzQI/vN+yPZ8iOjQJ2xT7muMhG9QENOeizhR1cA0t2uougwyfrIqNITtMKz3w02x3C+32h/nmkmx8y3yhDsFr99HKq05R1xD5WmvsnPfzmKKBdhlMYijq2U76WV+ocMzliQVbUL9LdDWUOG2Dygpv85Mf++QXPjc/7oSkgq579MixSSRVfX8wlRHOnV4GpV3ee6OZLSOLERtOUkWR5H4UBmpVCobtyo6lf6WMS8cvhSbXSNczJSOi7Pj3NaStNlcSMaRtrGUfhC/Sp6iGbQo5Ug3Cs7OWfB3ioqIoIjXwsiPf4BEfhT2GttndZEbsknV00K2WxaihlT7N1GwyJL0WqZQqmOUtmYdbSus6SIb8E7Khb8XGUnE0TRN5E1hq1PtnKEo5JN396KNtozSI72v55OfSo0QlLPnNvd1eaQWrtcZrq2Mvl5uzB/HgnQ635WQtS2kUhRS9o5NFDHNw2gNii5aJjAhvdLm1F9LsWuqrYZqZWm0PMidRNOiSbw7nxSqlmv959rq6WyRlL7avJSiNuyioloLMvntJper1KjIpR2bImmaSyBFindT/pkGOyp3J669GbSBss40X1d0fmT79I0b3wyaZXAdenjrLEw+R2WmkN9i0eZJQQuW0vqtGSSVq6wY6jjSyMTky84xPr7Axpc4LMSuSm6Ea1ORXJpBW9cvpQVBnkbZ8Jb4zTgSp35HsopmC5XJHnLRUF3JPkpdHU4eHqEUI5aQTNV6s0W1O8wgFH1HqQnvUdymRBJvjqd1K+IofscBKu/keht8csegw+805y71EHdAyXsOO8il+RCtC5hHq1OlpGi8J/6rwSy9Z/rhljRBeZyftfGBn9dIY1UfDDvIZfhMfJD/NT6KDoHXyO7mue4dHEfJW5U4milnButJPDZGeKnCXvQfixkf/A4+Lr0gA/JOyuUexWGUnLtwGj9WAm6zp8JzED9ZTNCW78LSxMO4bDyk53Byxa9fmQ2vu5HPaiV3VC73KA6i5Ho0nT2JQrhjus8442tfVIfDn+3G0F9PNnkN7H6iTy48DqLkTnAeMgyuGIgRQwexvXZU70vBPwcvwcpg09fA7if65MLjOH/drKtC7ubliMnUYPpDenBBcfjL8mfg1uv/Cu026ZNL3/+T9+H4ONAUYh99dAXw/wRN2QcWJJENAAAAAElFTkSuQmCC;" vertex="1" parent="a27hsYVGrG07yMlYosN4-48">
          <mxGeometry x="67" y="38.03999999999999" width="105" height="21" as="geometry" />
        </mxCell>
        <mxCell id="a27hsYVGrG07yMlYosN4-46" value="" style="shape=image;verticalLabelPosition=bottom;labelBackgroundColor=default;verticalAlign=top;aspect=fixed;imageAspect=0;image=data:image/png,iVBORw0KGgoAAAANSUhEUgAAALgAAAAnCAYAAAC8A4JRAAAAAXNSR0IArs4c6QAAAARnQU1BAACxjwv8YQUAAAAJcEhZcwAADsMAAA7DAcdvqGQAAA3OSURBVHhe7ZwNVFRlGsf/JKarY4ktGO6iLCNImzb4gSWhgetHhabZluuuzYK1K+R2sA/BXL86ka2Nuye0Ft3TuImdPdjZUVtywxI0NNAFdCiIIBkEcsCh+HAG+Zhhnn3vnTuGIwx3RoZknN859/DOe++de9+H5z7v/3nf944XMeDBg5tym/DXgwe3xP0cnOqRu/VRjAp5HgdrOoRKDzy3oG3c0MH1qC4uAwKlGD/aW6j0wHML2sajwT24NR4N7sGtcRMH74LhqwN48aknsHLRg4hIyEBFu6djsnCL24aTKI7RTtrcdHo7q5I6hZofG3PjCdq8ZDNladvJWKggKWSUmFUv7L21udVt42AEZ9GgWIn4R+X4099OoMosVIuGcKXor4jw8oKX2G1iNH6zdhv2HjmLuvaeLtiKsgN7USt/Bgv8CZri/6ES3hg2dIiw3x0wo73uCxw/uBc7kuPxVHRIN9u8gfScCjSbrFGZYKr7FCm78pll3Ng2Jh2KD+/G1k1/Rso2BRSvb8b6LbvwwekaXNNBCY4uCnPjSXo9OoA7nSCJJ5XWKOxxhmbKT4m0fNes7ZTfYhLqu2Fuo6baLyn73RcoSgKSRK2jjNJmMgu7LegoV7GTsnXsXjrOUWqEDyF0K+W2dAn7BzMm0muOkzJpCUkl4fTkxj2UmV9GtU1tgg26qK2hnHL3JdPyhPepRG8io/YT2hwdTvGZ37JjbkLbmFtIk7OPUpLfoVzuvpzArC8mZWwERW/+mKrbrG0xk7GxSKj/hLRGi4XEO7ixmjJfWE1bX4sjf84pMZ2SshuEnc5QT1mJMt7BAzblkkGo7Rn2jy55j2KDJYTgRFJVtwn13TFTa+EOmgUJTU7Jo1ahdtBivEh5aQkULvGn8NW7KbfGYPNgd8dELQVv0bLVyfQSH4B+R+madmEfx01gG6OOSo++S0kxoez+WJti91BBYw9BrS/MFynrhVkkWaKk8s7rLWL+/hglh0rpsbRi4rxEpIO3UmVGMq3JqKAOrYpiWTQFM5ZMUcAUuZMYcmlTAPc9YjVhJ11UJZAPeyB84lR08bq2NbEeIYp9XxSl5DcJdf2NkXT5h+ijcr3w2RVYI9FU1papFKssokYhGtmnmQoVD7NzmE0j06j0Gt8ZCNv0gvESqVUKig1nGgmhFLN2Jx1SX2KWdAbrgzpZ6KF6Qk/q1BiCTwKpLnaKcXAWPdVpFPfKp6TjvrGrjJScoOMMuYA9RU72dqbSNIrkewLbaGOHlmxK8ufOiaFUtY2TWfdF7CR1h5nMumzapsilRmF3/6BnThRDclWN8Ln/MeuO0xY+CnPOXUx6Mb7NY6Z2lkTKeuoRB8Q212LWn6ccZTLFSFmvyzl2kpJyNC29OKVYvqPcTZysfZKU5T314hxdrLmvMJUhpRUZmr6TTGrKx66dRjy3Phq+XqzitnGQzZ9s2ZlXgJJLJkvZITpQU3QKp7hiZCSmjx/G1/bJqCBMmxPICmdxpOhblnpZMeNy4THsr/PHgmfmY8rtJtSdzETR2Ltxp3DEoKD9K7yf9CJePd6E0Be2YXvcfZBwNheFF4aNC4IM07Ei6h6MFGoH1jYswW0oxpE9yVgcFoa5iSfhG78fap0aH21fhehf3MHu8gboqMKZ/6hZYQxGj+ptJvY2jLhzDEawdDoz61wf4+CmGhxJOYixSXGYcYc185YgeNoMMB0OGApwpqyZr3WMZlQUlfClgOh7MUFsUu81BEOHcQfXoeCLavYtVphhjZ1oxyTMl/0cXk152JPui8RFQYNnoJ8aUfj2Bjz33jkW8NbgrfXz4OeoN/hOwJTgcNx/z2ihgmMgbMM5thoHdzyLiKAwLFKU4951B6DW5OCfLy+FzFdkAOsD0pbhVLEBkE7EBN/elxoM8QvADPbXkP2FvTZegUaVhpwHn4d8kkSo47gNo+6ZgYV8VTmOnr3A4rGDtFbg84PFrCDDsgdDukUb8TQ1tXa77hCMeehZ/D3ejH+8vBJLYz/ExNfXINJnsAyHEYzfHEbKqx/CgEAsWSfHXD8n1opcaUFDSDgmj+1+ritt0wVD1QnsTX4coX5T8fuMNixMPQ6NWoXtqx/tN8e20tV4CZawaB8v76Hgr1xbz0zbIza625Yb1OFO6W8Ok5pSp3Kajp0rV5FWqB44XKTBzXWUtZZLKlm7fBIp85KTw69GPX13dQjRlbSTTn2IFPELSMruWRK+ihSqc6QTlQw7i4m+z3qJH2SAVEGF9kykVZGc968lPWtwajiJv3bX3bbckA53Un9ztNRDc4F1UYzAkHFMibkHVPsZ9r3LpAnDZ/k8zLTT/drFW4K7Rg+/MZ1rF0K7Jgs74uYiKOxp7K6dig0551F3RomXl4XB19t1V+au3dFqQJPwSRwtPUgUUxUOvXoYAdfobltuRIc7qb+5BlZ9iRN8C6WYNXEsbufrBzsm1BeeQCb/3AZjyfz7eg4qNwWd0JUewwf/zoPBZx5++7tFiA4PdCARHnhsHNyA8vRU5MxNtNHdtlyrw/+b/w1T7CK5qr9D8ehMqQP6uwPVxf8DdyYwDfOm+rswUg0kraguK2GW5wjD7Ml+N3G7hmH8YgXyNOeg2jAGWX+czSL5E0jeewJVhi7hmJuLbg7ehcuF/8Sbl36N1x7/BfrqJL3G/hKzI7gYbkBJVjEuiGxfV3UpjtdypSmYGeKAyDBfwKkDvLCBZOliRE0czpf7DxMM39Wjrq7OznYJ313uRFuzrod91271ze2cCBTBZWgr6izFgF8i+Gf9m5j1P17w9g3DspffRV5VCY5uCEXptsUI8p+DuB2HUdzgqjeF2HVvv51pB0e4k3X8Ambdp/RKXBqp9WKnT1tYwjXfkhiJThaNTP/HE7tJgowlCu1ikxIzdZbupvn8tSIoOftS/ydSDR9TIj8pwfvlDW+SpelUKSr5riGVXGo5r6/kqVdYApabTh/0OvnhWvhJnX2vkZybreTXzPTHpM71WFZDirDT1SRztZBkcrr7jWzINsohk4gVxd10OEpQVCFGhzej7EwB3x37L5yG4GEiO2NqwMn0dHzKij4rnsMfZvv2fzf+04fx1nk998Db2fQoVMRArqrpYd+1m/7Q0wjqMYW3ZSR8J/gJZSehizjxoR5BP/9xor+XRIpo+Ubsy1NDvW857vr8L5gbdD8WJ+/BkWId6xv7hyFjxoIf2misZz1p75Khq0kHDVcIuJuTKJzu3oXP5ybgiaAR/AHi6K7Di3Hw8wqmJvug4wLOHi1nhWAsvH8iRllq+4Bl7l8dRuo7eey0BKSlPA7p0F7cm1pQcWQ//nVa229GdT13YNLMmfDhip0GXOnggrkjMGl55jDyIhZh2ogf2S7efpAtewlp2YXQ5KzDvaVvYVFYGCLidkB1uhoGR5tmg5dfIO4LYIUmA1rt2InaDOBF3zQW71sKdtKqbSep0Zn+pPt4+HULfK6nq1xJC7hj7a4luBazvpB2PhbIur5HaPOxWruLdKzf75+UzQSUK3DNOLhlBRwnjx4mRWGzUCsOc+Mp2rHlQ6q2Mwbterv0hjBeHhvBZKmEpDHJpMw578D6GlsaKDtpOm+nVHVv6087qSYjjh3jTwuUZQTHdLctjuhwx/W3WV9K769mDRLh3ERtVK58kt3HjS7jtYerFlu10vn0OPJhThAcr7LrrD9gJqPuNO1Z/w7l2V12OhB26QvO0Y/Qbm5dO/v/8xNDmWVOOLp1NWEALUn/pheNLzwE1tWEis/Ok1ardXL7lr7OWGOZXepz2av16RMTSTqpqfy/pFguY8ZIoLS8i30vrzR/Q+lLAm5sJrBPXLia0FhLxzY/wgKAiCWy5lbSnk6n9clKKtD1kdwPiF3EIrzAsXEFTfdZSemVDsxiWxHWg/f8kgx76KsPUKxP4A/rwS3Rt3+23l9c6KK26kO0lu+GA2l5RlUPTx+7Ob2WyguzaN9rsRTuE0GxikOktvsP/J7yU9eQXC6nlTHT+d5BMj2GVrLPcvkfaEtWbS9PubO4eLmssZ4K01+iKO4lh1gF/Tvva9LqrU7JbNhYRersf9Gb8fG05cBZO1PjA22XgeXqGz2bMqnyqvqw9Gi7bd7o4bISzjn7hwVKlH+8CiHC6EFX6W7MfSABuZZZjL6RRmH5oig8NGs2HpzzAKb4jxA5WmLG5ZyNCP3Ve5iizMHHq0JtZ7D6CQOKdvwGO4PSsG8Zl+24Au79yxLk5Z7CZ/mnkPtRJk5UGiCZ/hhW/Go2HpgTjXkPyTBeImY6f6Ds8iPAvZN59CMcOV0J809GYxhdRt3lkQh7+Eksi5L+MLvKu/mgx5oLRFJKvmNJmmO4OIL3OwNll5sX93igSYevTn0N+NyPGSH8uKUHDo9d3KTHaqpEUW4tMEeGEJeuAR+O8ZHP4qnJ/Kj1zc+A2eXmxQ0cnNBamo+DTRLIIu/BOHGi3Um84fvAUsQMimjoCrt0QLP/aYyy/e0aZ7ZRT2O/xvW/cOsGP77Zjoq9ckx6RoOk7Cxsn/tTVncFmgN/Qca4RGyYfZflsFsO19iFDLX4slwHo/DZaYb6YdKUANcvteWV+KDG+vsqP0w08TODkZso+3tnJ7DcAY9dONxAonhjxB3cqhYJRg5nOtNUi08UBzD89ecQPebW1J0WPHbhcAOJwv0WXw7ejF+Hg10TcfeVkYjamoK1c37W55p298ZjFw7PD+B7cGvcZmLLg4frAf4PSkS4ikf5KgYAAAAASUVORK5CYII=;" vertex="1" parent="a27hsYVGrG07yMlYosN4-48">
          <mxGeometry x="67.5" y="3" width="104" height="22.04" as="geometry" />
        </mxCell>
        <mxCell id="a27hsYVGrG07yMlYosN4-47" value="&lt;span style=&quot;color: rgb(0, 0, 0); font-family: Helvetica; font-size: 12px; font-style: normal; font-variant-ligatures: normal; font-variant-caps: normal; font-weight: 400; letter-spacing: normal; orphans: 2; text-align: center; text-indent: 0px; text-transform: none; widows: 2; word-spacing: 0px; -webkit-text-stroke-width: 0px; background-color: rgb(255, 255, 255); text-decoration-thickness: initial; text-decoration-style: initial; text-decoration-color: initial; float: none; display: inline !important;&quot;&gt;borrower if&lt;/span&gt;" style="text;whiteSpace=wrap;html=1;" vertex="1" parent="a27hsYVGrG07yMlYosN4-48">
          <mxGeometry width="182" height="20" as="geometry" />
        </mxCell>
        <mxCell id="a27hsYVGrG07yMlYosN4-59" value="&lt;div style=&quot;text-align: center;&quot;&gt;&lt;/div&gt;&lt;font style=&quot;font-size: 10px;&quot;&gt;d=∆&lt;span style=&quot;background-color: rgb(255, 255, 255); color: rgb(77, 81, 86); font-family: Arial, sans-serif; text-align: center;&quot;&gt;D (lack of capital)&lt;br&gt;&lt;/span&gt;&lt;/font&gt;" style="text;whiteSpace=wrap;html=1;" vertex="1" parent="a27hsYVGrG07yMlYosN4-48">
          <mxGeometry x="77" y="17.02000000000001" width="110" height="20" as="geometry" />
        </mxCell>
        <mxCell id="a27hsYVGrG07yMlYosN4-60" value="&lt;div style=&quot;text-align: center;&quot;&gt;&lt;/div&gt;&lt;font style=&quot;font-size: 10px;&quot;&gt;s=C+∆&lt;span style=&quot;background-color: rgb(255, 255, 255); color: rgb(77, 81, 86); font-family: Arial, sans-serif; text-align: center;&quot;&gt;D (capital to borrow)&lt;br&gt;&lt;/span&gt;&lt;/font&gt;" style="text;whiteSpace=wrap;html=1;" vertex="1" parent="WIyWlLk6GJQsqaUBKTNV-1">
          <mxGeometry x="690" y="280.04" width="135" height="20" as="geometry" />
        </mxCell>
        <mxCell id="a27hsYVGrG07yMlYosN4-73" value="" style="edgeStyle=orthogonalEdgeStyle;rounded=0;orthogonalLoop=1;jettySize=auto;html=1;" edge="1" parent="WIyWlLk6GJQsqaUBKTNV-1" source="a27hsYVGrG07yMlYosN4-61" target="a27hsYVGrG07yMlYosN4-72">
          <mxGeometry relative="1" as="geometry" />
        </mxCell>
        <mxCell id="a27hsYVGrG07yMlYosN4-74" value="no" style="edgeStyle=orthogonalEdgeStyle;rounded=0;orthogonalLoop=1;jettySize=auto;html=1;exitX=1;exitY=0.5;exitDx=0;exitDy=0;" edge="1" parent="WIyWlLk6GJQsqaUBKTNV-1" source="a27hsYVGrG07yMlYosN4-61" target="a27hsYVGrG07yMlYosN4-27">
          <mxGeometry relative="1" as="geometry" />
        </mxCell>
        <mxCell id="a27hsYVGrG07yMlYosN4-61" value="bank.d&amp;nbsp;&lt;span style=&quot;border-color: var(--border-color); background-color: initial;&quot;&gt;≤ lender.s&lt;/span&gt;" style="rhombus;whiteSpace=wrap;html=1;" vertex="1" parent="WIyWlLk6GJQsqaUBKTNV-1">
          <mxGeometry x="496" y="315" width="110" height="30" as="geometry" />
        </mxCell>
        <mxCell id="a27hsYVGrG07yMlYosN4-67" style="edgeStyle=orthogonalEdgeStyle;rounded=0;orthogonalLoop=1;jettySize=auto;html=1;exitX=1;exitY=0.5;exitDx=0;exitDy=0;entryX=0;entryY=0.5;entryDx=0;entryDy=0;" edge="1" parent="WIyWlLk6GJQsqaUBKTNV-1" source="a27hsYVGrG07yMlYosN4-62" target="a27hsYVGrG07yMlYosN4-61">
          <mxGeometry relative="1" as="geometry" />
        </mxCell>
        <mxCell id="a27hsYVGrG07yMlYosN4-69" value="yes: bank is&amp;nbsp;&lt;br&gt;borrower" style="edgeLabel;html=1;align=center;verticalAlign=middle;resizable=0;points=[];" vertex="1" connectable="0" parent="a27hsYVGrG07yMlYosN4-67">
          <mxGeometry x="-0.1419" y="-3" relative="1" as="geometry">
            <mxPoint as="offset" />
          </mxGeometry>
        </mxCell>
        <mxCell id="a27hsYVGrG07yMlYosN4-85" style="edgeStyle=orthogonalEdgeStyle;rounded=0;orthogonalLoop=1;jettySize=auto;html=1;exitX=0.5;exitY=0;exitDx=0;exitDy=0;entryX=0.75;entryY=0;entryDx=0;entryDy=0;" edge="1" parent="WIyWlLk6GJQsqaUBKTNV-1" source="a27hsYVGrG07yMlYosN4-62" target="1CRE_iQsh6xUmbvRWO65-7">
          <mxGeometry relative="1" as="geometry" />
        </mxCell>
        <mxCell id="a27hsYVGrG07yMlYosN4-62" value="&lt;span style=&quot;color: rgb(0, 0, 0); font-family: Helvetica; font-size: 12px; font-style: normal; font-variant-ligatures: normal; font-variant-caps: normal; font-weight: 400; letter-spacing: normal; orphans: 2; text-align: center; text-indent: 0px; text-transform: none; widows: 2; word-spacing: 0px; -webkit-text-stroke-width: 0px; background-color: rgb(255, 255, 255); text-decoration-thickness: initial; text-decoration-style: initial; text-decoration-color: initial; float: none; display: inline !important;&quot;&gt;bank.d&amp;gt;0&lt;/span&gt;" style="rhombus;whiteSpace=wrap;html=1;" vertex="1" parent="WIyWlLk6GJQsqaUBKTNV-1">
          <mxGeometry x="333" y="305" width="80" height="30" as="geometry" />
        </mxCell>
        <mxCell id="a27hsYVGrG07yMlYosN4-76" style="edgeStyle=orthogonalEdgeStyle;rounded=0;orthogonalLoop=1;jettySize=auto;html=1;entryX=1;entryY=0.75;entryDx=0;entryDy=0;" edge="1" parent="WIyWlLk6GJQsqaUBKTNV-1" source="a27hsYVGrG07yMlYosN4-72" target="1CRE_iQsh6xUmbvRWO65-7">
          <mxGeometry relative="1" as="geometry" />
        </mxCell>
        <mxCell id="a27hsYVGrG07yMlYosN4-72" value="obtain&lt;br&gt;loan" style="ellipse;whiteSpace=wrap;html=1;" vertex="1" parent="WIyWlLk6GJQsqaUBKTNV-1">
          <mxGeometry x="516" y="359" width="70" height="31" as="geometry" />
        </mxCell>
        <mxCell id="a27hsYVGrG07yMlYosN4-77" value="&lt;span style=&quot;background-color: rgb(255, 255, 255);&quot;&gt;yes&lt;br&gt;&lt;/span&gt;" style="text;whiteSpace=wrap;html=1;" vertex="1" parent="WIyWlLk6GJQsqaUBKTNV-1">
          <mxGeometry x="557.97" y="338" width="58.03" height="20" as="geometry" />
        </mxCell>
        <mxCell id="a27hsYVGrG07yMlYosN4-81" value="" style="shape=image;verticalLabelPosition=bottom;labelBackgroundColor=default;verticalAlign=top;aspect=fixed;imageAspect=0;image=data:image/png,iVBORw0KGgoAAAANSUhEUgAAAVAAAAAyCAYAAAAKo4M8AAAAAXNSR0IArs4c6QAAAARnQU1BAACxjwv8YQUAAAAJcEhZcwAADsMAAA7DAcdvqGQAABhgSURBVHhe7Z0JXFXV9sd/1wEUrxm+HDBAZBIVRXE2NLRES3MsZ03ylWaZWpo2qeVQifVXKjHfw55DBiXOJhqgIoIDKCgzAgIKCMp4UeAO67/v5UCAdzgXAS92vp/P+XDuPvcezlln77XXWnvvdUTEgICAgICA3jTj/goICAgI6ImgQAUEBATqiKBABQQEBOqIoEAFBAQE6oigQAUEBATqiKBABQQEBOqIoEAFBAQE6ogBKFAZcoM3YVRbZyw4eAsKrlRAC5SN4HWvoq39EhxML+MKBQQEGhsDUKByFKfF4Qos0cPyGYi4UgEtUDHSouIAKxtYPtuCKxQQEGhshJVIAgICAnVEiIEKCAgI1JEnpkBJEg3fD2dh4pzxGDRsGXwSJdwRAfXIIYn1xYfTpmLO+Bcw7F0fJJY2IedBdh9Re7fi19gSrkCg6UCQ5V/D3vU+iC1vqg6rDLlBXvgu6Dbb4wFlIeg7LwRl6RhjULrwjY4ih4LXzKdV/ukklYaThw3IdKk/3ecOCzyKIu8srZm4hvwzS0ka7kE2cKKl/tncUQNHkUuhGxfSauXz5ooEmg6KvPO0ceY6Vd1r0igK6MaOJfSeXwqveqgojqQd7qvIL+0hV/IoOixQwoOI7zBMJIKI72Y7EjOWbcKuE1eRVapuTJ0gjTuITRmv4QM3CzRLicJfyUAr45Z4OoZDGkJmJYjz3YWMeQvgZkZIibqMZCYt45bNueOGzAOk/L4Bm43c8Ql73sKQ12NA6Tj4Vg9WZ9rCduTrePPNN7ltLqaNtFeV268KRD739QrkyA/6DPasnrUdMB5zK38zbSRsRZZ4ZVc8+4YWpEn4fYU3jD5cwuqeMVdYmzLkRh3FjnWfYfWGr7HFYyPWrP4Snr9fRIba+lzPKK3FT96GZ5QO70bUDo4LlmNUwDpsDrvHWqp2ROI+WLBuEAI++BFh+RqkxClSHhRQ2AYX5f8kDP2WwgplXHk1FA8pP+MGBf53ObmKQWLXleQTU0AK7nAFMsoL/ok2BWay8mKK3DaOndOFvgi+xx1/mqgvmTGL3cOTAnNYv1l2jbYNMyU4rKPgQjl33FBR0MPon2mi2//RFXX3LlBHFCRN2UdvKOsVrGjCtouUJ61ZYx6lnPLjfqWFZmKym+9F5xJy6KGun7D2Ge01h9w8LlKhpu8yqy7a+21yGPkV+adJ/q630nsUqSpfTwENablKs+nKjn+THVzJI7yYK9SO4u5JWu6ymvzv8rFDpXTXfzW5LD9Jd9XIQA8Fmk3+S51UysDii2CScKXqkVFx9P9ovp2YYLdUswlccpk8hjJl4LiJwkp0Ps0mSH3LTEEl4VtoKMTkuCGUSrhSg6U8hrwnjqZVgXdrdQgCj4eCJMFryUKlQN8g7wTNLmYN5HHk/cqHdIyX4lBQeYI3TXT8nALva+r8lMplFTmIZ7FrUFMbFXcpcNUwEk/4maJ1a2s9YB1IcSYlhB4gj/ns/Co58FegTPFQgvdsclwVQPf5XJaWesxfgUqC6QsL5YXyjb2V0x2/d8mU3Zypux/deeRCmTII20SOTUUZ1IV6l1k+s2hdVZVlQ1g+V2aoyOh+4OfkMHoHxZTXZ+NpGBQ5F+nX4wnEUxU9YUooxmsiqwesbrl4UQxf4/6+Py17y48y+TwOlfJzpdFeN1it1ABnAJkuOqbWOlO28bJITxoGB3L3S3tE+dQJ1ZiJGfUfN4+WrvmJfAJ308dW+ipQdmVKWVhMJ69oPr9hddl/JVmo6Qh4j8LL02JwJkO554j+9s+qyrTTEl1efh1vmwH5v+zCgeu1R9nv4+IhP0TjRbw9vjdMlHGMr7fjvKZYQxOk3mVWdBWHfjoLDJuC8c7tQLlB+HrL+VoxLwNBmoDDnsfgMHcUHFoa/vIIefp5rPk92jBlWRvKRIT/VdWuxche6MorFK5AUWQoMlz7oLPOx0GQJh2H505zzHWzY7VSHex8EX/CO6wVBg60xXNqzymCUbdecDGLxx8HwpChVPmPS4v+WHEzE+HHd2Prl4sxfUQvdKjDUICo/WBMX5iDbXsvIU/ndTVH++GTsTBlL/aG5iq1dRU8FWgZ0iNCEKLcdXFBf0tNweRatLWG8wgrtnMVJyJu11ymWXQdp/ZGAG5TMLa3GJQVhl8j2uL5dk1hYIQP9S0zVmHDA7A3ywxuC0ajt5EMWeePIaJTZ7TjvmE4EMpjA+F9xBFTXCyFycb1TX4yIoKVPbMTprxgjzYVpTqQIOlqHl7u34XHar8SxPofxJERbnDppqnesvNduoB4mKDzs200P2OTduhgwr597CzCs3lNIGok2qH3iBEo2XkMobk8rsukO0ZMlmPnH5eRW02D8qzbBUiMiFbt8e/xGKLmaGms/HIWrlxPY2ephkyKslLAZrQTrEW5CPn5OMyXjkW3p6a11bfMiImsHKXojtFO5hDlh+LnPR2wdLy1ASqoEsSdO4VQfToOAZ4QSmLCcFBlKvP1bBiKTESd74ReXVtzBVoov4lzvtfhMrYfLDVpW8pBbEg827FA766mFWXqaP4vWAxgBoEkCpE3i7hCQ0CENk4jMLPVn/ALyaxhVarnWTi5uqLVvhMIqdYR8Gt7JYm4cDCK7ejT49UkP7+E2WTVaP8CFm9fivY7V2DGpEX4zXYZVrp0eHrWwte7zJgb8eK/sX2RAjtXzMGk+Udgu/E9uJgaoMWuuI2IE1dhNbYvbAzw8po2D5EWEwlVZEiPDoruxuKC9UD0aqO7hSluMe8ntCvG9rVgtU4D8kLcjVZdhXaqDIIcpOUa2CKKtpZwHFSKI8FxPEI3zdC2Ww8MkoQh+Pp9roynAtU/lschz8PtG3e5D7URw37GVlxOPIMDR/ywfW4fiJ8a7dlAMmvlgBle55B45jCOHPkec3u1M8wO5/5NXA41xmDbzjDiinRDeBD1MybZv4KNYXlcWS2Y1ROx3ws7g9Ig5YoMHcoPww8f7UbUA74BQII03R/rJg7HxC1hyK/9szrGP4vjolDobAMttiKHHPcTIxEKO9g+z3xvTRTdw20Nj0k9eUjJKdQ+57SxEXWA3cCuyA9OQAaPCxN1scNAq2QEJ2RX3QcPBVrHWJ6Swmyk3KoYCLGy74L2qr16hkpRkJ2FrKz62LJxT1IfcRoDl1kDI0uPR4DEXOXa8Vfw+Yjw240jSXIYG6mfbi+PO4hlsxdj3alkZoc1ASgXIVu/xYVeA9DdhK8kHiLpzx348mgIjm7yw+Xag6p1in8WITYsl2f88yHS429AYmWLrh21LHsoK2EeErfPi3xkScp4uMqNiQmet7UDrsUiOYdHuzfqDNvBz+FaRDKzpyvgoUDrGMtjoipLvYGzKiHbYKhtJz2sEf4oUv+Au10XdOlSH5sdhm8OZdXtcTFsmTUsMuSm3UQy8zDattZj3ZE8EzFn4gGzAXC2E3OF1anslOwwZrAt2nKlhguzqK/uw4acedg8rydacaW6MUGPOV9ix3TWsPMlKCmrrnKqxT/FQzGiz78qinUhv43IK8x6suER/2SKLu0GU9CmYrRu8RS5hGpphlZtxKymJiAls5Qr04LICG2eZU/yQgoyOX2rW4FWxfIc8OogGz1ieWVIi7oM5S8BZ7zcz6xB3M1m1nNxqFg1n7UetmLEfTUCz3DnrjMGLrOGRY7SEqUF3RXmHflb3orkyzgUkg/TaS+i7zNqqiXdQ0yoUjJ9Mdyxo+HLhbnaQb+kYs6KsbDUUxEplxDOXeYOx349YVPDCqwW/xw2EI6d+HVQlH4NAd2dYGfM4zqoDCWF5UBvc3Tk3fE3VZrD1MwSnVi7K3rA7lknz8DMtjNQLsEDrmPTqUD/juX1xiB7PRxKxS2E+KqcWIgnvQZXW/59cFPnny0zKfLu3uH2+SLD3egrCIUFRvTXEKcrTsD5I8yqdxmFITb6yIUgk9xXE66puWXfK4L8YQFy1ByrsWUXgE8SLMq4gKNdZmKqjbo4ojLOeQb/2R/xaIxThQgmXbtj4IjusKiuxKrin2I4je6Drjz8R2WHlp+YiHZ8rXa+g0MtjNBanaOgEVOYiY0NtOPTc4ArIxu5RRWhFR2PQIac+ChEKnedBsGpK1+LglWQ+HPwOZ3F9ofhvSVjnqLpSboQZKY/BYi7dAUSDMGEweZqGhlzh2Mv4U8mGv1CIkqyEfj5GDXhmpqbxdj1uPXHAvRVc6zGZrcEf6Tqeo2KDNnhN9F7XG/mkKujEBF7v8I7R2+ye1aPolgCce3OpCr+2R1jnK3Ar2YVIubCfbxQ31a7qRlsO3H7vGgP647tNI/qN1F0NNHKig2YjXHm5wIooVyc37MHf7Fd05mL8fZwTdOT5JAk+mPX/ovIkhlWeLnuNLDMqBCJJ/Zi/8VM1kwbA/aM0i/Bb9Ns2Dt7IqohhlHLbuHqqQQtHc5D3Iq8hGj0x0zXHnpOCTPDmK3hasI1NTdpuAds5vkhU82xGlvxXsy11qW6WB2IMEZfWw1XqoxJ+t+Cm5sTnlf7kMtx+1om+tbqTGSpN3BcFR/vA2c7nssniqLxV+wAuNS3N9O8HTo5WrCdfNy+p8V6YxZtTopyuL4junbQ78k1BbQr0MqKrVfgnlAaexjbfgplP3sXXhsmw0bTUj5FEn5f8hYWrDiKON7TPGphaKPwDSwzRZIfloyfhxWH4vGAK2sQ5FHwdG4LkagHJqz/Ed5b9iOpqBy6+7lW6GLdnf0th5Rnp6hIu46/oiSaO5xK11U8EIN76DEl7EmhuIdbsc1goqnzLLyD+GQXzHHtpr4BPojC78c7a1Z6ukbIqyhF+snDyJr1Muz4ejMtOsL6BRtWj6Xan7WoPaz6mLMdCfJLtMQPqQySLKXWt4aduaEpUIJcWs5MBB2LAaqQQ1rG9IMNk3+HCvlrFWtlxdYncE+Sq/jPp1/jKF7BGq9PMdVa81wyxc1Q+DKX1WzuyxigbuCAB4Y2Ct+wMivFzRB/nGaW2NwxfR5/sEsbzZ3wwdViZnUlIshrGUbxDuWKYNxGzFzPVGTk8HljaGX8U3OHQ7nxCFW6ri8NQ7/OFRVXnnoeAak8Rk6fBIoS5KUWVg001ESO/Bh2vyZO6Kl2etsDJPvtQcLkUY8ovWZt24OpNvZsjNCyua6aRZBlBmDr0R5Y9qoFr3pYgRHamIqB8AzkaPU2KlbmmOEubtzOY3elHsq6ifBktuM2CoN5h7MaCznyMtNxC+0gbs1H/xQhMzGLOTVitOYEquVXlRWbwTOWR5JY7F+xEB8E9cCawzvxxUvmWhLoliHtUhBTBo6YOLx7naelGNYofAPLjG7j0tGLzMd3YcrZUC2x5mjX2RJWKEZuIR8FVxnyeB69urZX09CZwrkWjCP5Yji59EAX1RdKkXzmAu43r1un2yhIghFwtXbSXinyo3bjwwXf4kryXzgVnlfreBmyAr/H2zussGjso0qvmZUzxg1jltLdZKTpWL9Nkuvw/vwMBq+fjV6t+KtP5QBVZ2szpsfzUPhAWzLkZnhmyGR8OLQlrgVdR7paa1WB4qQoBMMB7gvVW8FUWoDse5JGCkfVRobigjx2y5Yw78BDubOOsSD7AcS9zKsSmGipgfrE8qQoSDyJ7/49C4uuDoLX6f9qUAQKFF38CW8pM2LPnYo3Fv/KLt4YGb6fYj4rc193Clna3AaDpyFkloeLnu+rsojPfW0GFh/JgNj6JnxXLmBl72Ddqdu1GuGTp3k3R4w2y0TkrXvVkqFooCrkoW4qCbOisoKw7VsfZDHby7W3RcXAifQmzsTaYqiFgc6SbWGO3uPz8NWCVfjhVCRSs7KQkXgRxzw/wBiX7Wj19QHsnpmMz+atwA/+4UjMyOSOL8PESUEY/s08OKubeG/UG3PWvwcHiT92H4iCRIPSKk0PxHcf7EHLj9ZgmhYPUD2t0c2xH8yY5XgrW8fUHpN+mLf2HTgc2YffLtXuDBiyVJzcewjFE5bjIzVWMOWexZev9oFZhxF4xzfpCawuk+B2QgowrC/s/8VjeEuSiYQb7OuDbFE1A5dZXmqQ08O0Q7TMQcxkYkXTfVLV5PLjkpqG+9Pu9fNpoOkwmu9xiCJzeGafLgykj82YzN28KcHQE6vzoqFlJmci+4TMYEZu3nHsUyPCvbcKNh4UzisXbwr5zLTh9Z4reYI3uSk1JcTksOwY3anKrC6j4uTjtHH1Hrp6eSdNFFfmVFUm8f2W1tVzkmbVe6bm+VEm9/nx4HKhqu6r+taP5ntHUbFCRnmhm2mkWNNx7jTqUBRQjM9KcjV1oYXbT1NM7sMKOSgeUm5CKPltW0rT3T0psHp2eD1RpPnQzCp566AqI/1aOpZc+Pf/5DLFa8tIX/FuL+7e9clrWoWUiuP30XxT5TmcaJFPHBXrzMxfDWWCaTcL3vmIK+pqzVy8Nd4LL4/ZgVFD3kWw0oTig40rpo93xYtDh+OFEUPQ28yEZ6yFUBbxHQYPWInCDWGI/2wIzykZhkfjyawIEVtex4CVD7Eh7Dg+G9KISexkEdjiMAAr4YHw+BXorzkuw1GKxF3z0H1dTwTHrcVwjQksypHu+y56zbgG990bMaowBEHJzdDZvB2MymUwdhiLGROc0KFFObKCd2Hzb7fwnPWzMLZ6DYted6zX3AmyiC1w8LTG+d1TwBzYx0c1W+IXbP/PPngHAaMWzGZe1zS86vw8VB41lSDjwgHs9PwJW08qMMp9Kl6fNhtvvGBZcVwrSu8lBMeO+iPgxCHsOZsEcf9JcB83Bq5jR2PUQGs8+ziriBTx2PXKKKwb7Iu4r4bzmPWgfCdSII6dCEOiwgTPGTNPM6sYxn3HYtaU4egm1mDdlcbD95MP4RFljpdsO2Pwl2swxUxX5crAwTdHYuoFC5WsHl1bpcDD9Ev44+wo+GX+qPV8lLoXk613YWDYIdaedIXEypC6dwGsN/dC2KXVGFLpIajUaKNTSil7Zqt6DV69nADr6ZNoz0QLgulH5K/xFQsNhL4WKKPCihlLHuEFXIk6uFeeiBeRXybPEzcQ9WuBNnXKKM3nLRIP3ULhjfKqHSll+nk1ch1gnsyxpWTK93VCitt0bJHTI9bqE4rCV64V1zNT0T+ZyknUI5xgrymFXd4pLGuv5q2fOrdXsCWikDtJ/SCycMGsOVnY7R+rebpV5ZLXvk5w4DUtR6BxMILFyMmYE38c/tfrt16opwRpGSa1lq02MJSBM/sDMeC919CfR6IXygjB/n02eG9ynxqLI56MAq1sOE590bNL00uX0fhUJpGoPhKthvZjsDVP3ewCXdtJrOhfzyEBURe8/P5iWPv8iYt56ie5VC551X91Uf3T3HI4vprmyCPd2z8DUUdXvL/JDD6HI3i88uIxkWbghswS3RqtDhCkSWfw241JWD2th4ZXllTnAZICjuHGe4sxrUfNgMYTUaCKO0m4xBrO3yPV7IZSfseSTefrIRPS00gZ7iTFIqPGEr4HSPFdg03n/07ualiI0KrnZKyYcg2ehxPUjLBWZleqe8Lp+kTUYTBmjbPXI2vS044YPacvxJTg/+FwUkMu2ZAj7/w5lLr2a9h5zdVRrvrb9QdMPp6L4e11a23KC8MuT2N8/PZQMAevBk9AgcpRkBqLK7DAIEfLivmfyhvaeQBthtR9PujTTSFSryeyvw5w7FYhIeVD3fkjMKSXAYdARB3gsmw1Bvl64WB67TmhQhjH0BGZumDZd33g+81xpDfQUmsqisBv4faY7txYg6JyFF3ajW9z5mPDDE0vzKsG5eHSDm/kfLIaM9QkhnkCClSEFiZtocx02a6NMjtLGbJOe+G/rRbjo5FNIE3ZE6EFTJ5RKk4x2rRiPaYsA6c9fNFq42KM5NGDPjZyKcqUXri8HFK5fg1JZDoUH3w/EOe+OYjE6mmMylIRfiQKGDYYfZ4XwjiGSXOYDnkH37tcxje/xaH+133lImR3JPq4j0THRmr4lHsG33hK8fHGSbDW+bZYGXLPbIdnmTs2TrVVr2zpSSDNoMCNU8mu/ziaPW4szfQ4Q5n6zN/6x6EgaWYAbZzQj/qPe4PGjZxPHuduU4OOWcoiaVs/5ZxWqN/6baNI3pMBSikz4GtyX3v67+esyKawX7xoX9idhr0PgceHtdeAte/T2oCMJv2sFMVR9MvyT2lPdAGPObIyKo7eQ8uX/0rRxZoreo15oAICDYcy89Z5XBENxEi7py8rz1OPcl6rfxRELw2HnVFT9BNluBdxDje7uGCIGY9Z58r3b528hS5uA2GmZU6toEAFBAQE6sgTmgcqICAg0PQRFKiAgIBAHREUqICAgEAdERSogICAQB0RFKiAgIBAHREUqICAgECdAP4fCaUGDCTA57gAAAAASUVORK5CYII=;" vertex="1" parent="WIyWlLk6GJQsqaUBKTNV-1">
          <mxGeometry x="323" y="410.71000000000004" width="266" height="39.58" as="geometry" />
        </mxCell>
        <mxCell id="a27hsYVGrG07yMlYosN4-82" value="&lt;span style=&quot;color: rgb(0, 0, 0); font-family: Helvetica; font-size: 12px; font-style: normal; font-variant-ligatures: normal; font-variant-caps: normal; font-weight: 400; letter-spacing: normal; orphans: 2; text-align: center; text-indent: 0px; text-transform: none; widows: 2; word-spacing: 0px; -webkit-text-stroke-width: 0px; background-color: rgb(255, 255, 255); text-decoration-thickness: initial; text-decoration-style: initial; text-decoration-color: initial; float: none; display: inline !important;&quot;&gt;(equation 2)&lt;/span&gt;" style="text;whiteSpace=wrap;html=1;" vertex="1" parent="WIyWlLk6GJQsqaUBKTNV-1">
          <mxGeometry x="323" y="395.71000000000004" width="70" height="20" as="geometry" />
        </mxCell>
        <mxCell id="a27hsYVGrG07yMlYosN4-86" value="&lt;div style=&quot;text-align: center;&quot;&gt;&lt;span style=&quot;font-size: 11px; background-color: rgb(255, 255, 255);&quot;&gt;no: bank is possible lender&lt;/span&gt;&lt;/div&gt;&lt;div style=&quot;text-align: center;&quot;&gt;&lt;span style=&quot;font-size: 11px; background-color: rgb(255, 255, 255);&quot;&gt;bank.l = 0, bank.s &amp;gt; 0 if lends&lt;/span&gt;&lt;/div&gt;" style="text;whiteSpace=wrap;html=1;" vertex="1" parent="WIyWlLk6GJQsqaUBKTNV-1">
          <mxGeometry x="370" y="270" width="150" height="50" as="geometry" />
        </mxCell>
        <mxCell id="a27hsYVGrG07yMlYosN4-89" value="&lt;span style=&quot;font-size: 14px;&quot;&gt;&lt;b&gt;do_firesales&lt;/b&gt;&lt;/span&gt;" style="rounded=1;whiteSpace=wrap;html=1;fontSize=12;glass=0;strokeWidth=1;shadow=0;" vertex="1" parent="WIyWlLk6GJQsqaUBKTNV-1">
          <mxGeometry x="589" y="516" width="120" height="20" as="geometry" />
        </mxCell>
        <mxCell id="a27hsYVGrG07yMlYosN4-94" style="edgeStyle=orthogonalEdgeStyle;rounded=0;orthogonalLoop=1;jettySize=auto;html=1;" edge="1" parent="WIyWlLk6GJQsqaUBKTNV-1" source="a27hsYVGrG07yMlYosN4-90">
          <mxGeometry relative="1" as="geometry">
            <mxPoint x="450" y="510" as="targetPoint" />
          </mxGeometry>
        </mxCell>
        <mxCell id="a27hsYVGrG07yMlYosN4-100" style="edgeStyle=orthogonalEdgeStyle;rounded=0;orthogonalLoop=1;jettySize=auto;html=1;entryX=0.5;entryY=0;entryDx=0;entryDy=0;" edge="1" parent="WIyWlLk6GJQsqaUBKTNV-1" source="a27hsYVGrG07yMlYosN4-90" target="a27hsYVGrG07yMlYosN4-97">
          <mxGeometry relative="1" as="geometry" />
        </mxCell>
        <mxCell id="a27hsYVGrG07yMlYosN4-90" value="&lt;span style=&quot;color: rgb(0, 0, 0); font-family: Helvetica; font-size: 12px; font-style: normal; font-variant-ligatures: normal; font-variant-caps: normal; font-weight: 400; letter-spacing: normal; orphans: 2; text-align: center; text-indent: 0px; text-transform: none; widows: 2; word-spacing: 0px; -webkit-text-stroke-width: 0px; background-color: rgb(255, 255, 255); text-decoration-thickness: initial; text-decoration-style: initial; text-decoration-color: initial; float: none; display: inline !important;&quot;&gt;bank.l&amp;gt;0&lt;/span&gt;" style="rhombus;whiteSpace=wrap;html=1;" vertex="1" parent="WIyWlLk6GJQsqaUBKTNV-1">
          <mxGeometry x="319" y="471" width="80" height="30" as="geometry" />
        </mxCell>
        <mxCell id="a27hsYVGrG07yMlYosN4-91" value="&lt;div style=&quot;text-align: center;&quot;&gt;&lt;span style=&quot;background-color: rgb(255, 255, 255);&quot;&gt;yes: borrower pays loans&lt;/span&gt;&lt;/div&gt;" style="text;whiteSpace=wrap;html=1;" vertex="1" parent="WIyWlLk6GJQsqaUBKTNV-1">
          <mxGeometry x="415" y="450.2900000000001" width="70" height="20" as="geometry" />
        </mxCell>
        <mxCell id="a27hsYVGrG07yMlYosN4-96" value="yes" style="edgeStyle=orthogonalEdgeStyle;rounded=0;orthogonalLoop=1;jettySize=auto;html=1;" edge="1" parent="WIyWlLk6GJQsqaUBKTNV-1" source="a27hsYVGrG07yMlYosN4-93" target="a27hsYVGrG07yMlYosN4-89">
          <mxGeometry relative="1" as="geometry" />
        </mxCell>
        <mxCell id="a27hsYVGrG07yMlYosN4-93" value="&lt;span style=&quot;color: rgb(0, 0, 0); font-family: Helvetica; font-size: 12px; font-style: normal; font-variant-ligatures: normal; font-variant-caps: normal; font-weight: 400; letter-spacing: normal; orphans: 2; text-align: center; text-indent: 0px; text-transform: none; widows: 2; word-spacing: 0px; -webkit-text-stroke-width: 0px; background-color: rgb(255, 255, 255); text-decoration-thickness: initial; text-decoration-style: initial; text-decoration-color: initial; float: none; display: inline !important;&quot;&gt;loan+interest &amp;gt; C&lt;/span&gt;" style="rhombus;whiteSpace=wrap;html=1;" vertex="1" parent="WIyWlLk6GJQsqaUBKTNV-1">
          <mxGeometry x="370" y="510" width="160" height="30" as="geometry" />
        </mxCell>
        <mxCell id="a27hsYVGrG07yMlYosN4-104" style="edgeStyle=orthogonalEdgeStyle;rounded=0;orthogonalLoop=1;jettySize=auto;html=1;exitX=0.5;exitY=1;exitDx=0;exitDy=0;entryX=0.5;entryY=0;entryDx=0;entryDy=0;" edge="1" parent="WIyWlLk6GJQsqaUBKTNV-1" source="a27hsYVGrG07yMlYosN4-97" target="a27hsYVGrG07yMlYosN4-101">
          <mxGeometry relative="1" as="geometry" />
        </mxCell>
        <mxCell id="a27hsYVGrG07yMlYosN4-97" value="&lt;span style=&quot;color: rgb(0, 0, 0); font-family: Helvetica; font-size: 12px; font-style: normal; font-variant-ligatures: normal; font-variant-caps: normal; font-weight: 400; letter-spacing: normal; orphans: 2; text-align: center; text-indent: 0px; text-transform: none; widows: 2; word-spacing: 0px; -webkit-text-stroke-width: 0px; background-color: rgb(255, 255, 255); text-decoration-thickness: initial; text-decoration-style: initial; text-decoration-color: initial; float: none; display: inline !important;&quot;&gt;bank.d&amp;gt;0&lt;/span&gt;" style="rhombus;whiteSpace=wrap;html=1;" vertex="1" parent="WIyWlLk6GJQsqaUBKTNV-1">
          <mxGeometry x="318" y="555" width="80" height="30" as="geometry" />
        </mxCell>
        <mxCell id="a27hsYVGrG07yMlYosN4-98" value="&lt;div style=&quot;text-align: center;&quot;&gt;&lt;span style=&quot;background-color: rgb(255, 255, 255);&quot;&gt;yes:shock2 needs firesales also (no loans)&lt;/span&gt;&lt;/div&gt;" style="text;whiteSpace=wrap;html=1;" vertex="1" parent="WIyWlLk6GJQsqaUBKTNV-1">
          <mxGeometry x="427.58" y="550" width="137" height="20" as="geometry" />
        </mxCell>
        <mxCell id="a27hsYVGrG07yMlYosN4-103" value="yes" style="edgeStyle=orthogonalEdgeStyle;rounded=0;orthogonalLoop=1;jettySize=auto;html=1;exitX=1;exitY=0.5;exitDx=0;exitDy=0;" edge="1" parent="WIyWlLk6GJQsqaUBKTNV-1" source="a27hsYVGrG07yMlYosN4-101" target="a27hsYVGrG07yMlYosN4-102">
          <mxGeometry relative="1" as="geometry" />
        </mxCell>
        <mxCell id="a27hsYVGrG07yMlYosN4-101" value="&lt;span style=&quot;color: rgb(0, 0, 0); font-family: Helvetica; font-size: 12px; font-style: normal; font-variant-ligatures: normal; font-variant-caps: normal; font-weight: 400; letter-spacing: normal; orphans: 2; text-align: center; text-indent: 0px; text-transform: none; widows: 2; word-spacing: 0px; -webkit-text-stroke-width: 0px; background-color: rgb(255, 255, 255); text-decoration-thickness: initial; text-decoration-style: initial; text-decoration-color: initial; float: none; display: inline !important;&quot;&gt;bank.failed?&lt;/span&gt;" style="rhombus;whiteSpace=wrap;html=1;" vertex="1" parent="WIyWlLk6GJQsqaUBKTNV-1">
          <mxGeometry x="318" y="612" width="80" height="30" as="geometry" />
        </mxCell>
        <mxCell id="a27hsYVGrG07yMlYosN4-102" value="&lt;span style=&quot;font-size: 14px;&quot;&gt;&lt;b&gt;replace_bank&lt;/b&gt;&lt;/span&gt;" style="rounded=1;whiteSpace=wrap;html=1;fontSize=12;glass=0;strokeWidth=1;shadow=0;" vertex="1" parent="WIyWlLk6GJQsqaUBKTNV-1">
          <mxGeometry x="460" y="617" width="120" height="20" as="geometry" />
        </mxCell>
        <mxCell id="a27hsYVGrG07yMlYosN4-105" value="no" style="edgeStyle=orthogonalEdgeStyle;rounded=0;orthogonalLoop=1;jettySize=auto;html=1;entryX=0.937;entryY=1.076;entryDx=0;entryDy=0;entryPerimeter=0;" edge="1" parent="WIyWlLk6GJQsqaUBKTNV-1" source="a27hsYVGrG07yMlYosN4-101" target="a27hsYVGrG07yMlYosN4-0">
          <mxGeometry relative="1" as="geometry" />
        </mxCell>
        <mxCell id="a27hsYVGrG07yMlYosN4-107" style="edgeStyle=orthogonalEdgeStyle;rounded=0;orthogonalLoop=1;jettySize=auto;html=1;exitX=1;exitY=0.5;exitDx=0;exitDy=0;entryX=0.263;entryY=0.84;entryDx=0;entryDy=0;entryPerimeter=0;" edge="1" parent="WIyWlLk6GJQsqaUBKTNV-1" source="a27hsYVGrG07yMlYosN4-0" target="a27hsYVGrG07yMlYosN4-90">
          <mxGeometry relative="1" as="geometry" />
        </mxCell>
        <mxCell id="a27hsYVGrG07yMlYosN4-114" style="edgeStyle=orthogonalEdgeStyle;rounded=0;orthogonalLoop=1;jettySize=auto;html=1;entryX=0.109;entryY=0.045;entryDx=0;entryDy=0;entryPerimeter=0;" edge="1" parent="WIyWlLk6GJQsqaUBKTNV-1" source="a27hsYVGrG07yMlYosN4-34" target="a27hsYVGrG07yMlYosN4-40">
          <mxGeometry relative="1" as="geometry" />
        </mxCell>
      </root>
    </mxGraphModel>
  </diagram>
</mxfile>
